<svg version="1.1" id="Layer_1" xmlns="http://www.w3.org/2000/svg" xmlns:xlink="http://www.w3.org/1999/xlink" x="0px" y="0px"
	 width="100%" viewBox="0 0 250 250" enable-background="new 0 0 250 250" xml:space="preserve">
<path fill="#FFFFFF" opacity="1.000000" stroke="none" 
	d="
M1.000000,67.000000 
	C1.000000,44.666672 1.000000,22.833342 1.000000,1.000009 
	C84.333313,1.000006 167.666626,1.000006 250.999954,1.000003 
	C250.999969,84.333298 250.999969,167.666595 250.999985,250.999908 
	C167.666718,250.999939 84.333427,250.999939 1.000073,250.999969 
	C1.000000,189.833328 1.000000,128.666672 1.000000,67.000000 
M58.005043,138.839905 
	C58.005043,141.213303 58.005043,143.586716 58.005043,145.930893 
	C61.163143,145.930893 63.619465,145.930893 66.005508,146.845917 
	C66.005508,149.107590 66.005508,151.369263 66.005508,154.146301 
	C63.100735,154.146301 60.575272,154.146301 58.069157,154.146301 
	C58.069157,157.137787 58.069157,159.606857 57.125526,162.005356 
	C49.434978,162.005356 41.744434,162.005356 34.068481,162.005356 
	C34.068481,165.129044 34.068481,167.604172 33.151669,170.005737 
	C30.876997,170.005737 28.602325,170.005737 25.948338,170.005737 
	C25.948338,164.488434 25.948338,159.399063 25.948338,153.950211 
	C23.157835,153.950211 20.749260,153.950211 18.214760,153.950211 
	C18.214760,148.494705 18.214760,143.420547 18.214760,138.206085 
	C21.030878,138.035507 23.643425,137.877258 26.019758,138.682129 
	C26.019758,141.092941 26.019758,143.503754 26.019758,145.931274 
	C29.125727,145.931274 31.602613,145.931274 34.005745,146.848099 
	C34.005745,149.114960 34.005745,151.381821 34.005745,153.646454 
	C39.594822,153.646454 44.770771,153.646454 49.655628,153.646454 
	C49.655628,150.891068 49.655628,148.495041 49.655628,146.073273 
	C44.186760,146.073273 39.061996,146.073273 33.995365,145.158157 
	C33.995365,142.803879 33.995365,140.449585 33.995365,137.870972 
	C30.951405,137.870972 28.536264,137.870972 26.008749,136.984482 
	C26.008749,134.724838 26.008749,132.465195 26.008749,130.152527 
	C23.046919,130.022491 20.632957,129.916534 17.864794,129.795013 
	C17.864794,127.065086 17.864794,124.656075 17.864794,122.248909 
	C15.081515,122.248909 12.681623,122.248909 10.204903,122.248909 
	C10.204903,135.544998 10.204903,148.591370 10.204903,162.010681 
	C12.808989,162.010681 15.216643,162.010681 17.637173,162.010681 
	C17.637173,164.915115 17.637173,167.430649 17.637173,170.319046 
	C14.861468,170.319046 12.454210,170.319046 10.162685,170.319046 
	C10.162685,172.989639 10.162685,175.275192 10.162685,177.696228 
	C18.186222,177.696228 26.044540,177.696228 33.926479,177.696228 
	C33.926479,174.907379 33.926479,172.422226 34.842827,169.995361 
	C37.115402,169.995361 39.387981,169.995361 42.023239,169.995361 
	C42.023239,172.816269 42.023239,175.221970 42.023239,177.690506 
	C52.903149,177.690506 63.409546,177.690506 73.924171,177.690506 
	C73.924171,174.897644 73.924171,172.414230 74.840836,169.994949 
	C77.103310,169.994949 79.365776,169.994949 81.666183,169.994949 
	C81.666183,167.090607 81.666183,164.577698 81.666183,162.069229 
	C78.862991,162.069229 76.393600,162.069229 73.994606,161.128662 
	C73.973427,156.060532 73.952255,150.992401 74.846107,145.994507 
	C77.118225,145.994507 79.390343,145.994507 82.025391,145.994507 
	C82.025391,148.820526 82.025391,151.229218 82.025391,153.999298 
	C84.795181,153.999298 87.202408,153.999298 89.969849,153.999298 
	C89.969849,156.757034 89.969849,159.172684 89.969849,161.689789 
	C95.535126,161.689789 100.726898,161.689789 105.924126,161.689789 
	C105.924126,158.896744 105.924126,156.413818 106.839836,153.994965 
	C109.213257,153.994965 111.586685,153.994965 113.930756,153.994965 
	C113.930756,150.836853 113.930756,148.380524 114.847885,145.994522 
	C117.120522,145.994522 119.393158,145.994522 121.790237,145.994522 
	C121.790237,151.504822 121.790237,156.577408 121.790237,162.024094 
	C119.178696,162.024094 116.769035,162.024094 114.193481,162.024094 
	C114.193481,164.806717 114.193481,167.212524 114.193481,169.995972 
	C116.789474,169.995972 119.201385,169.995972 121.980644,169.995972 
	C121.980644,172.773773 121.980644,175.183334 121.980644,177.648178 
	C127.550629,177.648178 132.737411,177.648178 138.286621,177.648178 
	C138.286621,172.217499 138.286621,167.138611 138.286621,161.703110 
	C141.073517,161.703110 143.482193,161.703110 146.254547,161.703110 
	C146.254547,156.260925 146.254547,151.194427 146.254547,145.924103 
	C151.787308,145.924103 156.928146,145.924103 162.004929,146.867294 
	C162.004929,151.897675 162.004929,156.928055 162.004929,161.930847 
	C165.140945,161.930847 167.608398,161.930847 170.005402,162.872421 
	C170.005402,167.792221 170.005402,172.712006 170.005402,178.158386 
	C167.093460,178.158386 164.570328,178.158386 161.714752,178.158386 
	C161.714752,181.104462 161.714752,183.509186 161.714752,186.073196 
	C158.884766,186.073196 156.411041,186.073196 153.995377,185.156967 
	C153.995377,182.890091 153.995377,180.623199 153.995377,178.357391 
	C151.074829,178.357391 148.564529,178.357391 146.327759,178.357391 
	C146.327759,181.124069 146.327759,183.527802 146.327759,185.931213 
	C149.130142,185.931213 151.604858,185.931213 154.005630,186.874603 
	C154.097366,194.668350 154.189102,202.462112 153.316742,210.019730 
	C150.902496,210.019730 148.488251,210.019730 145.706436,210.019730 
	C145.706436,206.908310 145.706436,204.502701 145.706436,201.739487 
	C140.233612,201.739487 135.153824,201.739487 130.324677,201.739487 
	C130.324677,198.930542 130.324677,196.515060 130.324677,193.738373 
	C133.063156,193.738373 135.473923,193.738373 137.676529,193.738373 
	C137.676529,190.944443 137.676529,188.548355 137.676529,186.073273 
	C129.548111,186.073273 121.742676,186.073273 113.995369,185.158157 
	C113.995369,182.803879 113.995369,180.449600 113.995369,177.870987 
	C110.950897,177.870987 108.536026,177.870987 106.008698,176.982391 
	C106.008698,174.728882 106.008698,172.475372 106.008698,170.246246 
	C100.394073,170.246246 95.329063,170.246246 90.234314,170.246246 
	C90.234314,172.895981 90.234314,175.293533 90.234314,177.719025 
	C95.730568,177.719025 100.993279,177.719025 106.019760,178.682129 
	C106.019760,181.092941 106.019760,183.503769 106.019760,185.931274 
	C109.125732,185.931274 111.602623,185.931274 114.005745,186.848099 
	C114.005745,189.118164 114.005745,191.388245 114.005745,193.802002 
	C108.511131,193.802002 103.445084,193.802002 98.008972,193.802002 
	C98.008972,191.217896 98.008972,188.803955 98.008972,186.332886 
	C92.441429,186.332886 87.251190,186.332886 82.327194,186.332886 
	C82.327194,189.088699 82.327194,191.497040 82.327194,194.254700 
	C85.069077,194.254700 87.480751,194.254700 90.073257,194.254700 
	C90.073257,197.101913 90.073257,199.582306 89.157021,202.004623 
	C86.890129,202.004623 84.623238,202.004623 82.357376,202.004623 
	C82.357376,204.925140 82.357376,207.435455 82.357376,209.672256 
	C85.124054,209.672256 87.527794,209.672256 89.931267,209.672256 
	C89.931267,206.869873 89.931267,204.395157 90.874649,201.994385 
	C101.148285,201.994385 111.421921,201.994385 121.775314,201.994385 
	C121.775314,204.865067 121.775314,207.268127 121.775314,210.052582 
	C113.811935,210.052582 106.063225,210.052582 98.215675,210.052582 
	C98.215675,212.851624 98.215675,215.258514 98.215675,218.043121 
	C100.834953,218.043121 103.245827,218.043121 105.785706,218.043121 
	C105.785706,223.502380 105.785706,228.577438 105.785706,233.793564 
	C102.971375,233.964142 100.357674,234.122559 97.980247,233.316910 
	C97.980247,230.906647 97.980247,228.496384 97.980247,226.316864 
	C94.913063,226.316864 92.503113,226.316864 90.068344,226.316864 
	C90.068344,229.115189 90.068344,231.597168 89.172424,234.005783 
	C86.822029,233.960800 84.471626,233.915817 82.008560,232.957947 
	C82.008560,228.042358 82.008560,223.126770 82.008560,218.254303 
	C79.063553,218.254303 76.666718,218.254303 74.226837,218.254303 
	C74.226837,223.568680 74.226837,228.625931 74.226837,233.719009 
	C77.053963,233.719009 79.654991,233.719009 82.019753,234.683090 
	C82.019753,237.092224 82.019753,239.501343 82.019753,241.686981 
	C85.082222,241.686981 87.491203,241.686981 89.926338,241.686981 
	C89.926338,238.895065 89.926338,236.415924 90.823891,233.995346 
	C93.175514,234.039963 95.527145,234.084579 97.991295,235.017776 
	C97.991295,237.275986 97.991295,239.534195 97.991295,241.735779 
	C111.631218,241.735779 124.702843,241.735779 137.735031,241.735779 
	C137.735031,239.059418 137.735031,236.654831 137.735031,233.867462 
	C132.400726,233.867462 127.319778,233.867462 122.262741,233.867462 
	C122.262741,228.397308 122.262741,223.328308 122.262741,217.892242 
	C132.933548,217.892242 143.347733,217.892242 154.128845,217.892242 
	C154.128845,215.053436 154.128845,212.587219 155.017471,210.008682 
	C157.267578,210.008682 159.517685,210.008682 162.096237,210.008682 
	C162.096237,204.423431 162.096237,199.359436 162.096237,194.205658 
	C164.850769,194.205658 167.242874,194.205658 170.156219,194.205658 
	C170.156219,199.583023 170.156219,204.772461 170.156219,210.283264 
	C173.093597,210.283264 175.501678,210.283264 178.072754,210.283264 
	C178.072754,213.111710 178.072754,215.586838 177.130173,218.004486 
	C172.203568,218.004486 167.276978,218.004486 162.184448,218.004486 
	C162.184448,220.806519 162.184448,223.200394 162.184448,225.683456 
	C167.561203,225.683456 172.748215,225.683456 177.930771,225.683456 
	C177.930771,222.884552 177.930771,220.402176 178.832123,217.994217 
	C181.244461,217.970856 183.656784,217.947479 186.005035,218.839828 
	C186.005035,221.213257 186.005035,223.586685 186.005035,225.930893 
	C189.163162,225.930893 191.619492,225.930893 194.005508,226.845917 
	C194.005508,229.107529 194.005508,231.369156 194.005508,233.665619 
	C196.914413,233.665619 199.425125,233.665619 201.930756,233.665619 
	C201.930756,230.862259 201.930756,228.393234 202.845810,225.994492 
	C205.106552,225.994492 207.367279,225.994492 210.141571,225.994492 
	C210.141571,228.895416 210.141571,231.416519 210.141571,233.927063 
	C213.128830,233.927063 215.595581,233.927063 218.004593,234.843201 
	C218.004593,237.208694 218.004593,239.574203 218.004593,241.710663 
	C221.093597,241.710663 223.473862,241.710663 226.129501,241.710663 
	C226.129501,238.988937 226.129501,236.555405 227.042267,234.008621 
	C231.957886,234.008621 236.873489,234.008621 241.745483,234.008621 
	C241.745483,231.063202 241.745483,228.666336 241.745483,226.227142 
	C236.430832,226.227142 231.373535,226.227142 226.281403,226.227142 
	C226.281403,229.054001 226.281403,231.655457 225.330444,234.019730 
	C222.860321,234.036194 220.390182,234.052643 217.994308,233.127792 
	C217.994308,228.214645 217.994308,223.301483 217.994308,217.871307 
	C220.881851,217.871307 223.412308,217.871307 225.924149,217.871307 
	C225.924149,214.873474 225.924149,212.402100 226.826767,209.994980 
	C229.238739,209.972244 231.650726,209.949524 234.004623,210.843033 
	C234.004623,213.109909 234.004623,215.376801 234.004623,217.642609 
	C236.925171,217.642609 239.435471,217.642609 241.672241,217.642609 
	C241.672241,214.875931 241.672241,212.472198 241.672241,210.068787 
	C238.869858,210.068787 236.395142,210.068787 233.994263,209.167145 
	C233.973038,206.752838 233.951828,204.338516 234.847778,201.994522 
	C237.117493,201.994522 239.387222,201.994522 241.659485,201.994522 
	C241.659485,191.071732 241.659485,180.567520 241.659485,169.703033 
	C238.902725,169.703033 236.490921,169.703033 233.735291,169.703033 
	C233.735291,166.920853 233.735291,164.509613 233.735291,162.069168 
	C230.886932,162.069168 228.405548,162.069168 225.994614,161.127563 
	C225.994614,156.203873 225.994614,151.280182 225.994614,145.824982 
	C231.589539,145.824982 236.778046,145.824982 241.688019,145.824982 
	C241.688019,140.207458 241.688019,135.136078 241.688019,130.075729 
	C238.894379,130.075729 236.412720,130.075729 233.995071,129.132523 
	C233.995071,124.207329 233.995071,119.282143 233.995071,114.355087 
	C228.397659,114.355087 223.225357,114.355087 218.339081,114.355087 
	C218.339081,117.121002 218.339081,119.525803 218.339081,122.274902 
	C221.094559,122.274902 223.504974,122.274902 226.069199,122.274902 
	C226.069199,125.117302 226.069199,127.596512 225.154144,130.005508 
	C222.892975,130.005508 220.631821,130.005508 217.855927,130.005508 
	C217.855927,132.897339 217.855927,135.418762 217.855927,138.075806 
	C214.866653,138.075806 212.398865,138.075806 209.995117,137.130524 
	C209.995117,126.874390 209.995117,116.618256 209.995117,105.993301 
	C207.203461,105.993301 204.788330,105.993301 201.870148,105.993301 
	C201.870148,95.108246 201.870148,84.585960 201.870148,74.324654 
	C198.925079,74.324654 196.511597,74.324654 193.747742,74.324654 
	C193.747742,77.065292 193.747742,79.478401 193.747742,82.075951 
	C190.896408,82.075951 188.413635,82.075951 185.994965,81.159225 
	C185.994965,78.884903 185.994965,76.610588 185.994965,73.970673 
	C183.178558,73.970673 180.771286,73.970673 177.840057,73.970673 
	C177.840057,65.754730 177.840057,57.897339 177.840057,50.346245 
	C174.898712,50.346245 172.497681,50.346245 169.753021,50.346245 
	C169.753021,55.767891 169.753021,60.843334 169.753021,66.075851 
	C166.900711,66.075851 164.415909,66.075851 161.995087,65.132675 
	C161.995087,60.102306 161.995087,55.071938 161.995087,50.069099 
	C158.858963,50.069099 156.391525,50.069099 153.994492,49.154068 
	C153.994492,46.877697 153.994492,44.601322 153.994492,41.955578 
	C156.838638,41.955578 159.251877,41.955578 161.794891,41.955578 
	C161.794891,39.168446 161.794891,36.762268 161.794891,33.980881 
	C159.192917,33.980881 156.770294,33.980881 153.993652,33.980881 
	C153.993652,31.199638 153.993652,28.787750 153.993652,26.008701 
	C151.215576,26.008701 148.806259,26.008701 145.852509,26.008701 
	C145.852509,20.446438 145.852509,15.240183 145.852509,10.165386 
	C143.007996,10.165386 140.720001,10.165386 137.891541,10.165386 
	C137.891541,15.521935 137.891541,20.728710 137.891541,26.291491 
	C134.932236,26.291491 132.523636,26.291491 130.075989,26.291491 
	C130.075989,34.467953 130.075989,42.268581 129.173309,50.005009 
	C126.761253,50.027821 124.349190,50.050636 121.995369,49.157154 
	C121.995369,46.890255 121.995369,44.623360 121.995369,42.357300 
	C119.074928,42.357300 116.564598,42.357300 114.327675,42.357300 
	C114.327675,45.123905 114.327675,47.527660 114.327675,49.931450 
	C117.129982,49.931450 119.604683,49.931450 122.005653,50.872696 
	C122.005653,55.901371 122.005653,60.930046 122.005653,65.930855 
	C125.142181,65.930855 127.609055,65.930855 130.005493,66.832504 
	C130.028976,69.244736 130.052475,71.656967 129.157181,74.005013 
	C126.893082,74.005013 124.628983,74.005013 122.321945,74.005013 
	C122.321945,79.580048 122.321945,84.759430 122.321945,89.930885 
	C125.121223,89.930885 127.598579,89.930885 130.005402,90.872467 
	C130.005402,95.788246 130.005402,100.704025 130.005402,106.075859 
	C121.713806,106.075859 113.822342,106.075859 105.994957,105.159172 
	C105.994957,102.884109 105.994957,100.609047 105.994957,97.967041 
	C108.820534,97.967041 111.242195,97.967041 113.806290,97.967041 
	C113.806290,95.189651 113.806290,92.788788 113.806290,89.854568 
	C105.766495,89.854568 97.904221,89.854568 90.333885,89.854568 
	C90.333885,86.897331 90.333885,84.489922 90.333885,81.725800 
	C93.079239,81.725800 95.486984,81.725800 97.867676,81.725800 
	C97.989876,78.932251 98.095627,76.514900 98.208847,73.926620 
	C101.100143,73.926620 103.581482,73.926620 106.004631,74.842888 
	C106.004631,77.109779 106.004631,79.376678 106.004631,81.642685 
	C108.925095,81.642685 111.435417,81.642685 113.672318,81.642685 
	C113.672318,78.876060 113.672318,76.472305 113.672318,74.068619 
	C110.870056,74.068619 108.395309,74.068619 105.994270,73.167274 
	C105.970909,70.755135 105.947548,68.343002 106.840851,65.994957 
	C109.103317,65.994957 111.365784,65.994957 113.666183,65.994957 
	C113.666183,63.087837 113.666183,60.576633 113.666183,58.069172 
	C110.863014,58.069172 108.393623,58.069172 105.994522,57.152050 
	C105.994522,54.882721 105.994522,52.613392 105.994522,49.981903 
	C100.521263,49.981903 95.446556,49.981903 90.354599,49.981903 
	C90.354599,47.080307 90.354599,44.568512 90.354599,41.691174 
	C93.121925,41.691174 95.529564,41.691174 98.286674,41.691174 
	C98.286674,38.904034 98.286674,36.494278 98.286674,33.742451 
	C101.073006,33.742451 103.483795,33.742451 105.927177,33.742451 
	C105.927177,30.896809 105.927177,28.417345 106.869759,25.995508 
	C111.808502,25.995508 116.747253,25.995508 122.047623,25.995508 
	C122.047623,23.155254 122.047623,20.746315 122.047623,17.971905 
	C124.824089,17.971905 127.234589,17.971905 129.807281,17.971905 
	C129.807281,15.193003 129.807281,12.791457 129.807281,10.330942 
	C119.097122,10.330942 108.582626,10.330942 98.327995,10.330942 
	C98.327995,13.081088 98.327995,15.494919 98.327995,18.259136 
	C101.075134,18.259136 103.490936,18.259136 106.069160,18.259136 
	C106.069160,21.112581 106.069160,23.596317 105.127861,26.005693 
	C100.203224,26.005693 95.278587,26.005693 89.821693,26.005693 
	C89.821693,28.918245 89.821693,31.439413 89.821693,33.838394 
	C86.998444,33.838394 84.719810,33.838394 81.926598,33.838394 
	C81.926598,28.436525 81.926598,23.186842 82.842865,17.995365 
	C85.109764,17.995365 87.376656,17.995365 89.642700,17.995365 
	C89.642700,15.074926 89.642700,12.564595 89.642700,10.327688 
	C86.876076,10.327688 84.472321,10.327688 82.068596,10.327688 
	C82.068596,13.130002 82.068596,15.604711 81.151756,18.005741 
	C78.881042,18.005741 76.610329,18.005741 74.192482,18.005741 
	C74.192482,26.153122 74.192482,33.880875 74.192482,42.159546 
	C76.900520,42.159546 79.429970,42.159546 81.654327,42.159546 
	C81.654327,45.132286 81.654327,47.534344 81.654327,50.303360 
	C78.900757,50.303360 76.500671,50.303360 74.306633,50.303360 
	C74.306633,55.766918 74.306633,60.842999 74.306633,66.079430 
	C77.097885,66.079430 79.583252,66.079430 81.999825,66.006104 
	C81.999825,66.006104 81.926620,65.937172 81.994812,66.880157 
	C81.994812,74.457336 81.994812,82.034523 81.994812,90.075859 
	C71.047653,90.075859 60.489220,90.075859 49.994984,89.157104 
	C49.994984,86.884216 49.994984,84.611328 49.994984,81.966293 
	C44.507118,81.966293 39.424068,81.966293 33.983795,81.966293 
	C33.983795,79.187843 33.983795,76.781937 33.983795,74.192986 
	C28.538797,74.192986 23.468996,74.192986 18.354584,74.192986 
	C18.354584,76.909439 18.354584,79.426628 18.354584,82.313934 
	C21.125362,82.313934 23.536171,82.313934 26.302303,82.313934 
	C26.302303,85.110039 26.302303,87.522148 26.302303,90.288658 
	C29.095627,90.288658 31.508583,90.288658 33.673576,90.288658 
	C33.673576,93.088478 33.673576,95.494751 33.673576,98.261093 
	C30.934607,98.261093 28.525164,98.261093 26.144810,98.261093 
	C26.014082,101.058907 25.901052,103.477982 25.779806,106.072845 
	C22.903637,106.072845 20.420752,106.072845 17.995508,105.130249 
	C17.995508,100.203651 17.995508,95.277061 17.995508,90.184402 
	C15.193572,90.184402 12.799706,90.184402 10.316488,90.184402 
	C10.316488,95.561104 10.316488,100.748108 10.316488,105.930862 
	C13.115324,105.930862 15.597683,105.930862 18.005787,106.847702 
	C18.005787,109.115837 18.005787,111.383972 18.005787,114.187820 
	C23.588705,114.187820 28.784698,114.187820 34.308479,114.187820 
	C34.308479,119.791191 34.308479,124.851234 34.308479,129.924210 
	C39.808933,129.924210 44.939083,129.924210 50.005051,130.839951 
	C50.005051,133.213226 50.005051,135.586487 50.005051,137.924194 
	C53.158829,137.924194 55.613968,137.924194 58.005043,138.839905 
M234.000076,81.993843 
	C234.000076,81.993843 234.073288,82.062767 234.005295,81.146263 
	C234.005295,78.874306 234.005295,76.602348 234.005295,74.205971 
	C225.829224,74.205971 218.094498,74.205971 210.196289,74.205971 
	C210.196289,76.816628 210.196289,79.219925 210.196289,81.999062 
	C212.792526,81.999062 215.201691,81.999062 218.162384,81.999062 
	C218.162384,87.558075 218.162384,92.762856 218.162384,98.308716 
	C223.800659,98.308716 228.879730,98.308716 234.304871,98.308716 
	C234.304871,101.104820 234.304871,103.518509 234.304871,105.658722 
	C237.088348,105.658722 239.490158,105.658722 241.696350,105.658722 
	C241.696350,97.573647 241.696350,89.832703 241.696350,81.920502 
	C238.905777,81.920502 236.418518,81.920502 234.000076,81.993843 
M66.000000,21.517151 
	C66.000000,17.746222 66.000000,13.975292 66.000000,10.282627 
	C47.031258,10.282627 28.628029,10.282627 10.283155,10.282627 
	C10.283155,28.969812 10.283155,47.373047 10.283155,65.716324 
	C28.970884,65.716324 47.374130,65.716324 66.000000,65.716324 
	C66.000000,51.126179 66.000000,36.818584 66.000000,21.517151 
M34.500008,242.000000 
	C44.929893,242.000000 55.359783,242.000000 65.713562,242.000000 
	C65.713562,223.022797 65.713562,204.619873 65.713562,186.286438 
	C47.022842,186.286438 28.619923,186.286438 10.286409,186.286438 
	C10.286409,204.977127 10.286409,223.380051 10.286409,242.000000 
	C18.214283,242.000000 25.857157,242.000000 34.500008,242.000000 
M186.000000,46.499584 
	C186.000000,52.930920 186.000000,59.362255 186.000000,65.712723 
	C204.978867,65.712723 223.381805,65.712723 241.712723,65.712723 
	C241.712723,47.021122 241.712723,28.618200 241.712723,10.287277 
	C223.021118,10.287277 204.618195,10.287277 186.000000,10.287277 
	C186.000000,22.215561 186.000000,33.857689 186.000000,46.499584 
M178.000320,239.410126 
	C179.161224,244.924896 183.188843,240.502945 185.669861,242.191406 
	C185.669861,239.095276 185.669861,236.597702 185.669861,234.290634 
	C182.946548,234.290634 180.558960,234.290634 178.000000,234.290634 
	C178.000000,235.875259 178.000000,237.170242 178.000320,239.410126 
M163.662277,241.996140 
	C165.724457,241.996140 167.786636,241.996140 169.735748,241.996140 
	C169.735748,238.999435 169.735748,236.612610 169.735748,234.225037 
	C167.081253,234.225037 164.696609,234.225037 161.732803,234.225037 
	C162.084167,236.971252 162.402267,239.457397 163.662277,241.996140 
M159.406311,10.000299 
	C157.667542,10.000299 155.928772,10.000299 154.247009,10.000299 
	C154.247009,12.964181 154.247009,15.350528 154.247009,17.791134 
	C156.883530,17.791134 159.268677,17.791134 162.808105,17.791134 
	C161.884399,14.879805 161.110901,12.441856 159.406311,10.000299 
M170.000320,23.410128 
	C171.161255,28.924831 175.188828,24.502998 177.669861,26.191412 
	C177.669861,23.097923 177.669861,20.598885 177.669861,18.290634 
	C174.944550,18.290634 172.562973,18.290634 170.000000,18.290634 
	C170.000000,19.875263 170.000000,21.170244 170.000320,23.410128 
M177.279892,41.942245 
	C177.566193,39.347385 177.852493,36.752529 178.123642,34.295029 
	C174.940430,34.295029 172.554672,34.295029 170.255447,34.295029 
	C170.255447,36.982796 170.255447,39.369118 170.255447,41.996090 
	C172.451080,41.996090 174.393982,41.996090 177.279892,41.942245 
M64.337738,74.003860 
	C62.275555,74.003860 60.213367,74.003860 58.264252,74.003860 
	C58.264252,77.000565 58.264252,79.387398 58.264252,81.774986 
	C60.918743,81.774986 63.303383,81.774986 66.267189,81.774986 
	C65.915833,79.028755 65.597740,76.542595 64.337738,74.003860 
z"/>
<path fill="#000000" opacity="1.000000" stroke="none" 
	d="
M162.068970,145.924103 
	C156.928146,145.924103 151.787308,145.924103 146.254547,145.924103 
	C146.254547,151.194427 146.254547,156.260925 146.254547,161.703110 
	C143.482193,161.703110 141.073517,161.703110 138.286621,161.703110 
	C138.286621,167.138611 138.286621,172.217499 138.286621,177.648178 
	C132.737411,177.648178 127.550629,177.648178 121.980644,177.648178 
	C121.980644,175.183334 121.980644,172.773773 121.980644,169.995972 
	C119.201385,169.995972 116.789474,169.995972 114.193481,169.995972 
	C114.193481,167.212524 114.193481,164.806717 114.193481,162.024094 
	C116.769035,162.024094 119.178696,162.024094 121.790237,162.024094 
	C121.790237,156.577408 121.790237,151.504822 121.790237,145.994522 
	C119.393158,145.994522 117.120522,145.994522 114.423851,145.996063 
	C113.999817,145.997589 114.069908,146.070038 114.037445,145.599518 
	C113.979034,140.065292 113.953094,135.001587 114.399490,129.966705 
	C122.460144,129.995529 130.048462,129.995529 137.814819,129.995529 
	C137.814819,127.198822 137.814819,124.802559 137.814819,122.312439 
	C129.777481,122.312439 121.926903,122.312439 114.069130,122.312439 
	C114.069130,125.109917 114.069130,127.594986 113.611740,130.042938 
	C110.883583,130.005814 108.612808,130.005814 105.980858,130.005814 
	C105.980858,132.814285 105.980858,135.221329 105.980858,137.809357 
	C103.214905,137.809357 100.817169,137.809357 97.897072,137.809357 
	C97.897072,132.463974 97.897072,127.261200 97.897072,121.929962 
	C94.893936,121.929962 92.412018,121.929962 89.965073,121.964996 
	C90.000038,122.000031 90.070038,122.070038 90.037544,121.618996 
	C90.026711,118.755287 90.048378,116.342628 90.035042,113.964958 
	C90.000046,113.999954 89.930054,114.069946 90.401070,114.037460 
	C95.900688,114.004974 100.929291,114.004974 106.070000,114.004974 
	C106.070000,110.862617 106.070000,108.396301 106.034958,105.966217 
	C105.999916,106.002434 105.930870,106.075859 105.930870,106.075859 
	C113.822342,106.075859 121.713806,106.075859 130.005402,106.075859 
	C130.005402,100.704025 130.005402,95.788246 130.003937,90.436203 
	C130.002487,89.999931 129.930115,90.070091 130.381317,90.037582 
	C133.246979,89.980255 135.661423,89.955444 138.040680,90.389214 
	C138.005478,93.115303 138.005478,95.382812 138.005478,98.069901 
	C151.630005,98.069901 164.850021,98.069901 178.035034,98.034958 
	C178.000015,98.000008 177.930054,97.930054 177.962540,98.400635 
	C177.970169,103.937057 177.945297,109.002892 177.957092,114.034332 
	C177.993759,113.999939 178.062698,113.926743 177.604462,113.960724 
	C174.884506,113.994705 172.622803,113.994705 169.866333,113.994705 
	C169.866333,119.571678 169.866333,124.765266 169.866333,130.072754 
	C166.888779,130.072754 164.413406,130.072754 161.966766,129.601456 
	C161.995514,124.199242 161.995514,119.268326 161.995514,114.202850 
	C156.500153,114.202850 151.442871,114.202850 146.339417,114.202850 
	C146.339417,122.252579 146.339417,130.095139 146.339417,137.667755 
	C149.095291,137.667755 151.506210,137.667755 154.265472,137.667755 
	C154.265472,134.920364 154.265472,132.508636 154.265472,129.930756 
	C157.114944,129.930756 159.597580,129.930756 162.042969,130.400909 
	C161.980499,135.937363 161.955276,141.003647 161.965057,146.033737 
	C162.000046,145.997528 162.068970,145.924103 162.068970,145.924103 
M130.720123,138.057755 
	C130.433807,140.652618 130.147491,143.247467 129.876343,145.704971 
	C133.059555,145.704971 135.445312,145.704971 137.744553,145.704971 
	C137.744553,143.017212 137.744553,140.630890 137.744553,138.003906 
	C135.548920,138.003906 133.606018,138.003906 130.720123,138.057755 
z"/>
<path fill="#000000" opacity="1.000000" stroke="none" 
	d="
M105.924187,65.930862 
	C105.947548,68.343002 105.970909,70.755135 105.994080,73.583549 
	C105.993896,73.999825 106.062828,73.926620 106.062828,73.926620 
	C103.581482,73.926620 101.100143,73.926620 98.208847,73.926620 
	C98.095627,76.514900 97.989876,78.932251 97.867676,81.725800 
	C95.486984,81.725800 93.079239,81.725800 90.333885,81.725800 
	C90.333885,84.489922 90.333885,86.897331 90.333885,89.854568 
	C97.904221,89.854568 105.766495,89.854568 113.806290,89.854568 
	C113.806290,92.788788 113.806290,95.189651 113.806290,97.967041 
	C111.242195,97.967041 108.820534,97.967041 105.994957,97.967041 
	C105.994957,100.609047 105.994957,102.884109 105.962914,105.617516 
	C105.930870,106.075859 105.999916,106.002434 105.577133,105.998672 
	C102.885696,105.994904 100.617035,105.994904 97.990448,105.994904 
	C97.990448,103.194916 97.990448,100.790070 97.990448,98.197098 
	C95.231041,98.197098 92.834923,98.197098 89.930054,98.197098 
	C89.930054,103.570641 89.930054,108.820290 89.930054,114.069946 
	C89.930054,114.069946 90.000046,113.999954 89.583946,113.997452 
	C86.755608,114.021904 84.343376,114.048859 81.963120,113.604218 
	C81.995094,108.201988 81.995094,103.271370 81.995094,98.188339 
	C73.840714,98.188339 66.120918,98.188339 58.348423,98.188339 
	C58.348423,100.908783 58.348423,103.422997 58.348423,106.302979 
	C61.110588,106.302979 63.519882,106.302979 65.665352,106.302979 
	C65.665352,109.083603 65.665352,111.483238 65.665352,113.930054 
	C60.197426,113.930054 55.063740,113.930054 49.965031,113.965034 
	C50.000008,114.000015 50.069901,114.070038 50.037422,113.597977 
	C50.026600,105.393929 50.048252,97.661949 50.034874,89.966202 
	C49.999844,90.002434 49.930790,90.075859 49.930790,90.075859 
	C60.489220,90.075859 71.047653,90.075859 81.994812,90.075859 
	C81.994812,82.034523 81.994812,74.457336 82.418854,66.437759 
	C85.109779,65.995369 87.376678,65.995369 89.642685,65.995369 
	C89.642685,63.074913 89.642685,60.564587 89.642685,58.327690 
	C86.876060,58.327690 84.472305,58.327690 82.068619,58.327690 
	C82.068619,61.130013 82.068619,63.604721 82.068619,66.079430 
	C79.583252,66.079430 77.097885,66.079430 74.306633,66.079430 
	C74.306633,60.842999 74.306633,55.766918 74.306633,50.303360 
	C76.500671,50.303360 78.900757,50.303360 81.654327,50.303360 
	C81.654327,47.534344 81.654327,45.132286 81.654327,42.159546 
	C79.429970,42.159546 76.900520,42.159546 74.192482,42.159546 
	C74.192482,33.880875 74.192482,26.153122 74.192482,18.005741 
	C76.610329,18.005741 78.881042,18.005741 81.575775,18.005917 
	C81.999802,18.006090 81.926598,17.937157 81.926598,17.937157 
	C81.926598,23.186842 81.926598,28.436525 81.926598,33.838394 
	C84.719810,33.838394 86.998444,33.838394 89.821693,33.838394 
	C89.821693,31.439413 89.821693,28.918245 89.821693,26.005693 
	C95.278587,26.005693 100.203224,26.005693 105.564133,26.006216 
	C106.000404,26.006739 105.927177,25.937880 105.927177,25.937880 
	C105.927177,28.417345 105.927177,30.896809 105.927177,33.742451 
	C103.483795,33.742451 101.073006,33.742451 98.286674,33.742451 
	C98.286674,36.494278 98.286674,38.904034 98.286674,41.691174 
	C95.529564,41.691174 93.121925,41.691174 90.354599,41.691174 
	C90.354599,44.568512 90.354599,47.080307 90.354599,49.981903 
	C95.446556,49.981903 100.521263,49.981903 105.994522,49.981903 
	C105.994522,52.613392 105.994522,54.882721 105.996078,57.576080 
	C105.997643,58.000114 106.070061,57.930023 105.612289,57.962467 
	C102.893196,57.994911 100.631874,57.994911 98.332932,57.994911 
	C98.332932,60.912167 98.332932,63.422504 98.332932,66.069977 
	C101.133835,66.069977 103.601952,66.069977 106.033829,66.034943 
	C105.997604,65.999916 105.924187,65.930862 105.924187,65.930862 
z"/>
<path fill="#000000" opacity="1.000000" stroke="none" 
	d="
M178.072754,218.061966 
	C178.072754,215.586838 178.072754,213.111710 178.072754,210.283264 
	C175.501678,210.283264 173.093597,210.283264 170.156219,210.283264 
	C170.156219,204.772461 170.156219,199.583023 170.156219,194.205658 
	C167.242874,194.205658 164.850769,194.205658 162.096237,194.205658 
	C162.096237,199.359436 162.096237,204.423431 162.096237,210.008682 
	C159.517685,210.008682 157.267578,210.008682 154.607971,210.095551 
	C154.198486,210.182419 154.280823,210.255859 154.280823,210.255859 
	C154.189102,202.462112 154.097366,194.668350 154.005936,186.437302 
	C154.006241,186.000000 153.937302,186.073196 153.937302,186.073196 
	C156.411041,186.073196 158.884766,186.073196 161.714752,186.073196 
	C161.714752,183.509186 161.714752,181.104462 161.714752,178.158386 
	C164.570328,178.158386 167.093460,178.158386 170.005402,178.158386 
	C170.005402,172.712006 170.005402,167.792221 170.003906,162.436157 
	C170.002411,161.999908 169.929993,162.070007 170.387283,162.037552 
	C173.216476,162.005096 175.588379,162.005096 178.070007,162.005096 
	C178.070007,158.839233 178.070007,156.384613 178.035004,153.964996 
	C178.000000,154.000015 177.930023,154.070068 178.381104,154.037567 
	C181.244537,153.978088 183.656891,153.951141 186.037140,154.382050 
	C186.005051,157.213165 186.005051,159.586441 186.005051,162.069992 
	C189.159271,162.069992 191.614670,162.069992 194.035034,162.035004 
	C194.000015,162.000015 193.929962,161.930084 193.962448,162.388885 
	C193.994934,165.106125 193.994934,167.364563 193.994934,170.069916 
	C199.605911,170.069916 204.837967,170.069916 210.035019,170.034943 
	C210.000000,169.999985 209.930115,169.929901 209.962585,170.402039 
	C209.995056,181.229294 209.995056,191.584412 209.995056,201.924194 
	C213.110886,201.924194 215.590012,201.924194 218.037079,202.382050 
	C218.005035,205.213181 218.005035,207.586441 218.005035,210.069992 
	C221.159271,210.069992 223.614670,210.069992 226.033813,210.034927 
	C225.997574,209.999863 225.924149,209.930710 225.924149,209.930710 
	C225.924149,212.402100 225.924149,214.873474 225.924149,217.871307 
	C223.412308,217.871307 220.881851,217.871307 217.994308,217.871307 
	C217.994308,223.301483 217.994308,228.214645 217.993866,233.564026 
	C217.993408,234.000275 218.062347,233.927063 218.062347,233.927063 
	C215.595581,233.927063 213.128830,233.927063 210.141571,233.927063 
	C210.141571,231.416519 210.141571,228.895416 210.141571,225.994492 
	C207.367279,225.994492 205.106552,225.994492 202.422821,225.996063 
	C201.999817,225.997635 202.069885,226.070099 202.037445,225.598999 
	C202.004990,220.211807 202.004990,215.295715 202.004990,210.317352 
	C196.416443,210.317352 191.239853,210.317352 185.930008,210.317352 
	C185.930008,213.113068 185.930008,215.591537 185.965042,218.033768 
	C186.000076,217.997528 186.069122,217.924103 186.069122,217.924103 
	C183.656784,217.947479 181.244461,217.970856 178.415833,217.993668 
	C177.999527,217.993118 178.072754,218.061966 178.072754,218.061966 
M198.348480,178.000000 
	C191.595459,178.000000 184.842453,178.000000 178.343628,178.000000 
	C178.343628,186.426498 178.343628,194.168381 178.343628,201.653717 
	C186.431870,201.653717 194.173935,201.653717 201.999908,201.653717 
	C201.999908,194.648392 201.968140,187.988800 202.019684,181.329849 
	C202.034729,179.384109 202.199097,177.511032 198.348480,178.000000 
z"/>
<path fill="#000000" opacity="1.000000" stroke="none" 
	d="
M90.073257,202.062698 
	C90.073257,199.582306 90.073257,197.101913 90.073257,194.254700 
	C87.480751,194.254700 85.069077,194.254700 82.327194,194.254700 
	C82.327194,191.497040 82.327194,189.088699 82.327194,186.332886 
	C87.251190,186.332886 92.441429,186.332886 98.008972,186.332886 
	C98.008972,188.803955 98.008972,191.217896 98.008972,193.802002 
	C103.445084,193.802002 108.511131,193.802002 114.005745,193.802002 
	C114.005745,191.388245 114.005745,189.118164 114.005966,186.424088 
	C114.006180,186.000076 113.937241,186.073273 113.937241,186.073273 
	C121.742676,186.073273 129.548111,186.073273 137.676529,186.073273 
	C137.676529,188.548355 137.676529,190.944443 137.676529,193.738373 
	C135.473923,193.738373 133.063156,193.738373 130.324677,193.738373 
	C130.324677,196.515060 130.324677,198.930542 130.324677,201.739487 
	C135.153824,201.739487 140.233612,201.739487 145.706436,201.739487 
	C145.706436,204.502701 145.706436,206.908310 145.706436,210.019730 
	C148.488251,210.019730 150.902496,210.019730 153.798782,210.137787 
	C154.280823,210.255859 154.198486,210.182419 154.163666,210.151718 
	C154.128845,212.587219 154.128845,215.053436 154.128845,217.892242 
	C143.347733,217.892242 132.933548,217.892242 122.262741,217.892242 
	C122.262741,223.328308 122.262741,228.397308 122.262741,233.867462 
	C127.319778,233.867462 132.400726,233.867462 137.735031,233.867462 
	C137.735031,236.654831 137.735031,239.059418 137.735031,241.735779 
	C124.702843,241.735779 111.631218,241.735779 97.991295,241.735779 
	C97.991295,239.534195 97.991295,237.275986 97.904335,234.608215 
	C97.817375,234.198669 97.743973,234.280991 97.743973,234.280991 
	C100.357674,234.122559 102.971375,233.964142 105.785706,233.793564 
	C105.785706,228.577438 105.785706,223.502380 105.785706,218.043121 
	C103.245827,218.043121 100.834953,218.043121 98.215675,218.043121 
	C98.215675,215.258514 98.215675,212.851624 98.215675,210.052582 
	C106.063225,210.052582 113.811935,210.052582 121.775314,210.052582 
	C121.775314,207.268127 121.775314,204.865067 121.775314,201.994385 
	C111.421921,201.994385 101.148285,201.994385 90.437355,201.994080 
	C90.000061,201.993759 90.073257,202.062698 90.073257,202.062698 
z"/>
<path fill="#000000" opacity="1.000000" stroke="none" 
	d="
M66.000000,22.014071 
	C66.000000,36.818584 66.000000,51.126179 66.000000,65.716324 
	C47.374130,65.716324 28.970884,65.716324 10.283155,65.716324 
	C10.283155,47.373047 10.283155,28.969812 10.283155,10.282627 
	C28.628029,10.282627 47.031258,10.282627 66.000000,10.282627 
	C66.000000,13.975292 66.000000,17.746222 66.000000,22.014071 
M58.000000,30.510109 
	C58.000000,26.407516 58.000000,22.304924 58.000000,18.284218 
	C44.360031,18.284218 31.290070,18.284218 18.284389,18.284218 
	C18.284389,31.640316 18.284389,44.710278 18.284389,57.715443 
	C31.640663,57.715443 44.710632,57.715443 58.000000,57.715443 
	C58.000000,48.791088 58.000000,40.149498 58.000000,30.510109 
z"/>
<path fill="#000000" opacity="1.000000" stroke="none" 
	d="
M34.000019,242.000000 
	C25.857157,242.000000 18.214283,242.000000 10.286409,242.000000 
	C10.286409,223.380051 10.286409,204.977127 10.286409,186.286438 
	C28.619923,186.286438 47.022842,186.286438 65.713562,186.286438 
	C65.713562,204.619873 65.713562,223.022797 65.713562,242.000000 
	C55.359783,242.000000 44.929893,242.000000 34.000019,242.000000 
M57.999714,196.677734 
	C57.221939,195.785675 56.454235,194.126602 55.664883,194.116241 
	C43.222153,193.952881 30.776638,194.001541 18.230486,194.001541 
	C18.230486,207.527863 18.230486,220.598389 18.230486,233.767181 
	C31.532604,233.767181 44.603100,233.767181 57.999985,233.767181 
	C57.999985,221.575485 57.999985,209.613617 57.999714,196.677734 
z"/>
<path fill="#000000" opacity="1.000000" stroke="none" 
	d="
M186.000000,45.999699 
	C186.000000,33.857689 186.000000,22.215561 186.000000,10.287277 
	C204.618195,10.287277 223.021118,10.287277 241.712723,10.287277 
	C241.712723,28.618200 241.712723,47.021122 241.712723,65.712723 
	C223.381805,65.712723 204.978867,65.712723 186.000000,65.712723 
	C186.000000,59.362255 186.000000,52.930920 186.000000,45.999699 
M196.677734,18.000284 
	C195.785675,18.778063 194.126617,19.545774 194.116257,20.335129 
	C193.952896,32.777859 194.001541,45.223370 194.001541,57.769512 
	C207.527863,57.769512 220.598389,57.769512 233.767181,57.769512 
	C233.767181,44.467392 233.767181,31.396896 233.767181,18.000017 
	C221.575485,18.000017 209.613617,18.000017 196.677734,18.000284 
z"/>
<path fill="#000000" opacity="1.000000" stroke="none" 
	d="
M17.937866,106.072845 
	C20.420752,106.072845 22.903637,106.072845 25.779806,106.072845 
	C25.901052,103.477982 26.014082,101.058907 26.144810,98.261093 
	C28.525164,98.261093 30.934607,98.261093 33.673576,98.261093 
	C33.673576,95.494751 33.673576,93.088478 33.673576,90.288658 
	C31.508583,90.288658 29.095627,90.288658 26.302303,90.288658 
	C26.302303,87.522148 26.302303,85.110039 26.302303,82.313934 
	C23.536171,82.313934 21.125362,82.313934 18.354584,82.313934 
	C18.354584,79.426628 18.354584,76.909439 18.354584,74.192986 
	C23.468996,74.192986 28.538797,74.192986 33.983795,74.192986 
	C33.983795,76.781937 33.983795,79.187843 33.983795,81.966293 
	C39.424068,81.966293 44.507118,81.966293 49.994984,81.966293 
	C49.994984,84.611328 49.994984,86.884216 49.962887,89.616486 
	C49.930790,90.075859 49.999844,90.002434 49.576012,89.998688 
	C46.886452,89.994934 44.620716,89.994934 42.314255,89.994934 
	C42.314255,98.250175 42.314255,106.090210 42.314255,114.070038 
	C45.108902,114.070038 47.589401,114.070038 50.069901,114.070038 
	C50.069901,114.070038 50.000008,114.000015 49.997513,114.435593 
	C49.973385,119.937477 49.951752,125.003792 49.965141,130.033875 
	C50.000164,129.997635 50.069229,129.924210 50.069229,129.924210 
	C44.939083,129.924210 39.808933,129.924210 34.308479,129.924210 
	C34.308479,124.851234 34.308479,119.791191 34.308479,114.187820 
	C28.784698,114.187820 23.588705,114.187820 18.005787,114.187820 
	C18.005787,111.383972 18.005787,109.115837 18.006252,106.423660 
	C18.006720,105.999619 17.937866,106.072845 17.937866,106.072845 
z"/>
<path fill="#000000" opacity="1.000000" stroke="none" 
	d="
M209.931076,138.075806 
	C212.398865,138.075806 214.866653,138.075806 217.855927,138.075806 
	C217.855927,135.418762 217.855927,132.897339 217.855927,130.005508 
	C220.631821,130.005508 222.892975,130.005508 225.577148,130.003906 
	C226.000137,130.002319 225.930023,129.929932 225.962463,130.387711 
	C225.994919,133.106812 225.994919,135.368134 225.994919,137.667053 
	C228.909622,137.667053 231.421783,137.667053 234.069977,137.667053 
	C234.069977,134.866150 234.069977,132.398041 234.034973,129.966125 
	C233.999969,130.002319 233.931046,130.075729 233.931046,130.075729 
	C236.412720,130.075729 238.894379,130.075729 241.688019,130.075729 
	C241.688019,135.136078 241.688019,140.207458 241.688019,145.824982 
	C236.778046,145.824982 231.589539,145.824982 225.994614,145.824982 
	C225.994614,151.280182 225.994614,156.203873 225.996109,161.563843 
	C225.997604,162.000107 226.070007,161.929993 225.612717,161.962448 
	C222.783524,161.994904 220.411621,161.994904 217.929993,161.994904 
	C217.929993,165.160767 217.929993,167.615387 217.964996,170.035004 
	C218.000000,169.999985 218.069977,169.929932 217.618896,169.962433 
	C214.755264,169.973267 212.342682,169.951584 209.930115,169.929901 
	C209.930115,169.929901 210.000000,169.999985 210.002533,169.576111 
	C210.005066,166.893784 210.005066,164.635345 210.005066,161.930084 
	C204.396149,161.930084 199.163055,161.930084 193.929962,161.930084 
	C193.929962,161.930084 194.000015,162.000015 194.002533,161.583740 
	C193.980240,158.753036 193.955414,156.338608 194.402435,153.959412 
	C202.451752,153.994644 210.029236,153.994644 217.657898,153.994644 
	C217.657898,151.097153 217.657898,148.585358 217.657898,145.721680 
	C214.904465,145.721680 212.497177,145.721680 210.070007,145.721680 
	C210.070007,142.883942 210.070007,140.406982 210.035004,137.966187 
	C210.000000,138.002365 209.931076,138.075806 209.931076,138.075806 
z"/>
<path fill="#000000" opacity="1.000000" stroke="none" 
	d="
M185.930862,82.075951 
	C188.413635,82.075951 190.896408,82.075951 193.747742,82.075951 
	C193.747742,79.478401 193.747742,77.065292 193.747742,74.324654 
	C196.511597,74.324654 198.925079,74.324654 201.870148,74.324654 
	C201.870148,84.585960 201.870148,95.108246 201.870148,105.993301 
	C204.788330,105.993301 207.203461,105.993301 209.995117,105.993301 
	C209.995117,116.618256 209.995117,126.874390 209.963104,137.603165 
	C209.931076,138.075806 210.000000,138.002365 209.576141,137.998657 
	C206.882324,137.994934 204.612381,137.994934 201.815292,137.994934 
	C201.815292,129.741501 201.815292,121.889038 201.815292,113.865067 
	C198.995178,113.865067 196.711807,113.865067 193.884293,113.865067 
	C193.884293,108.489243 193.884293,103.294846 193.884293,97.930054 
	C188.200455,97.930054 183.065262,97.930054 177.930054,97.930054 
	C177.930054,97.930054 178.000015,98.000008 178.002563,97.577148 
	C178.005096,94.893074 178.005096,92.631851 178.005096,89.855843 
	C180.897385,89.855843 183.418961,89.855843 186.070038,89.855843 
	C186.070038,86.866356 186.070038,84.398224 186.034973,81.966301 
	C185.999924,82.002510 185.930862,82.075951 185.930862,82.075951 
z"/>
<path fill="#000000" opacity="1.000000" stroke="none" 
	d="
M130.075989,50.069210 
	C130.075989,42.268581 130.075989,34.467953 130.075989,26.291491 
	C132.523636,26.291491 134.932236,26.291491 137.891541,26.291491 
	C137.891541,20.728710 137.891541,15.521935 137.891541,10.165386 
	C140.720001,10.165386 143.007996,10.165386 145.852509,10.165386 
	C145.852509,15.240183 145.852509,20.446438 145.852509,26.008701 
	C148.806259,26.008701 151.215576,26.008701 153.993652,26.008701 
	C153.993652,28.787750 153.993652,31.199638 153.993652,33.980881 
	C156.770294,33.980881 159.192917,33.980881 161.794891,33.980881 
	C161.794891,36.762268 161.794891,39.168446 161.794891,41.955578 
	C159.251877,41.955578 156.838638,41.955578 153.994492,41.955578 
	C153.994492,44.601322 153.994492,46.877697 153.996002,49.577061 
	C153.997513,50.000053 154.069885,49.929901 153.618851,49.962418 
	C150.755249,49.973255 148.342682,49.951576 145.965057,49.964958 
	C146.000015,50.000015 146.069977,50.070065 146.037537,49.612289 
	C146.005096,46.893192 146.005096,44.631866 146.005096,42.332932 
	C143.087814,42.332932 140.577377,42.332932 137.930023,42.332932 
	C137.930023,45.133839 137.930023,47.601952 137.964996,50.035042 
	C137.999985,50.000015 138.069885,49.929901 137.618820,49.962421 
	C134.755203,49.973263 132.342667,49.951584 129.966339,49.964989 
	C130.002548,50.000076 130.075989,50.069210 130.075989,50.069210 
z"/>
<path fill="#000000" opacity="1.000000" stroke="none" 
	d="
M26.255970,137.719009 
	C23.643425,137.877258 21.030878,138.035507 18.214760,138.206085 
	C18.214760,143.420547 18.214760,148.494705 18.214760,153.950211 
	C20.749260,153.950211 23.157835,153.950211 25.948338,153.950211 
	C25.948338,159.399063 25.948338,164.488434 25.948338,170.005737 
	C28.602325,170.005737 30.876997,170.005737 33.575676,170.005859 
	C33.999683,170.005981 33.926479,169.937057 33.926479,169.937057 
	C33.926479,172.422226 33.926479,174.907379 33.926479,177.696228 
	C26.044540,177.696228 18.186222,177.696228 10.162685,177.696228 
	C10.162685,175.275192 10.162685,172.989639 10.162685,170.319046 
	C12.454210,170.319046 14.861468,170.319046 17.637173,170.319046 
	C17.637173,167.430649 17.637173,164.915115 17.637173,162.010681 
	C15.216643,162.010681 12.808989,162.010681 10.204903,162.010681 
	C10.204903,148.591370 10.204903,135.544998 10.204903,122.248909 
	C12.681623,122.248909 15.081515,122.248909 17.864794,122.248909 
	C17.864794,124.656075 17.864794,127.065086 17.864794,129.795013 
	C20.632957,129.916534 23.046919,130.022491 26.008749,130.152527 
	C26.008749,132.465195 26.008749,134.724838 26.095634,137.392914 
	C26.182520,137.801361 26.255970,137.719009 26.255970,137.719009 
z"/>
<path fill="#000000" opacity="1.000000" stroke="none" 
	d="
M233.931274,81.920502 
	C236.418518,81.920502 238.905777,81.920502 241.696350,81.920502 
	C241.696350,89.832703 241.696350,97.573647 241.696350,105.658722 
	C239.490158,105.658722 237.088348,105.658722 234.304871,105.658722 
	C234.304871,103.518509 234.304871,101.104820 234.304871,98.308716 
	C228.879730,98.308716 223.800659,98.308716 218.162384,98.308716 
	C218.162384,92.762856 218.162384,87.558075 218.162384,81.999062 
	C215.201691,81.999062 212.792526,81.999062 210.196289,81.999062 
	C210.196289,79.219925 210.196289,76.816628 210.196289,74.205971 
	C218.094498,74.205971 225.829224,74.205971 234.005295,74.205971 
	C234.005295,76.602348 234.005295,78.874306 233.581177,81.575447 
	C230.890152,82.004631 228.623276,82.004631 226.357361,82.004631 
	C226.357361,84.925140 226.357361,87.435448 226.357361,89.672287 
	C229.124008,89.672287 231.527756,89.672287 233.931274,89.672287 
	C233.931274,86.869995 233.931274,84.395248 233.931274,81.920502 
z"/>
<path fill="#000000" opacity="1.000000" stroke="none" 
	d="
M105.924126,153.930878 
	C105.924126,156.413818 105.924126,158.896744 105.924126,161.689789 
	C100.726898,161.689789 95.535126,161.689789 89.969849,161.689789 
	C89.969849,159.172684 89.969849,156.757034 89.969849,153.999298 
	C87.202408,153.999298 84.795181,153.999298 82.025391,153.999298 
	C82.025391,151.229218 82.025391,148.820526 82.025391,145.994507 
	C79.390343,145.994507 77.118225,145.994507 74.423058,145.996094 
	C74.000008,145.997681 74.070038,146.070038 74.037552,145.618774 
	C73.980247,142.753082 73.955437,140.338638 74.389191,137.959351 
	C77.106506,137.994522 79.365265,137.994522 81.931099,137.994522 
	C81.931099,132.391876 81.931099,127.158066 82.381882,121.959396 
	C85.245125,122.019707 87.657585,122.044868 90.070038,122.070038 
	C90.070038,122.070038 90.000038,122.000031 89.997543,122.437111 
	C89.995049,130.451691 89.995049,138.029190 89.995049,146.142303 
	C92.889435,146.142303 95.415787,146.142303 98.278305,146.142303 
	C98.278305,149.095535 98.278305,151.502823 98.278305,154.070007 
	C101.115906,154.070007 103.592957,154.070007 106.033783,154.034973 
	C105.997559,153.999939 105.924126,153.930878 105.924126,153.930878 
z"/>
<path fill="#000000" opacity="1.000000" stroke="none" 
	d="
M225.960892,162.034637 
	C228.405548,162.069168 230.886932,162.069168 233.735291,162.069168 
	C233.735291,164.509613 233.735291,166.920853 233.735291,169.703033 
	C236.490921,169.703033 238.902725,169.703033 241.659485,169.703033 
	C241.659485,180.567520 241.659485,191.071732 241.659485,201.994522 
	C239.387222,201.994522 237.117493,201.994522 234.423752,201.996094 
	C233.999725,201.997650 234.069885,202.070099 234.037415,201.598022 
	C234.004944,193.430603 234.004944,185.735275 234.004944,177.717224 
	C228.199112,177.717224 223.128693,177.717224 218.069977,177.717224 
	C218.069977,174.891479 218.069977,172.410706 218.069977,169.929932 
	C218.069977,169.929932 218.000000,169.999985 218.422333,170.002533 
	C221.216537,170.005096 223.588409,170.005096 226.070007,170.005096 
	C226.070007,166.839203 226.070007,164.384598 226.070007,161.929993 
	C226.070007,161.929993 225.997604,162.000107 225.960892,162.034637 
z"/>
<path fill="#000000" opacity="1.000000" stroke="none" 
	d="
M34.034081,170.042633 
	C34.068481,167.604172 34.068481,165.129044 34.068481,162.005356 
	C41.744434,162.005356 49.434978,162.005356 57.562824,162.003906 
	C58.000122,162.002472 57.929966,161.930084 57.962448,162.388916 
	C57.994934,165.106201 57.994934,167.364655 57.994934,170.069885 
	C63.605839,170.069885 68.837967,170.069885 74.033844,170.034882 
	C73.997597,169.999863 73.924171,169.930817 73.924171,169.930817 
	C73.924171,172.414230 73.924171,174.897644 73.924171,177.690506 
	C63.409546,177.690506 52.903149,177.690506 42.023239,177.690506 
	C42.023239,175.221970 42.023239,172.816269 42.023239,169.995361 
	C39.387981,169.995361 37.115402,169.995361 34.384651,169.966217 
	C33.926479,169.937057 33.999683,170.005981 34.034081,170.042633 
z"/>
<path fill="#000000" opacity="1.000000" stroke="none" 
	d="
M161.931107,66.075851 
	C164.415909,66.075851 166.900711,66.075851 169.753021,66.075851 
	C169.753021,60.843334 169.753021,55.767891 169.753021,50.346245 
	C172.497681,50.346245 174.898712,50.346245 177.840057,50.346245 
	C177.840057,57.897339 177.840057,65.754730 177.840057,73.970673 
	C180.771286,73.970673 183.178558,73.970673 185.994965,73.970673 
	C185.994965,76.610588 185.994965,78.884903 185.962921,81.617584 
	C185.930862,82.075951 185.999924,82.002510 185.563904,81.998764 
	C180.207291,81.995026 175.286697,81.995026 169.839264,81.995026 
	C169.839264,79.091270 169.839264,76.567841 169.839264,73.711250 
	C166.889862,73.711250 164.482132,73.711250 162.070007,73.711250 
	C162.070007,70.879425 162.070007,68.404716 162.035004,65.966217 
	C162.000015,66.002426 161.931107,66.075851 161.931107,66.075851 
z"/>
<path fill="#000000" opacity="1.000000" stroke="none" 
	d="
M106.034782,26.043396 
	C106.069160,23.596317 106.069160,21.112581 106.069160,18.259136 
	C103.490936,18.259136 101.075134,18.259136 98.327995,18.259136 
	C98.327995,15.494919 98.327995,13.081088 98.327995,10.330942 
	C108.582626,10.330942 119.097122,10.330942 129.807281,10.330942 
	C129.807281,12.791457 129.807281,15.193003 129.807281,17.971905 
	C127.234589,17.971905 124.824089,17.971905 122.047623,17.971905 
	C122.047623,20.746315 122.047623,23.155254 122.047623,25.995508 
	C116.747253,25.995508 111.808502,25.995508 106.398468,25.966694 
	C105.927177,25.937880 106.000404,26.006739 106.034782,26.043396 
z"/>
<path fill="#000000" opacity="1.000000" stroke="none" 
	d="
M130.075958,74.069199 
	C130.052475,71.656967 130.028976,69.244736 130.003983,66.416199 
	C130.002472,65.999886 129.930084,66.070030 130.388885,66.037552 
	C133.106140,66.005066 135.364578,66.005066 138.069885,66.005066 
	C138.069885,60.394073 138.069885,55.161987 138.069885,49.929901 
	C138.069885,49.929901 137.999985,50.000015 138.416077,50.002537 
	C141.244781,50.026726 143.657379,50.048397 146.069977,50.070065 
	C146.069977,50.070065 146.000015,50.000015 145.997528,50.437080 
	C146.021973,58.605740 146.048874,66.337341 145.604706,74.036926 
	C140.065765,73.979965 134.997910,73.955009 129.966278,73.965103 
	C130.002518,74.000145 130.075958,74.069199 130.075958,74.069199 
z"/>
<path fill="#000000" opacity="1.000000" stroke="none" 
	d="
M73.965546,145.960968 
	C73.952255,150.992401 73.973427,156.060532 73.996117,161.564423 
	C73.997627,162.000168 74.070091,161.930115 73.599564,161.962570 
	C68.062683,161.973373 62.996326,161.951736 57.929966,161.930084 
	C57.929966,161.930084 58.000122,162.002472 58.034637,162.039200 
	C58.069157,159.606857 58.069157,157.137787 58.069157,154.146301 
	C60.575272,154.146301 63.100735,154.146301 66.005508,154.146301 
	C66.005508,151.369263 66.005508,149.107590 66.003944,146.422928 
	C66.002380,145.999939 65.929962,146.070038 66.381004,146.037537 
	C69.244713,146.026703 71.657372,146.048370 74.070038,146.070038 
	C74.070038,146.070038 74.000008,145.997681 73.965546,145.960968 
z"/>
<path fill="#000000" opacity="1.000000" stroke="none" 
	d="
M170.039124,161.965378 
	C167.608398,161.930847 165.140945,161.930847 162.004929,161.930847 
	C162.004929,156.928055 162.004929,151.897675 162.036957,146.395691 
	C162.068970,145.924103 162.000046,145.997528 162.436111,146.001251 
	C167.900787,146.004990 172.929398,146.004990 177.930023,146.004990 
	C177.930023,149.137497 177.930023,151.603790 177.930023,154.070068 
	C177.930023,154.070068 178.000000,154.000015 177.577667,153.997467 
	C174.783463,153.994904 172.411591,153.994904 169.929993,153.994904 
	C169.929993,157.160797 169.929993,159.615402 169.929993,162.070007 
	C169.929993,162.070007 170.002411,161.999908 170.039124,161.965378 
z"/>
<path fill="#000000" opacity="1.000000" stroke="none" 
	d="
M226.034668,130.039032 
	C226.069199,127.596512 226.069199,125.117302 226.069199,122.274902 
	C223.504974,122.274902 221.094559,122.274902 218.339081,122.274902 
	C218.339081,119.525803 218.339081,117.121002 218.339081,114.355087 
	C223.225357,114.355087 228.397659,114.355087 233.995071,114.355087 
	C233.995071,119.282143 233.995071,124.207329 233.963058,129.604126 
	C233.931046,130.075729 233.999969,130.002319 233.583893,129.998627 
	C230.755219,129.973282 228.342621,129.951614 225.930023,129.929932 
	C225.930023,129.929932 226.000137,130.002319 226.034668,130.039032 
z"/>
<path fill="#000000" opacity="1.000000" stroke="none" 
	d="
M82.256027,233.719009 
	C79.654991,233.719009 77.053963,233.719009 74.226837,233.719009 
	C74.226837,228.625931 74.226837,223.568680 74.226837,218.254303 
	C76.666718,218.254303 79.063553,218.254303 82.008560,218.254303 
	C82.008560,223.126770 82.008560,228.042358 82.095596,233.379639 
	C82.182625,233.801331 82.256027,233.719009 82.256027,233.719009 
z"/>
<path fill="#000000" opacity="1.000000" stroke="none" 
	d="
M130.039215,89.965408 
	C127.598579,89.930885 125.121223,89.930885 122.321945,89.930885 
	C122.321945,84.759430 122.321945,79.580048 122.321945,74.005013 
	C124.628983,74.005013 126.893082,74.005013 129.616577,74.037109 
	C130.075958,74.069199 130.002518,74.000145 129.998764,74.435654 
	C129.973373,79.937477 129.951736,85.003784 129.930115,90.070091 
	C129.930115,90.070091 130.002487,89.999931 130.039215,89.965408 
z"/>
<path fill="#000000" opacity="1.000000" stroke="none" 
	d="
M33.937229,146.073273 
	C39.061996,146.073273 44.186760,146.073273 49.655628,146.073273 
	C49.655628,148.495041 49.655628,150.891068 49.655628,153.646454 
	C44.770771,153.646454 39.594822,153.646454 34.005745,153.646454 
	C34.005745,151.381821 34.005745,149.114960 34.005959,146.424088 
	C34.006168,146.000076 33.937229,146.073273 33.937229,146.073273 
z"/>
<path fill="#000000" opacity="1.000000" stroke="none" 
	d="
M153.960785,50.034576 
	C156.391525,50.069099 158.858963,50.069099 161.995087,50.069099 
	C161.995087,55.071938 161.995087,60.102306 161.963104,65.604263 
	C161.931107,66.075851 162.000015,66.002426 161.576157,65.998680 
	C158.893890,65.994934 156.635483,65.994934 154.069885,65.994934 
	C154.069885,60.394672 154.069885,55.162289 154.069885,49.929901 
	C154.069885,49.929901 153.997513,50.000053 153.960785,50.034576 
z"/>
<path fill="#000000" opacity="1.000000" stroke="none" 
	d="
M177.965149,217.956451 
	C177.930771,220.402176 177.930771,222.884552 177.930771,225.683456 
	C172.748215,225.683456 167.561203,225.683456 162.184448,225.683456 
	C162.184448,223.200394 162.184448,220.806519 162.184448,218.004486 
	C167.276978,218.004486 172.203568,218.004486 177.601471,218.033234 
	C178.072754,218.061966 177.999527,217.993118 177.965149,217.956451 
z"/>
<path fill="#000000" opacity="1.000000" stroke="none" 
	d="
M226.281403,234.256912 
	C226.281403,231.655457 226.281403,229.054001 226.281403,226.227142 
	C231.373535,226.227142 236.430832,226.227142 241.745483,226.227142 
	C241.745483,228.666336 241.745483,231.063202 241.745483,234.008621 
	C236.873489,234.008621 231.957886,234.008621 226.620697,234.095947 
	C226.199127,234.183258 226.281403,234.256912 226.281403,234.256912 
z"/>
<path fill="#000000" opacity="1.000000" stroke="none" 
	d="
M18.043381,105.965240 
	C15.597683,105.930862 13.115324,105.930862 10.316488,105.930862 
	C10.316488,100.748108 10.316488,95.561104 10.316488,90.184402 
	C12.799706,90.184402 15.193572,90.184402 17.995508,90.184402 
	C17.995508,95.277061 17.995508,100.203651 17.966686,105.601547 
	C17.937866,106.072845 18.006720,105.999619 18.043381,105.965240 
z"/>
<path fill="#000000" opacity="1.000000" stroke="none" 
	d="
M121.937134,50.073452 
	C124.349190,50.050636 126.761253,50.027821 129.624649,50.037109 
	C130.075989,50.069210 130.002548,50.000076 129.998779,50.435570 
	C129.973373,55.937382 129.951736,61.003708 129.930084,66.070030 
	C129.930084,66.070030 130.002472,65.999886 130.039200,65.965370 
	C127.609055,65.930855 125.142181,65.930855 122.005653,65.930855 
	C122.005653,60.930046 122.005653,55.901371 122.005859,50.436470 
	C122.006065,50.000244 121.937134,50.073452 121.937134,50.073452 
z"/>
<path fill="#000000" opacity="1.000000" stroke="none" 
	d="
M106.255997,177.719025 
	C100.993279,177.719025 95.730568,177.719025 90.234314,177.719025 
	C90.234314,175.293533 90.234314,172.895981 90.234314,170.246246 
	C95.329063,170.246246 100.394073,170.246246 106.008698,170.246246 
	C106.008698,172.475372 106.008698,174.728882 106.095627,177.391876 
	C106.182556,177.801361 106.255997,177.719025 106.255997,177.719025 
z"/>
<path fill="#000000" opacity="1.000000" stroke="none" 
	d="
M201.965286,225.960922 
	C201.930756,228.393234 201.930756,230.862259 201.930756,233.665619 
	C199.425125,233.665619 196.914413,233.665619 194.005508,233.665619 
	C194.005508,231.369156 194.005508,229.107529 194.003967,226.422928 
	C194.002411,225.999939 193.930008,226.070053 194.381042,226.037552 
	C197.244690,226.026733 199.657288,226.048416 202.069885,226.070099 
	C202.069885,226.070099 201.999817,225.997635 201.965286,225.960922 
z"/>
<path fill="#000000" opacity="1.000000" stroke="none" 
	d="
M114.042847,185.965668 
	C111.602623,185.931274 109.125732,185.931274 106.019760,185.931274 
	C106.019760,183.503769 106.019760,181.092941 106.137878,178.200577 
	C106.255997,177.719025 106.182556,177.801361 106.151855,177.836182 
	C108.536026,177.870987 110.950897,177.870987 113.995369,177.870987 
	C113.995369,180.449600 113.995369,182.803879 113.966309,185.615723 
	C113.937241,186.073273 114.006180,186.000076 114.042847,185.965668 
z"/>
<path fill="#000000" opacity="1.000000" stroke="none" 
	d="
M178.000153,238.937683 
	C178.000000,237.170242 178.000000,235.875259 178.000000,234.290634 
	C180.558960,234.290634 182.946548,234.290634 185.669861,234.290634 
	C185.669861,236.597702 185.669861,239.095276 185.669861,242.191406 
	C183.188843,240.502945 179.161224,244.924896 178.000153,238.937683 
z"/>
<path fill="#000000" opacity="1.000000" stroke="none" 
	d="
M154.042908,185.965607 
	C151.604858,185.931213 149.130142,185.931213 146.327759,185.931213 
	C146.327759,183.527802 146.327759,181.124069 146.327759,178.357391 
	C148.564529,178.357391 151.074829,178.357391 153.995377,178.357391 
	C153.995377,180.623199 153.995377,182.890091 153.966339,185.615082 
	C153.937302,186.073196 154.006241,186.000000 154.042908,185.965607 
z"/>
<path fill="#000000" opacity="1.000000" stroke="none" 
	d="
M234.062698,209.926804 
	C231.650726,209.949524 229.238739,209.972244 226.375458,209.962845 
	C225.924149,209.930710 225.997574,209.999863 226.001312,209.583649 
	C225.980270,206.753036 225.955475,204.338623 226.381485,201.959381 
	C229.244827,202.019730 231.657349,202.044922 234.069885,202.070099 
	C234.069885,202.070099 233.999725,201.997650 233.965164,201.960938 
	C233.951828,204.338516 233.973038,206.752838 233.994019,209.583572 
	C233.993759,210.000000 234.062698,209.926804 234.062698,209.926804 
z"/>
<path fill="#000000" opacity="1.000000" stroke="none" 
	d="
M194.039124,225.965424 
	C191.619492,225.930893 189.163162,225.930893 186.005035,225.930893 
	C186.005035,223.586685 186.005035,221.213257 186.037079,218.381958 
	C186.069122,217.924103 186.000076,217.997528 186.422379,218.001312 
	C189.216476,218.005096 191.588257,218.005096 193.930008,218.005096 
	C193.930008,221.160904 193.930008,223.615479 193.930008,226.070053 
	C193.930008,226.070053 194.002411,225.999939 194.039124,225.965424 
z"/>
<path fill="#000000" opacity="1.000000" stroke="none" 
	d="
M163.191315,241.969849 
	C162.402267,239.457397 162.084167,236.971252 161.732803,234.225037 
	C164.696609,234.225037 167.081253,234.225037 169.735748,234.225037 
	C169.735748,236.612610 169.735748,238.999435 169.735748,241.996140 
	C167.786636,241.996140 165.724457,241.996140 163.191315,241.969849 
z"/>
<path fill="#000000" opacity="1.000000" stroke="none" 
	d="
M233.957092,210.034393 
	C236.395142,210.068787 238.869858,210.068787 241.672241,210.068787 
	C241.672241,212.472198 241.672241,214.875931 241.672241,217.642609 
	C239.435471,217.642609 236.925171,217.642609 234.004623,217.642609 
	C234.004623,215.376801 234.004623,213.109909 234.033661,210.384918 
	C234.062698,209.926804 233.993759,210.000000 233.957092,210.034393 
z"/>
<path fill="#000000" opacity="1.000000" stroke="none" 
	d="
M89.926338,233.936798 
	C89.926338,236.415924 89.926338,238.895065 89.926338,241.686981 
	C87.491203,241.686981 85.082222,241.686981 82.019753,241.686981 
	C82.019753,239.501343 82.019753,237.092224 82.137894,234.201050 
	C82.256027,233.719009 82.182625,233.801331 82.151932,233.836090 
	C84.471626,233.915817 86.822029,233.960800 89.585976,234.005783 
	C89.999527,234.005783 89.926338,233.936798 89.926338,233.936798 
z"/>
<path fill="#000000" opacity="1.000000" stroke="none" 
	d="
M89.965668,201.957092 
	C89.931267,204.395157 89.931267,206.869873 89.931267,209.672256 
	C87.527794,209.672256 85.124054,209.672256 82.357376,209.672256 
	C82.357376,207.435455 82.357376,204.925140 82.357376,202.004623 
	C84.623238,202.004623 86.890129,202.004623 89.615143,202.033661 
	C90.073257,202.062698 90.000061,201.993759 89.965668,201.957092 
z"/>
<path fill="#000000" opacity="1.000000" stroke="none" 
	d="
M90.033936,234.042465 
	C90.068344,231.597168 90.068344,229.115189 90.068344,226.316864 
	C92.503113,226.316864 94.913063,226.316864 97.980247,226.316864 
	C97.980247,228.496384 97.980247,230.906647 97.862106,233.798950 
	C97.743973,234.280991 97.817375,234.198669 97.848068,234.163925 
	C95.527145,234.084579 93.175514,234.039963 90.375114,233.966064 
	C89.926338,233.936798 89.999527,234.005783 90.033936,234.042465 
z"/>
<path fill="#000000" opacity="1.000000" stroke="none" 
	d="
M217.956726,234.034698 
	C220.390182,234.052643 222.860321,234.036194 225.805923,234.138321 
	C226.281403,234.256912 226.199127,234.183258 226.164307,234.152557 
	C226.129501,236.555405 226.129501,238.988937 226.129501,241.710663 
	C223.473862,241.710663 221.093597,241.710663 218.004593,241.710663 
	C218.004593,239.574203 218.004593,237.208694 218.033478,234.385132 
	C218.062347,233.927063 217.993408,234.000275 217.956726,234.034698 
z"/>
<path fill="#000000" opacity="1.000000" stroke="none" 
	d="
M82.034195,18.042755 
	C82.068596,15.604711 82.068596,13.130002 82.068596,10.327688 
	C84.472321,10.327688 86.876076,10.327688 89.642700,10.327688 
	C89.642700,12.564595 89.642700,15.074926 89.642700,17.995365 
	C87.376656,17.995365 85.109764,17.995365 82.384735,17.966261 
	C81.926598,17.937157 81.999802,18.006090 82.034195,18.042755 
z"/>
<path fill="#000000" opacity="1.000000" stroke="none" 
	d="
M159.871857,10.002104 
	C161.110901,12.441856 161.884399,14.879805 162.808105,17.791134 
	C159.268677,17.791134 156.883530,17.791134 154.247009,17.791134 
	C154.247009,15.350528 154.247009,12.964181 154.247009,10.000299 
	C155.928772,10.000299 157.667542,10.000299 159.871857,10.002104 
z"/>
<path fill="#000000" opacity="1.000000" stroke="none" 
	d="
M170.000153,22.937675 
	C170.000000,21.170244 170.000000,19.875263 170.000000,18.290634 
	C172.562973,18.290634 174.944550,18.290634 177.669861,18.290634 
	C177.669861,20.598885 177.669861,23.097923 177.669861,26.191412 
	C175.188828,24.502998 171.161255,28.924831 170.000153,22.937675 
z"/>
<path fill="#000000" opacity="1.000000" stroke="none" 
	d="
M176.808395,41.969170 
	C174.393982,41.996090 172.451080,41.996090 170.255447,41.996090 
	C170.255447,39.369118 170.255447,36.982796 170.255447,34.295029 
	C172.554672,34.295029 174.940430,34.295029 178.123642,34.295029 
	C177.852493,36.752529 177.566193,39.347385 176.808395,41.969170 
z"/>
<path fill="#000000" opacity="1.000000" stroke="none" 
	d="
M122.042725,49.965847 
	C119.604683,49.931450 117.129982,49.931450 114.327675,49.931450 
	C114.327675,47.527660 114.327675,45.123905 114.327675,42.357300 
	C116.564598,42.357300 119.074928,42.357300 121.995369,42.357300 
	C121.995369,44.623360 121.995369,46.890255 121.966248,49.615303 
	C121.937134,50.073452 122.006065,50.000244 122.042725,49.965847 
z"/>
<path fill="#000000" opacity="1.000000" stroke="none" 
	d="
M105.960938,58.034645 
	C108.393623,58.069172 110.863014,58.069172 113.666183,58.069172 
	C113.666183,60.576633 113.666183,63.087837 113.666183,65.994957 
	C111.365784,65.994957 109.103317,65.994957 106.382523,65.962906 
	C105.924187,65.930862 105.997604,65.999916 106.001335,65.583878 
	C106.026733,62.755234 106.048401,60.342628 106.070068,57.930023 
	C106.070061,57.930023 105.997643,58.000114 105.960938,58.034645 
z"/>
<path fill="#000000" opacity="1.000000" stroke="none" 
	d="
M64.808701,74.030151 
	C65.597740,76.542595 65.915833,79.028755 66.267189,81.774986 
	C63.303383,81.774986 60.918743,81.774986 58.264252,81.774986 
	C58.264252,79.387398 58.264252,77.000565 58.264252,74.003860 
	C60.213367,74.003860 62.275555,74.003860 64.808701,74.030151 
z"/>
<path fill="#000000" opacity="1.000000" stroke="none" 
	d="
M105.957230,74.034225 
	C108.395309,74.068619 110.870056,74.068619 113.672318,74.068619 
	C113.672318,76.472305 113.672318,78.876060 113.672318,81.642685 
	C111.435417,81.642685 108.925095,81.642685 106.004631,81.642685 
	C106.004631,79.376678 106.004631,77.109779 106.033730,74.384750 
	C106.062828,73.926620 105.993896,73.999825 105.957230,74.034225 
z"/>
<path fill="#000000" opacity="1.000000" stroke="none" 
	d="
M58.069107,137.924194 
	C55.613968,137.924194 53.158829,137.924194 50.005051,137.924194 
	C50.005051,135.586487 50.005051,133.213226 50.037140,130.382080 
	C50.069229,129.924210 50.000164,129.997635 50.416237,130.001343 
	C53.244633,129.978088 55.656952,129.951096 58.037144,130.375702 
	C57.979996,133.241562 57.954979,135.655792 57.965008,138.033829 
	C58.000053,137.997620 58.069107,137.924194 58.069107,137.924194 
z"/>
<path fill="#000000" opacity="1.000000" stroke="none" 
	d="
M34.042835,145.965668 
	C31.602613,145.931274 29.125727,145.931274 26.019758,145.931274 
	C26.019758,143.503754 26.019758,141.092941 26.137863,138.200562 
	C26.255970,137.719009 26.182520,137.801361 26.151821,137.836166 
	C28.536264,137.870972 30.951405,137.870972 33.995365,137.870972 
	C33.995365,140.449585 33.995365,142.803879 33.966297,145.615723 
	C33.937229,146.073273 34.006168,146.000076 34.042835,145.965668 
z"/>
<path fill="#000000" opacity="1.000000" stroke="none" 
	d="
M66.039085,145.965424 
	C63.619465,145.930893 61.163143,145.930893 58.005043,145.930893 
	C58.005043,143.586716 58.005043,141.213303 58.037075,138.382050 
	C58.069107,137.924194 58.000053,137.997620 58.416279,138.001343 
	C61.246967,137.980301 63.661434,137.955536 66.040695,138.381577 
	C65.980309,141.244919 65.955139,143.657486 65.929962,146.070038 
	C65.929962,146.070038 66.002380,145.999939 66.039085,145.965424 
z"/>
<path fill="#000000" opacity="1.000000" stroke="none" 
	d="
M113.965286,145.960876 
	C113.930756,148.380524 113.930756,150.836853 113.930756,153.994965 
	C111.586685,153.994965 109.213257,153.994965 106.381981,153.962921 
	C105.924126,153.930878 105.997559,153.999939 106.001328,153.577637 
	C106.005096,150.783554 106.005096,148.411758 106.005096,146.070038 
	C109.160774,146.070038 111.615341,146.070038 114.069908,146.070038 
	C114.069908,146.070038 113.999817,145.997589 113.965286,145.960876 
z"/>
<path fill="#000000" opacity="1.000000" stroke="none" 
	d="
M73.960922,162.034698 
	C76.393600,162.069229 78.862991,162.069229 81.666183,162.069229 
	C81.666183,164.577698 81.666183,167.090607 81.666183,169.994949 
	C79.365776,169.994949 77.103310,169.994949 74.382507,169.962891 
	C73.924171,169.930817 73.997597,169.999863 74.001328,169.583801 
	C74.026741,166.755203 74.048416,164.342667 74.070091,161.930115 
	C74.070091,161.930115 73.997627,162.000168 73.960922,162.034698 
z"/>
<path fill="#FFFFFF" opacity="1.000000" stroke="none" 
	d="
M178.381104,154.037567 
	C177.930023,151.603790 177.930023,149.137497 177.930023,146.004990 
	C172.929398,146.004990 167.900787,146.004990 162.401123,146.037476 
	C161.955276,141.003647 161.980499,135.937363 162.006287,130.435287 
	C162.006882,129.999512 161.938034,130.072754 161.938034,130.072754 
	C164.413406,130.072754 166.888779,130.072754 169.866333,130.072754 
	C169.866333,124.765266 169.866333,119.571678 169.866333,113.994705 
	C172.622803,113.994705 174.884506,113.994705 177.575409,114.418839 
	C178.004623,117.109871 178.004623,119.376762 178.004623,121.642624 
	C180.925140,121.642624 183.435455,121.642624 185.672256,121.642624 
	C185.672256,118.875946 185.672256,116.472206 185.672256,114.068733 
	C182.869873,114.068733 180.395157,114.068733 177.920425,114.068733 
	C177.945297,109.002892 177.970169,103.937057 177.962540,98.400635 
	C183.065262,97.930054 188.200455,97.930054 193.884293,97.930054 
	C193.884293,103.294846 193.884293,108.489243 193.884293,113.865067 
	C196.711807,113.865067 198.995178,113.865067 201.815292,113.865067 
	C201.815292,121.889038 201.815292,129.741501 201.815292,137.994934 
	C204.612381,137.994934 206.882324,137.994934 209.611145,137.962463 
	C210.070007,140.406982 210.070007,142.883942 210.070007,145.721680 
	C212.497177,145.721680 214.904465,145.721680 217.657898,145.721680 
	C217.657898,148.585358 217.657898,151.097153 217.657898,153.994644 
	C210.029236,153.994644 202.451752,153.994644 194.437012,153.996124 
	C193.999756,153.997604 194.069885,154.070099 194.037430,153.599060 
	C194.004974,148.208054 194.004974,143.288086 194.004974,138.189270 
	C191.212723,138.189270 188.821457,138.189270 185.930115,138.189270 
	C185.930115,143.579361 185.930115,148.824738 185.965149,154.033859 
	C186.000168,153.997620 186.069244,153.924194 186.069244,153.924194 
	C183.656891,153.951141 181.244537,153.978088 178.381104,154.037567 
z"/>
<path fill="#FFFFFF" opacity="1.000000" stroke="none" 
	d="
M153.618851,49.962418 
	C154.069885,55.162289 154.069885,60.394672 154.069885,65.994934 
	C156.635483,65.994934 158.893890,65.994934 161.611145,65.962471 
	C162.070007,68.404716 162.070007,70.879425 162.070007,73.711250 
	C164.482132,73.711250 166.889862,73.711250 169.839264,73.711250 
	C169.839264,76.567841 169.839264,79.091270 169.839264,81.995026 
	C175.286697,81.995026 180.207291,81.995026 185.598969,81.962555 
	C186.070038,84.398224 186.070038,86.866356 186.070038,89.855843 
	C183.418961,89.855843 180.897385,89.855843 178.005096,89.855843 
	C178.005096,92.631851 178.005096,94.893074 178.037567,97.612099 
	C164.850021,98.069901 151.630005,98.069901 138.005478,98.069901 
	C138.005478,95.382812 138.005478,93.115303 138.003952,90.423775 
	C138.002426,89.999756 137.929962,90.069901 138.402039,90.037430 
	C146.456955,90.004951 154.039810,90.004951 161.647217,90.004951 
	C161.647217,87.081573 161.647217,84.568863 161.647217,81.695564 
	C158.883011,81.695564 156.476410,81.695564 153.729126,81.695564 
	C153.729126,78.912476 153.729126,76.503677 153.729126,73.930000 
	C150.887650,73.930000 148.408813,73.930000 145.966187,73.965012 
	C146.002380,74.000015 146.075790,74.068939 146.075790,74.068939 
	C146.048874,66.337341 146.021973,58.605740 145.962585,50.402020 
	C148.342682,49.951576 150.755249,49.973255 153.618851,49.962418 
z"/>
<path fill="#FFFFFF" opacity="1.000000" stroke="none" 
	d="
M114.037445,145.599518 
	C111.615341,146.070038 109.160774,146.070038 106.005096,146.070038 
	C106.005096,148.411758 106.005096,150.783554 106.037552,153.612671 
	C103.592957,154.070007 101.115906,154.070007 98.278305,154.070007 
	C98.278305,151.502823 98.278305,149.095535 98.278305,146.142303 
	C95.415787,146.142303 92.889435,146.142303 89.995049,146.142303 
	C89.995049,138.029190 89.995049,130.451691 89.962570,122.402077 
	C92.412018,121.929962 94.893936,121.929962 97.897072,121.929962 
	C97.897072,127.261200 97.897072,132.463974 97.897072,137.809357 
	C100.817169,137.809357 103.214905,137.809357 105.980858,137.809357 
	C105.980858,135.221329 105.980858,132.814285 105.980858,130.005814 
	C108.612808,130.005814 110.883583,130.005814 113.577370,130.006271 
	C114.000381,130.006729 113.927155,129.937881 113.927155,129.937881 
	C113.953094,135.001587 113.979034,140.065292 114.037445,145.599518 
z"/>
<path fill="#FFFFFF" opacity="1.000000" stroke="none" 
	d="
M162.043549,129.965134 
	C159.597580,129.930756 157.114944,129.930756 154.265472,129.930756 
	C154.265472,132.508636 154.265472,134.920364 154.265472,137.667755 
	C151.506210,137.667755 149.095291,137.667755 146.339417,137.667755 
	C146.339417,130.095139 146.339417,122.252579 146.339417,114.202850 
	C151.442871,114.202850 156.500153,114.202850 161.995514,114.202850 
	C161.995514,119.268326 161.995514,124.199242 161.966766,129.601456 
	C161.938034,130.072754 162.006882,129.999512 162.043549,129.965134 
z"/>
<path fill="#FFFFFF" opacity="1.000000" stroke="none" 
	d="
M114.034760,130.043396 
	C114.069130,127.594986 114.069130,125.109917 114.069130,122.312439 
	C121.926903,122.312439 129.777481,122.312439 137.814819,122.312439 
	C137.814819,124.802559 137.814819,127.198822 137.814819,129.995529 
	C130.048462,129.995529 122.460144,129.995529 114.399490,129.966705 
	C113.927155,129.937881 114.000381,130.006729 114.034760,130.043396 
z"/>
<path fill="#FFFFFF" opacity="1.000000" stroke="none" 
	d="
M90.401070,114.037460 
	C89.930054,108.820290 89.930054,103.570641 89.930054,98.197098 
	C92.834923,98.197098 95.231041,98.197098 97.990448,98.197098 
	C97.990448,100.790070 97.990448,103.194916 97.990448,105.994904 
	C100.617035,105.994904 102.885696,105.994904 105.612183,105.962448 
	C106.070000,108.396301 106.070000,110.862617 106.070000,114.004974 
	C100.929291,114.004974 95.900688,114.004974 90.401070,114.037460 
z"/>
<path fill="#FFFFFF" opacity="1.000000" stroke="none" 
	d="
M130.381317,90.037582 
	C129.951736,85.003784 129.973373,79.937477 129.962524,74.400612 
	C134.997910,73.955009 140.065765,73.979965 145.604706,74.036926 
	C146.075790,74.068939 146.002380,74.000015 145.998642,74.422821 
	C145.994904,77.106865 145.994904,79.368103 145.994904,82.144135 
	C143.102661,82.144135 140.581085,82.144135 137.929962,82.144135 
	C137.929962,85.133629 137.929962,87.601768 137.929962,90.069901 
	C137.929962,90.069901 138.002426,89.999756 138.039154,89.965195 
	C135.661423,89.955444 133.246979,89.980255 130.381317,90.037582 
z"/>
<path fill="#FFFFFF" opacity="1.000000" stroke="none" 
	d="
M90.037544,121.618996 
	C87.657585,122.044868 85.245125,122.019707 82.416344,121.996101 
	C82.000015,121.997665 82.070038,122.070038 82.037552,121.618996 
	C82.026726,118.755310 82.048393,116.342659 82.035065,113.966202 
	C82.000053,114.002396 81.931137,114.075821 81.931137,114.075821 
	C84.343376,114.048859 86.755608,114.021904 89.618942,113.962456 
	C90.048378,116.342628 90.026711,118.755287 90.037544,121.618996 
z"/>
<path fill="#FFFFFF" opacity="1.000000" stroke="none" 
	d="
M131.191620,138.030823 
	C133.606018,138.003906 135.548920,138.003906 137.744553,138.003906 
	C137.744553,140.630890 137.744553,143.017212 137.744553,145.704971 
	C135.445312,145.704971 133.059555,145.704971 129.876343,145.704971 
	C130.147491,143.247467 130.433807,140.652618 131.191620,138.030823 
z"/>
<path fill="#FFFFFF" opacity="1.000000" stroke="none" 
	d="
M58.069275,129.924103 
	C55.656952,129.951096 53.244633,129.978088 50.381210,130.037582 
	C49.951752,125.003792 49.973385,119.937477 49.962536,114.400612 
	C55.063740,113.930054 60.197426,113.930054 65.665352,113.930054 
	C65.665352,111.483238 65.665352,109.083603 65.665352,106.302979 
	C63.519882,106.302979 61.110588,106.302979 58.348423,106.302979 
	C58.348423,103.422997 58.348423,100.908783 58.348423,98.188339 
	C66.120918,98.188339 73.840714,98.188339 81.995094,98.188339 
	C81.995094,103.271370 81.995094,108.201988 81.963120,113.604218 
	C81.931137,114.075821 82.000053,114.002396 81.577728,113.998650 
	C78.783508,113.994904 76.411621,113.994904 73.930016,113.994904 
	C73.930016,117.160812 73.930016,119.615440 73.964989,122.035049 
	C73.999962,122.000038 74.069946,121.930061 73.598892,121.962540 
	C68.099251,121.995018 63.070671,121.995018 57.930004,121.995018 
	C57.930004,125.137398 57.930004,127.603706 57.965073,130.033768 
	C58.000141,129.997528 58.069275,129.924103 58.069275,129.924103 
z"/>
<path fill="#FFFFFF" opacity="1.000000" stroke="none" 
	d="
M50.037422,113.597977 
	C47.589401,114.070038 45.108902,114.070038 42.314255,114.070038 
	C42.314255,106.090210 42.314255,98.250175 42.314255,89.994934 
	C44.620716,89.994934 46.886452,89.994934 49.611046,89.962448 
	C50.048252,97.661949 50.026600,105.393929 50.037422,113.597977 
z"/>
<path fill="#FFFFFF" opacity="1.000000" stroke="none" 
	d="
M82.034225,66.042770 
	C82.068619,63.604721 82.068619,61.130013 82.068619,58.327690 
	C84.472305,58.327690 86.876060,58.327690 89.642685,58.327690 
	C89.642685,60.564587 89.642685,63.074913 89.642685,65.995369 
	C87.376678,65.995369 85.109779,65.995369 82.384750,65.966270 
	C81.926620,65.937172 81.999825,66.006104 82.034225,66.042770 
z"/>
<path fill="#FFFFFF" opacity="1.000000" stroke="none" 
	d="
M105.612289,57.962467 
	C106.048401,60.342628 106.026733,62.755234 106.037567,65.618912 
	C103.601952,66.069977 101.133835,66.069977 98.332932,66.069977 
	C98.332932,63.422504 98.332932,60.912167 98.332932,57.994911 
	C100.631874,57.994911 102.893196,57.994911 105.612289,57.962467 
z"/>
<path fill="#FFFFFF" opacity="1.000000" stroke="none" 
	d="
M234.037415,201.598022 
	C231.657349,202.044922 229.244827,202.019730 226.416046,201.996094 
	C225.999817,201.997620 226.069977,202.070068 226.037537,201.612289 
	C226.005081,198.893188 226.005081,196.631866 226.005081,194.332947 
	C223.090378,194.332947 220.578217,194.332947 217.930023,194.332947 
	C217.930023,197.133850 217.930023,199.601959 217.965057,202.033844 
	C218.000076,201.997620 218.069138,201.924194 218.069138,201.924194 
	C215.590012,201.924194 213.110886,201.924194 209.995056,201.924194 
	C209.995056,191.584412 209.995056,181.229294 209.962585,170.402039 
	C212.342682,169.951584 214.755264,169.973267 217.618896,169.962433 
	C218.069977,172.410706 218.069977,174.891479 218.069977,177.717224 
	C223.128693,177.717224 228.199112,177.717224 234.004944,177.717224 
	C234.004944,185.735275 234.004944,193.430603 234.037415,201.598022 
z"/>
<path fill="#FFFFFF" opacity="1.000000" stroke="none" 
	d="
M198.833954,178.000122 
	C202.199097,177.511032 202.034729,179.384109 202.019684,181.329849 
	C201.968140,187.988800 201.999908,194.648392 201.999908,201.653717 
	C194.173935,201.653717 186.431870,201.653717 178.343628,201.653717 
	C178.343628,194.168381 178.343628,186.426498 178.343628,178.000000 
	C184.842453,178.000000 191.595459,178.000000 198.833954,178.000122 
M190.461456,186.000015 
	C189.043900,186.069748 187.626343,186.139496 186.230591,186.208160 
	C186.230591,188.931946 186.230591,191.316818 186.230591,193.808838 
	C188.847366,193.808838 191.231323,193.808838 194.842133,193.808838 
	C192.208939,191.272034 197.032578,187.122726 190.461456,186.000015 
z"/>
<path fill="#FFFFFF" opacity="1.000000" stroke="none" 
	d="
M194.381042,226.037552 
	C193.930008,223.615479 193.930008,221.160904 193.930008,218.005096 
	C191.588257,218.005096 189.216476,218.005096 186.387344,218.037552 
	C185.930008,215.591537 185.930008,213.113068 185.930008,210.317352 
	C191.239853,210.317352 196.416443,210.317352 202.004990,210.317352 
	C202.004990,215.295715 202.004990,220.211807 202.037445,225.598999 
	C199.657288,226.048416 197.244690,226.026733 194.381042,226.037552 
z"/>
<path fill="#FFFFFF" opacity="1.000000" stroke="none" 
	d="
M193.962448,162.388885 
	C199.163055,161.930084 204.396149,161.930084 210.005066,161.930084 
	C210.005066,164.635345 210.005066,166.893784 210.037552,169.611069 
	C204.837967,170.069916 199.605911,170.069916 193.994934,170.069916 
	C193.994934,167.364563 193.994934,165.106125 193.962448,162.388885 
z"/>
<path fill="#FFFFFF" opacity="1.000000" stroke="none" 
	d="
M225.965240,201.960907 
	C225.955475,204.338623 225.980270,206.753036 226.037552,209.618713 
	C223.614670,210.069992 221.159271,210.069992 218.005035,210.069992 
	C218.005035,207.586441 218.005035,205.213181 218.037079,202.382050 
	C218.069138,201.924194 218.000076,201.997620 218.416138,202.001328 
	C221.244781,202.026703 223.657379,202.048386 226.069977,202.070068 
	C226.069977,202.070068 225.999817,201.997620 225.965240,201.960907 
z"/>
<path fill="#FFFFFF" opacity="1.000000" stroke="none" 
	d="
M170.387283,162.037552 
	C169.929993,159.615402 169.929993,157.160797 169.929993,153.994904 
	C172.411591,153.994904 174.783463,153.994904 177.612671,153.962448 
	C178.070007,156.384613 178.070007,158.839233 178.070007,162.005096 
	C175.588379,162.005096 173.216476,162.005096 170.387283,162.037552 
z"/>
<path fill="#FFFFFF" opacity="1.000000" stroke="none" 
	d="
M193.965179,153.960907 
	C193.955414,156.338608 193.980240,158.753036 194.037552,161.618713 
	C191.614670,162.069992 189.159271,162.069992 186.005051,162.069992 
	C186.005051,159.586441 186.005051,157.213165 186.037140,154.382050 
	C186.069244,153.924194 186.000168,153.997620 186.416199,154.001343 
	C189.244797,154.026733 191.657333,154.048416 194.069885,154.070099 
	C194.069885,154.070099 193.999756,153.997604 193.965179,153.960907 
z"/>
<path fill="#FFFFFF" opacity="1.000000" stroke="none" 
	d="
M58.000000,31.009007 
	C58.000000,40.149498 58.000000,48.791088 58.000000,57.715443 
	C44.710632,57.715443 31.640663,57.715443 18.284389,57.715443 
	C18.284389,44.710278 18.284389,31.640316 18.284389,18.284218 
	C31.290070,18.284218 44.360031,18.284218 58.000000,18.284218 
	C58.000000,22.304924 58.000000,26.407516 58.000000,31.009007 
M26.000000,38.493843 
	C26.000000,42.263176 26.000000,46.032505 26.000000,49.713814 
	C34.311253,49.713814 42.049343,49.713814 49.712761,49.713814 
	C49.712761,41.686581 49.712761,33.948471 49.712761,26.288296 
	C41.684166,26.288296 33.946201,26.288296 26.000000,26.288296 
	C26.000000,30.218529 26.000000,33.862324 26.000000,38.493843 
z"/>
<path fill="#FFFFFF" opacity="1.000000" stroke="none" 
	d="
M57.999847,197.164749 
	C57.999985,209.613617 57.999985,221.575485 57.999985,233.767181 
	C44.603100,233.767181 31.532604,233.767181 18.230486,233.767181 
	C18.230486,220.598389 18.230486,207.527863 18.230486,194.001541 
	C30.776638,194.001541 43.222153,193.952881 55.664883,194.116241 
	C56.454235,194.126602 57.221939,195.785675 57.999847,197.164749 
M42.441303,226.000000 
	C44.878170,226.000000 47.315033,226.000000 49.731140,226.000000 
	C49.731140,217.725052 49.731140,209.987228 49.731140,202.270416 
	C41.721882,202.270416 33.983967,202.270416 26.271975,202.270416 
	C26.271975,210.281326 26.271975,218.019318 26.271975,226.000000 
	C31.514202,226.000000 36.486725,226.000000 42.441303,226.000000 
z"/>
<path fill="#FFFFFF" opacity="1.000000" stroke="none" 
	d="
M197.164749,18.000151 
	C209.613617,18.000017 221.575485,18.000017 233.767181,18.000017 
	C233.767181,31.396896 233.767181,44.467392 233.767181,57.769512 
	C220.598389,57.769512 207.527863,57.769512 194.001541,57.769512 
	C194.001541,45.223370 193.952896,32.777859 194.116257,20.335129 
	C194.126617,19.545774 195.785675,18.778063 197.164749,18.000151 
M202.057724,26.731853 
	C202.057724,34.353508 202.057724,41.975166 202.057724,49.795612 
	C210.122009,49.795612 217.859589,49.795612 225.798737,49.795612 
	C225.798737,41.871552 225.798737,34.133972 225.798737,26.056261 
	C217.988373,26.056261 210.368256,26.056261 202.057724,26.731853 
z"/>
<path fill="#FFFFFF" opacity="1.000000" stroke="none" 
	d="
M225.612717,161.962448 
	C226.070007,164.384598 226.070007,166.839203 226.070007,170.005096 
	C223.588409,170.005096 221.216537,170.005096 218.387329,170.037552 
	C217.929993,167.615387 217.929993,165.160767 217.929993,161.994904 
	C220.411621,161.994904 222.783524,161.994904 225.612717,161.962448 
z"/>
<path fill="#FFFFFF" opacity="1.000000" stroke="none" 
	d="
M225.962463,130.387711 
	C228.342621,129.951614 230.755219,129.973282 233.618896,129.962433 
	C234.069977,132.398041 234.069977,134.866150 234.069977,137.667053 
	C231.421783,137.667053 228.909622,137.667053 225.994919,137.667053 
	C225.994919,135.368134 225.994919,133.106812 225.962463,130.387711 
z"/>
<path fill="#FFFFFF" opacity="1.000000" stroke="none" 
	d="
M130.388885,66.037552 
	C129.951736,61.003708 129.973373,55.937382 129.962570,50.400482 
	C132.342667,49.951584 134.755203,49.973263 137.618820,49.962421 
	C138.069885,55.161987 138.069885,60.394073 138.069885,66.005066 
	C135.364578,66.005066 133.106140,66.005066 130.388885,66.037552 
z"/>
<path fill="#FFFFFF" opacity="1.000000" stroke="none" 
	d="
M146.037537,49.612289 
	C143.657379,50.048397 141.244781,50.026726 138.381104,50.037560 
	C137.930023,47.601952 137.930023,45.133839 137.930023,42.332932 
	C140.577377,42.332932 143.087814,42.332932 146.005096,42.332932 
	C146.005096,44.631866 146.005096,46.893192 146.037537,49.612289 
z"/>
<path fill="#FFFFFF" opacity="1.000000" stroke="none" 
	d="
M233.965668,81.957169 
	C233.931274,84.395248 233.931274,86.869995 233.931274,89.672287 
	C231.527756,89.672287 229.124008,89.672287 226.357361,89.672287 
	C226.357361,87.435448 226.357361,84.925140 226.357361,82.004631 
	C228.623276,82.004631 230.890152,82.004631 233.615173,82.033699 
	C234.073288,82.062767 234.000076,81.993843 233.965668,81.957169 
z"/>
<path fill="#FFFFFF" opacity="1.000000" stroke="none" 
	d="
M81.965561,121.960960 
	C81.931099,127.158066 81.931099,132.391876 81.931099,137.994522 
	C79.365265,137.994522 77.106506,137.994522 74.423752,137.996078 
	C73.999741,137.997635 74.069885,138.070099 74.037430,137.599518 
	C74.026634,132.062637 74.048286,126.996353 74.069946,121.930061 
	C74.069946,121.930061 73.999962,122.000038 74.416061,122.002548 
	C77.244789,122.026718 79.657410,122.048378 82.070038,122.070038 
	C82.070038,122.070038 82.000015,121.997665 81.965561,121.960960 
z"/>
<path fill="#FFFFFF" opacity="1.000000" stroke="none" 
	d="
M66.381012,146.037537 
	C65.955139,143.657486 65.980309,141.244919 66.003983,138.416138 
	C66.002472,137.999893 65.930016,138.070053 66.381050,138.037537 
	C69.244682,138.026718 71.657288,138.048401 74.069885,138.070099 
	C74.069885,138.070099 73.999741,137.997635 73.965179,137.960907 
	C73.955437,140.338638 73.980247,142.753082 74.037552,145.618774 
	C71.657372,146.048370 69.244713,146.026703 66.381012,146.037537 
z"/>
<path fill="#FFFFFF" opacity="1.000000" stroke="none" 
	d="
M73.599564,161.962570 
	C74.048416,164.342667 74.026741,166.755203 74.037582,169.618820 
	C68.837967,170.069885 63.605839,170.069885 57.994934,170.069885 
	C57.994934,167.364655 57.994934,165.106201 57.962448,162.388916 
	C62.996326,161.951736 68.062683,161.973373 73.599564,161.962570 
z"/>
<path fill="#FFFFFF" opacity="1.000000" stroke="none" 
	d="
M66.039185,137.965332 
	C63.661434,137.955536 61.246967,137.980301 58.381233,138.037552 
	C57.954979,135.655792 57.979996,133.241562 58.037144,130.375702 
	C58.069275,129.924103 58.000141,129.997528 58.422401,130.001312 
	C61.216461,130.005096 63.588261,130.005096 65.930016,130.005096 
	C65.930016,133.160873 65.930016,135.615463 65.930016,138.070053 
	C65.930016,138.070053 66.002472,137.999893 66.039185,137.965332 
z"/>
<path fill="#000000" opacity="1.000000" stroke="none" 
	d="
M194.037430,153.599060 
	C191.657333,154.048416 189.244797,154.026733 186.381180,154.037567 
	C185.930115,148.824738 185.930115,143.579361 185.930115,138.189270 
	C188.821457,138.189270 191.212723,138.189270 194.004974,138.189270 
	C194.004974,143.288086 194.004974,148.208054 194.037430,153.599060 
z"/>
<path fill="#000000" opacity="1.000000" stroke="none" 
	d="
M177.957092,114.034332 
	C180.395157,114.068733 182.869873,114.068733 185.672256,114.068733 
	C185.672256,116.472206 185.672256,118.875946 185.672256,121.642624 
	C183.435455,121.642624 180.925140,121.642624 178.004623,121.642624 
	C178.004623,119.376762 178.004623,117.109871 178.033661,114.384857 
	C178.062698,113.926743 177.993759,113.999939 177.957092,114.034332 
z"/>
<path fill="#000000" opacity="1.000000" stroke="none" 
	d="
M138.402039,90.037430 
	C137.929962,87.601768 137.929962,85.133629 137.929962,82.144135 
	C140.581085,82.144135 143.102661,82.144135 145.994904,82.144135 
	C145.994904,79.368103 145.994904,77.106865 145.962448,74.387817 
	C148.408813,73.930000 150.887650,73.930000 153.729126,73.930000 
	C153.729126,76.503677 153.729126,78.912476 153.729126,81.695564 
	C156.476410,81.695564 158.883011,81.695564 161.647217,81.695564 
	C161.647217,84.568863 161.647217,87.081573 161.647217,90.004951 
	C154.039810,90.004951 146.456955,90.004951 138.402039,90.037430 
z"/>
<path fill="#000000" opacity="1.000000" stroke="none" 
	d="
M82.037552,121.618996 
	C79.657410,122.048378 77.244789,122.026718 74.381088,122.037560 
	C73.930016,119.615440 73.930016,117.160812 73.930016,113.994904 
	C76.411621,113.994904 78.783508,113.994904 81.612732,113.962463 
	C82.048393,116.342659 82.026726,118.755310 82.037552,121.618996 
z"/>
<path fill="#000000" opacity="1.000000" stroke="none" 
	d="
M66.381050,138.037537 
	C65.930016,135.615463 65.930016,133.160873 65.930016,130.005096 
	C63.588261,130.005096 61.216461,130.005096 58.387333,130.037552 
	C57.930004,127.603706 57.930004,125.137398 57.930004,121.995018 
	C63.070671,121.995018 68.099251,121.995018 73.598892,121.962540 
	C74.048286,126.996353 74.026634,132.062637 74.037430,137.599518 
	C71.657288,138.048401 69.244682,138.026718 66.381050,138.037537 
z"/>
<path fill="#000000" opacity="1.000000" stroke="none" 
	d="
M226.037537,201.612274 
	C223.657379,202.048386 221.244781,202.026703 218.381104,202.037552 
	C217.930023,199.601959 217.930023,197.133850 217.930023,194.332947 
	C220.578217,194.332947 223.090378,194.332947 226.005081,194.332947 
	C226.005081,196.631866 226.005081,198.893188 226.037537,201.612274 
z"/>
<path fill="#000000" opacity="1.000000" stroke="none" 
	d="
M190.933731,186.000153 
	C197.032578,187.122726 192.208939,191.272034 194.842133,193.808838 
	C191.231323,193.808838 188.847366,193.808838 186.230591,193.808838 
	C186.230591,191.316818 186.230591,188.931946 186.230591,186.208160 
	C187.626343,186.139496 189.043900,186.069748 190.933731,186.000153 
z"/>
<path fill="#000000" opacity="1.000000" stroke="none" 
	d="
M26.000000,37.999981 
	C26.000000,33.862324 26.000000,30.218529 26.000000,26.288296 
	C33.946201,26.288296 41.684166,26.288296 49.712761,26.288296 
	C49.712761,33.948471 49.712761,41.686581 49.712761,49.713814 
	C42.049343,49.713814 34.311253,49.713814 26.000000,49.713814 
	C26.000000,46.032505 26.000000,42.263176 26.000000,37.999981 
z"/>
<path fill="#000000" opacity="1.000000" stroke="none" 
	d="
M41.950279,226.000000 
	C36.486725,226.000000 31.514202,226.000000 26.271975,226.000000 
	C26.271975,218.019318 26.271975,210.281326 26.271975,202.270416 
	C33.983967,202.270416 41.721882,202.270416 49.731140,202.270416 
	C49.731140,209.987228 49.731140,217.725052 49.731140,226.000000 
	C47.315033,226.000000 44.878170,226.000000 41.950279,226.000000 
z"/>
<path fill="#000000" opacity="1.000000" stroke="none" 
	d="
M202.402924,26.394058 
	C210.368256,26.056261 217.988373,26.056261 225.798737,26.056261 
	C225.798737,34.133972 225.798737,41.871552 225.798737,49.795612 
	C217.859589,49.795612 210.122009,49.795612 202.057724,49.795612 
	C202.057724,41.975166 202.057724,34.353508 202.402924,26.394058 
z"/>
</svg>