<svg version="1.1" id="Layer_1" xmlns="http://www.w3.org/2000/svg" xmlns:xlink="http://www.w3.org/1999/xlink" x="0px" y="0px"
	 width="100%" viewBox="0 0 1024 1024" enable-background="new 0 0 1024 1024" xml:space="preserve">

<path fill="#000000" opacity="1.000000" stroke="none" 
	d="
M607.393311,480.578552 
	C609.480286,477.193207 611.686218,473.893585 612.562561,469.890106 
	C613.527771,465.480865 615.733276,464.624084 619.459473,467.321899 
	C621.011841,468.445862 622.108459,470.199463 623.434998,471.692200 
	C625.850464,469.579834 627.049927,467.748413 623.931030,466.002411 
	C621.074036,464.402985 621.955994,462.223145 622.970459,459.402466 
	C623.539429,458.519012 623.829529,458.217773 624.119629,457.916504 
	C625.243652,457.145569 626.509277,456.234253 627.672241,457.555145 
	C631.115784,461.466400 635.063904,462.920898 640.418396,461.999146 
	C643.498169,461.468964 645.655396,464.291443 647.319946,466.984863 
	C648.924133,469.580688 649.590759,473.009338 654.660461,470.426025 
	C657.747253,468.853119 659.674255,473.832367 662.242798,475.633209 
	C660.437683,478.400787 658.536255,475.880768 656.419312,476.817566 
	C658.710022,479.806213 660.707886,482.910339 663.218689,485.521118 
	C665.022095,487.396332 668.061401,486.054077 668.355957,483.593811 
	C668.943481,478.686462 674.756104,475.679169 679.715576,477.126678 
	C690.801208,480.362183 702.118896,482.563019 713.639343,483.622131 
	C716.236572,483.860901 718.146118,482.698547 719.648682,480.732880 
	C721.671936,478.086121 723.745483,475.470215 725.627014,472.724274 
	C730.736694,465.267456 738.054138,464.419922 746.051758,465.924194 
	C750.634094,466.786072 752.451111,468.845032 753.492310,473.372131 
	C753.013123,474.251221 752.155579,474.276001 751.339966,474.239563 
	C739.379028,473.704834 729.325684,481.846802 727.602051,493.549164 
	C727.142456,496.669891 728.256714,498.185547 731.435059,499.896545 
	C737.449890,503.134552 743.800659,501.008118 749.775757,502.596954 
	C751.052612,502.936493 752.402161,502.993622 753.694885,503.284576 
	C758.231384,504.305511 762.516052,507.344299 767.466736,504.350098 
	C768.169800,506.618866 768.512512,508.420349 769.266418,510.029114 
	C771.664978,515.147400 775.211853,515.540588 778.747742,511.193787 
	C780.140686,509.481415 780.677124,509.358337 785.020264,509.767914 
	C785.449951,508.064484 784.200195,507.057190 783.077759,506.731293 
	C778.666077,505.450409 778.425598,500.983704 776.163757,498.089020 
	C775.812317,497.639343 775.635559,496.632751 775.897034,496.190765 
	C778.093018,492.479095 782.335266,491.958679 785.758545,490.224518 
	C788.268250,488.953156 789.698792,491.074371 790.892029,492.959656 
	C796.046265,501.103699 796.058044,501.119446 801.806763,493.292267 
	C806.011169,487.567841 810.713623,482.235870 810.891663,474.365295 
	C810.986694,470.164612 814.217773,466.956757 817.973877,465.286133 
	C823.875122,462.661346 829.644226,458.637665 836.742615,461.719330 
	C838.037109,462.281281 839.301025,461.209259 840.392883,460.458435 
	C843.290344,458.466064 845.845703,456.096222 848.147217,453.428406 
	C852.944824,447.867493 857.820740,442.400146 864.538391,438.986816 
	C866.694702,437.891174 868.452271,436.098114 868.577454,433.603760 
	C868.802612,429.114929 871.836121,427.612976 875.409973,426.919525 
	C879.471741,426.131439 883.534058,425.745392 887.792358,426.356720 
	C891.593384,426.902435 892.789062,428.728546 893.326172,432.091400 
	C895.588379,446.254852 892.172607,459.170532 884.926758,471.252167 
	C878.153809,482.545319 869.296997,492.043549 858.777771,499.846619 
	C851.867615,504.972534 846.759216,511.242462 843.274475,519.024109 
	C841.026123,524.044556 838.448425,528.912048 835.171509,533.358704 
	C826.312561,545.379944 811.967773,546.848450 800.900940,536.879883 
	C797.314697,533.649536 793.955933,530.131042 790.148010,527.191345 
	C785.360291,523.495056 780.319214,523.027527 774.948792,526.703003 
	C769.361023,530.527100 767.704651,529.918457 765.046570,523.545288 
	C763.760315,520.461243 761.782104,519.006104 758.550598,519.331787 
	C756.915771,519.496582 754.944336,519.464722 753.747864,520.356934 
	C739.906738,530.677856 724.713196,526.473083 709.915100,524.235168 
	C695.305847,522.025818 681.359741,516.656067 666.543213,514.861633 
	C661.443176,514.243958 656.656677,510.787048 650.879333,511.296478 
	C646.938721,511.643951 644.481018,513.393188 643.624023,516.925537 
	C642.683899,520.800842 640.665039,523.919434 638.304688,526.968140 
	C630.326599,537.272827 626.002686,549.415771 621.373413,561.354126 
	C616.365601,574.268799 610.792480,586.885132 603.914124,598.919128 
	C597.959656,609.336670 594.390991,620.928711 588.054626,631.176514 
	C586.360718,633.916016 585.893677,637.084473 586.740540,640.345642 
	C586.985168,641.287659 587.274963,642.474426 586.922485,643.275513 
	C583.329712,651.441895 586.441895,659.322388 587.823853,667.263367 
	C588.990540,673.966980 590.495605,680.570923 589.554871,687.519836 
	C588.955017,691.950989 591.430359,695.852478 593.227051,699.788574 
	C596.348450,706.626709 596.061096,707.108215 588.929504,708.422607 
	C586.742249,708.825745 584.460632,709.250183 583.131653,711.336365 
	C584.526428,713.145569 585.895325,712.412415 587.055908,712.014282 
	C591.613770,710.450928 594.333435,712.433289 596.284546,716.390259 
	C597.625854,719.110352 598.535400,721.956970 599.094360,724.899292 
	C599.883362,729.052551 598.738403,732.616333 594.924316,734.761963 
	C588.439087,738.410156 586.730103,744.420532 586.348450,751.188416 
	C585.763184,761.563599 587.416443,771.759399 588.827637,781.972473 
	C589.650391,787.927002 589.362976,793.871094 589.226135,799.997131 
	C586.126526,800.063965 585.887207,797.703735 585.001526,796.136475 
	C583.451538,793.393738 582.515686,790.270996 580.110046,788.068176 
	C578.849731,786.914185 577.360107,786.079468 575.561951,786.731262 
	C573.676208,787.414795 573.247131,789.044678 573.352600,790.796997 
	C573.624634,795.316528 572.545715,800.074890 576.861694,803.707336 
	C578.626648,805.192810 578.085388,807.177124 576.048889,809.179688 
	C572.632629,812.539307 567.701477,814.016724 565.168030,818.433105 
	C563.991516,820.483948 562.353516,819.794373 561.211792,818.149170 
	C560.015625,816.425476 559.759521,814.368469 560.083923,812.383972 
	C561.162781,805.785095 559.126343,799.848022 556.330078,794.096680 
	C552.246948,785.698486 548.477295,777.185486 545.785034,768.222168 
	C543.798828,761.609436 541.037964,755.634644 535.411682,750.993042 
	C530.690613,747.098328 531.849976,742.689087 537.364075,739.425171 
	C539.749573,738.013062 543.686401,737.721130 543.106506,732.977844 
	C539.452515,733.499390 537.542725,736.140442 535.350281,738.125305 
	C533.851562,739.482300 532.627014,741.860535 530.669983,739.567139 
	C529.088989,737.714478 529.237488,735.275574 531.699158,733.539734 
	C533.576599,732.215759 539.012634,723.724915 540.315430,720.406677 
	C537.612732,719.379211 536.516785,721.683716 534.992859,722.886963 
	C530.632507,726.329590 528.073181,725.562256 526.976501,720.162903 
	C526.486450,717.750183 526.632751,715.193909 526.617493,712.702026 
	C526.579407,706.487793 523.857727,703.838806 517.622498,704.398315 
	C511.934906,704.908691 506.555939,706.767944 501.328613,708.946472 
	C486.247589,715.231750 470.864960,717.133972 455.019623,712.307983 
	C451.529083,711.244873 448.160736,709.760864 444.776489,708.372253 
	C437.657410,705.451233 432.446411,707.213440 428.852661,714.023499 
	C425.790558,719.826111 424.458435,726.213989 422.941437,732.528076 
	C418.453949,751.206055 409.991699,768.570984 404.792664,786.989868 
	C396.436493,816.593933 386.399078,845.736023 380.144165,875.923157 
	C379.089325,881.013977 376.954254,885.722900 374.853882,890.443970 
	C372.672913,895.346069 371.024689,900.374878 371.344757,905.870544 
	C371.410645,907.001648 371.351685,908.333618 370.822235,909.276550 
	C363.369934,922.548523 362.866943,937.663208 359.391418,951.984558 
	C359.039062,953.436523 358.753693,954.904663 358.411438,956.359131 
	C356.198822,965.762207 350.830872,967.433716 343.188080,961.218506 
	C340.943085,959.392822 342.378418,957.477905 342.863983,955.766418 
	C347.178772,940.557678 351.396301,925.315063 356.090179,910.221619 
	C365.358551,880.418823 376.132751,851.126404 386.438263,821.673279 
	C395.179291,796.691589 402.224731,771.160278 408.712158,745.516541 
	C411.047211,736.286377 412.969879,727.107666 417.733978,718.733459 
	C418.932770,716.626282 419.325714,714.030518 419.915802,711.616882 
	C420.366608,709.773071 420.957520,708.257141 422.765106,707.203735 
	C427.344971,704.534668 430.881012,693.708069 428.874237,688.893188 
	C428.779114,688.664978 428.332306,688.583374 427.777618,688.289612 
	C425.236176,690.802795 424.681580,694.326416 423.517242,697.488220 
	C422.458038,700.364441 421.343872,703.140930 418.564331,704.708435 
	C416.150848,706.069580 416.478302,708.326172 416.419861,710.423340 
	C416.314728,714.195801 414.244995,715.995178 410.725372,715.858154 
	C406.748260,715.703308 402.760925,715.281982 398.825958,714.669067 
	C385.645050,712.616089 379.936127,717.415649 379.981171,730.736145 
	C379.993011,734.238220 380.169189,737.732544 381.287140,741.102661 
	C382.095337,743.538879 382.965271,745.988159 380.278259,747.495300 
	C380.795441,749.713867 382.803436,749.659607 383.596313,750.959290 
	C384.578003,752.568481 384.409943,754.165588 383.601532,755.703979 
	C382.600006,757.609741 380.524506,758.152832 378.864685,757.730347 
	C375.527435,756.880859 372.250427,757.281494 368.954132,757.402588 
	C366.758453,757.483154 365.376862,756.621033 364.924835,754.550354 
	C364.462250,752.431580 364.122223,750.324097 366.295288,748.670959 
	C369.986359,745.862915 371.151001,741.730408 371.647430,737.386841 
	C372.006348,734.246643 370.851288,732.451599 367.295441,732.159851 
	C363.987335,731.888306 360.832672,730.604858 357.923645,728.908936 
	C356.005096,727.790466 354.290222,727.555786 352.923737,729.498108 
	C353.614777,732.579834 356.775879,730.336304 358.172882,732.702515 
	C355.985168,737.292969 351.058197,739.631226 347.565369,743.148132 
	C346.087402,744.636353 342.101074,743.215454 340.605865,740.226990 
	C339.674042,738.364685 338.182892,737.840698 336.479828,738.559875 
	C334.411804,739.433167 335.359344,740.907166 336.123749,742.274719 
	C337.065308,743.959229 337.239716,745.664673 334.906769,746.156677 
	C332.038391,746.761597 329.896118,748.964661 327.209473,749.615417 
	C322.582733,750.735962 322.936188,754.482178 321.697845,757.739868 
	C324.475281,758.154846 324.675842,756.022461 325.656342,754.868774 
	C326.798004,753.525513 328.101288,752.208618 329.858917,753.408447 
	C331.483490,754.517395 330.315186,756.050842 329.875610,757.460999 
	C327.638397,764.637939 318.324738,767.258423 310.450012,764.000610 
	C308.282043,765.742859 309.338257,767.933655 309.845459,769.903931 
	C310.717773,773.292603 310.210419,776.178528 307.432190,778.467224 
	C304.568207,780.826660 300.737671,781.544373 298.089569,779.718506 
	C294.445892,777.206177 290.405823,776.784363 286.519348,775.674500 
	C282.202759,774.441895 282.367279,771.387756 282.749084,768.209167 
	C283.148682,764.882690 284.450073,762.123718 288.453156,761.781921 
	C295.624908,761.169739 304.409058,750.358093 303.632324,743.347595 
	C303.381744,741.085938 301.948334,739.843872 300.429474,738.523865 
	C298.527069,736.870667 296.726562,735.135071 297.358459,732.195312 
	C299.812134,730.752991 301.571869,732.594727 303.351105,733.517029 
	C306.945770,735.380432 309.537292,734.465393 311.128326,730.980225 
	C314.619629,723.332703 314.100983,715.043640 314.464203,706.949402 
	C314.587219,704.208191 312.123444,704.123535 309.991913,704.780212 
	C305.684753,706.107239 302.200653,708.694763 299.852264,712.481201 
	C298.157166,715.214355 296.762604,717.958679 292.914612,717.200073 
	C292.795502,719.270996 294.050964,719.493958 295.177429,719.648560 
	C299.512360,720.243591 299.862244,723.317505 299.491180,726.682373 
	C299.300232,728.414246 298.332367,729.803284 296.409790,730.176331 
	C294.497864,730.547363 293.776306,729.272888 293.099701,727.846191 
	C291.783539,725.070862 289.587646,723.497681 286.515656,723.126587 
	C281.387878,722.507080 279.087402,724.590515 279.288940,729.717102 
	C279.731232,740.968567 274.369354,748.892822 264.339935,752.494568 
	C261.448120,753.533142 259.729187,752.931702 258.902130,750.282593 
	C257.119415,744.572571 254.117584,741.609009 247.536636,743.086975 
	C244.205322,743.835144 242.179642,741.882446 243.372742,737.936279 
	C246.333160,728.144653 249.893661,718.835999 260.916504,715.388855 
	C262.788635,714.803345 264.849884,714.847778 266.802643,714.486816 
	C268.338806,714.202942 269.701538,713.487488 270.114258,711.829468 
	C270.570984,709.994507 269.245239,709.111023 267.930603,708.327332 
	C264.967377,706.560791 260.948334,705.260803 263.802826,700.556641 
	C265.908905,697.085999 269.989014,696.699036 274.400421,699.414795 
	C277.659210,701.421021 280.757263,703.689819 284.030212,705.671021 
	C285.992432,706.858887 288.317078,707.404663 289.794922,705.065857 
	C291.457184,702.435120 289.381226,701.160889 287.363281,700.105408 
	C285.173187,698.959961 283.454285,697.578979 283.804016,694.719116 
	C284.174011,691.693054 286.391479,690.068542 288.837311,689.927368 
	C303.625702,689.073608 309.432068,676.439941 318.326935,667.863525 
	C319.857422,666.387817 319.127686,664.819397 318.394745,663.276306 
	C317.209900,660.781738 315.129547,659.089539 313.066589,657.402283 
	C310.865326,655.601990 308.560547,653.860107 307.367218,651.206238 
	C306.377777,649.005798 304.413269,646.242249 306.751343,644.353516 
	C308.993622,642.542175 310.313049,645.773499 311.969788,646.883057 
	C313.433716,647.863464 314.596954,649.494629 316.743683,648.776489 
	C314.755981,642.127930 307.817261,639.267822 301.745270,642.633179 
	C301.057587,643.014343 300.611145,643.925293 299.670227,643.534424 
	C288.962555,639.086975 277.515961,642.335327 266.552582,640.333862 
	C259.576477,639.060364 257.148834,636.770874 257.654358,630.841980 
	C257.904572,627.907104 259.203827,625.948242 261.990204,624.744507 
	C275.012329,619.118530 288.315216,614.401123 302.220947,611.421143 
	C305.061401,610.812439 307.369965,611.083740 308.612000,613.692688 
	C311.401794,619.552795 315.841888,623.268127 321.899048,625.448059 
	C324.234863,626.288635 326.180664,628.032959 325.876709,631.387695 
	C322.567596,633.453735 318.441040,631.184692 314.843994,633.400024 
	C320.970215,633.362488 324.132782,638.070007 328.457764,640.938354 
	C338.452240,647.566528 349.137207,652.996948 360.356232,657.288269 
	C362.709717,658.188416 365.186157,658.869202 366.913055,660.740967 
	C369.563965,663.614319 372.411682,665.724243 376.473419,666.433167 
	C379.611542,666.980896 381.586761,669.362000 381.442169,672.856323 
	C383.691437,673.298096 386.491608,671.581116 387.433502,675.070007 
	C388.192749,677.882385 387.164124,679.099731 384.531189,680.316650 
	C382.333405,681.332520 383.100189,684.258301 383.404633,686.275696 
	C383.854004,689.253479 386.615082,688.454163 389.360199,689.059570 
	C387.952515,687.414612 386.610657,686.417297 386.094391,685.097107 
	C385.466003,683.490234 385.745789,681.109436 388.190033,681.929260 
	C392.940643,683.522949 397.808319,682.124573 402.682953,683.400757 
	C408.261932,684.861511 409.181946,685.089722 407.181152,690.653320 
	C406.797211,691.721069 405.976074,692.692627 406.638092,694.291443 
	C409.256073,694.824158 410.251587,692.715576 411.210022,690.949463 
	C413.109558,687.449280 414.386017,683.599243 417.364624,680.736389 
	C418.829498,679.328491 418.235870,677.824463 416.892212,676.905334 
	C412.003876,673.561279 407.246490,669.901733 400.789520,668.684814 
	C402.145081,664.660400 399.050354,663.062195 396.205475,661.327332 
	C392.100128,658.823853 387.523315,657.033875 384.268982,653.245239 
	C383.782257,652.678650 382.861969,652.113403 382.172211,652.147888 
	C371.522736,652.679199 364.233093,645.654968 356.256378,640.436096 
	C350.679382,636.787231 345.719788,632.206970 340.354675,628.217224 
	C337.283264,625.933167 333.950256,624.068970 330.117004,623.160095 
	C328.740540,622.833740 327.273773,621.958496 326.331329,620.902527 
	C323.276886,617.480530 320.791992,613.517944 315.926025,611.608643 
	C320.188049,607.655762 324.146881,611.214844 328.084320,610.672791 
	C330.283325,603.068726 329.405090,596.121643 325.107758,589.490051 
	C323.879028,587.593994 323.335510,585.212158 322.679535,582.993408 
	C318.097870,567.496582 311.802673,552.888184 300.502747,540.974731 
	C297.996521,538.332458 295.866913,534.638916 291.058594,535.720154 
	C289.629913,536.041443 288.614624,534.644226 288.025482,533.473938 
	C286.760193,530.960510 285.677673,528.413879 282.939056,527.017212 
	C282.067993,526.572998 281.730927,525.418579 281.947571,524.356995 
	C282.250610,522.872009 283.512634,522.806396 284.674988,522.711182 
	C285.669708,522.629761 286.684723,522.740356 287.669891,522.609375 
	C289.863220,522.317627 292.871490,523.789734 294.006134,521.131592 
	C295.014740,518.768738 292.554718,516.913513 291.330231,515.018799 
	C288.116394,510.046143 283.861359,505.704773 281.773651,499.629456 
	C285.466309,498.570892 287.411957,500.975983 289.458557,502.592804 
	C295.363678,507.257843 298.846191,513.764343 302.281616,520.258545 
	C305.163330,525.705994 307.803619,531.290833 311.534454,536.242920 
	C313.272247,538.549561 315.050598,540.656860 318.504120,540.059387 
	C320.813599,539.659912 322.100769,541.474609 323.309052,543.083862 
	C325.723877,546.300171 328.787018,548.219421 332.864288,548.820679 
	C337.352509,549.482422 341.341309,551.725891 345.457245,553.531372 
	C349.606110,555.351318 353.835052,556.743591 358.350677,555.107605 
	C359.543274,552.583740 357.400787,551.277893 356.678864,549.557312 
	C355.282867,546.230164 354.934204,543.292053 359.174713,541.950928 
	C361.495941,541.216797 361.413727,539.414551 361.658020,537.585266 
	C362.624054,530.351868 365.471954,527.814758 372.859985,527.660645 
	C377.016083,527.573914 381.175507,527.645020 385.829071,527.645020 
	C385.095642,520.825073 388.071960,515.276062 390.732635,509.340149 
	C392.794800,504.739532 391.975220,498.897186 392.755554,493.654297 
	C393.267212,490.216644 393.002533,486.273926 397.259033,483.560455 
	C400.135223,490.012848 405.651367,493.876831 409.793396,498.950623 
	C411.573151,501.130676 413.096161,503.712708 416.471771,500.293579 
	C418.116943,498.627258 421.088928,500.152191 422.323425,501.649963 
	C428.109406,508.669678 437.086365,509.557373 444.417480,513.548157 
	C447.026031,514.968140 449.182526,516.220642 449.418030,519.828979 
	C451.899933,518.533264 455.085266,519.436096 455.650299,516.045776 
	C456.126343,513.189209 453.794464,512.062683 451.851105,510.748413 
	C449.114197,508.897644 446.110779,507.267242 445.086395,503.452545 
	C447.925812,501.450165 449.974670,503.124512 452.030609,504.817505 
	C453.789764,506.266144 455.556061,507.498840 457.699585,505.369324 
	C459.713409,503.368652 460.426727,501.224152 458.696106,498.687073 
	C456.726410,495.799469 454.760162,492.909515 452.810913,490.047760 
	C448.652802,491.161652 444.938538,488.807678 442.199097,483.014557 
	C440.732605,479.913391 438.309784,476.476227 442.982849,473.835754 
	C441.197968,468.545593 441.529877,462.872925 439.189728,457.591217 
	C437.898376,454.676575 436.924164,451.908630 434.556915,449.664978 
	C426.320221,441.858521 420.536682,432.911163 420.508087,420.952515 
	C420.494720,415.357361 418.017242,411.000854 411.857758,409.710724 
	C410.303009,409.385101 408.336090,408.838043 409.218658,406.429535 
	C409.935028,404.474609 411.485962,403.401581 413.531219,403.927338 
	C415.274353,404.375427 417.006134,405.144928 418.531616,406.107239 
	C422.232239,408.441650 424.803345,407.285736 426.758514,403.788116 
	C428.646851,400.410034 429.041962,397.472290 424.386414,396.050598 
	C424.033539,395.942871 423.843079,395.303192 423.555786,394.879333 
	C424.702545,392.689423 426.653839,392.522491 428.204742,393.586578 
	C432.040314,396.218262 435.748596,398.720154 440.251221,395.833282 
	C442.001007,398.658875 438.805115,399.843628 439.448059,402.212646 
	C442.263031,401.876160 443.756805,400.720551 443.395111,397.741241 
	C443.174622,395.924896 442.744385,394.053131 442.978302,392.281555 
	C443.326172,389.647125 443.810364,386.859161 447.757812,387.369873 
	C450.536194,387.729309 452.937134,386.088654 453.988892,383.919800 
	C456.658478,378.414703 461.100952,374.486389 464.963623,370.000885 
	C467.822601,366.680939 469.240845,362.354492 473.496277,359.942932 
	C480.222351,356.131195 485.547455,350.021576 493.139740,347.564850 
	C498.304382,345.893646 502.893677,343.326508 506.835632,339.590759 
	C509.288025,337.266632 512.293091,335.804993 515.240601,334.243713 
	C518.452698,332.542206 521.241516,331.365295 520.243225,326.099945 
	C519.600037,322.707336 522.273560,318.315918 524.317749,314.882538 
	C526.594360,311.058807 529.755249,307.737488 532.702332,304.346283 
	C534.432434,302.355499 536.902832,300.868378 535.236572,297.591278 
	C534.723694,296.582520 535.372009,295.575104 536.427734,295.198181 
	C542.374878,293.074951 544.386719,287.358765 547.139587,282.684937 
	C550.290710,277.334869 552.220520,271.260742 554.610779,265.472198 
	C554.982910,264.570923 554.886780,263.382324 556.039246,263.050232 
	C560.452759,261.778473 562.378357,257.851501 564.992981,254.690353 
	C567.003540,252.259521 569.774414,250.042755 566.896729,246.234238 
	C565.949829,244.981049 567.182373,243.012909 567.863403,241.504227 
	C568.684570,239.684952 569.766663,237.981201 570.552490,236.148834 
	C571.261719,234.495285 572.166687,232.728104 570.530640,231.041443 
	C569.780334,230.267899 568.830994,229.787537 567.848389,230.342926 
	C566.032288,231.369431 565.758118,233.205048 565.710022,235.092194 
	C565.594788,239.610580 561.879333,243.834839 557.308472,244.649475 
	C556.692505,243.962479 556.412659,243.031265 556.921692,242.353973 
	C562.362305,235.114578 562.527100,225.750488 566.783936,218.024460 
	C568.233398,215.393799 568.279724,211.885910 572.652893,211.782639 
	C574.155151,211.747177 575.259155,209.866455 575.802185,208.125137 
	C575.054565,206.605759 573.213745,208.153137 572.136719,206.548203 
	C572.202942,204.480942 574.053833,203.219940 575.522278,201.769821 
	C576.965393,200.344696 578.079590,199.292023 577.203796,196.695267 
	C576.115112,193.467361 579.184692,192.830872 581.485413,192.801743 
	C585.301086,192.753403 587.814880,190.677948 588.483032,187.476532 
	C592.213745,169.598923 603.444397,154.836060 608.828125,137.657669 
	C612.609314,125.592453 617.496094,113.777191 620.596069,101.624252 
	C623.731812,89.330956 629.840698,78.238670 632.698181,65.984833 
	C633.787109,61.315079 636.520020,60.183365 640.763733,61.993580 
	C641.069946,62.124222 641.376343,62.290573 641.698425,62.342834 
	C652.580566,64.108345 657.538025,70.025421 658.792908,81.477280 
	C660.229004,94.583443 663.361084,107.578285 665.700500,122.141998 
	C669.643311,110.114174 673.139099,99.450935 676.632507,88.786880 
	C676.736145,88.470535 676.791504,88.137505 676.905579,87.825500 
	C682.036682,73.790779 678.447388,75.347359 693.404846,79.773102 
	C697.258911,80.913467 697.805115,82.809532 696.554565,86.435661 
	C690.801697,103.117668 685.266785,119.874924 679.668945,136.610306 
	C677.768555,142.291687 675.826721,147.961594 674.070557,153.687881 
	C673.055969,156.996216 671.369629,157.267929 668.089294,156.575577 
	C657.829102,154.409988 651.661194,149.845001 650.760254,138.080261 
	C649.762573,125.052605 645.702759,112.330841 644.505310,99.214302 
	C644.372253,97.756348 643.819763,96.336678 643.377258,94.559845 
	C641.197998,95.653084 641.160522,97.681992 640.636902,99.251450 
	C636.474915,111.726501 632.412415,124.234795 628.331543,136.736862 
	C627.565735,139.083282 627.190369,141.533600 624.099121,142.314178 
	C622.629272,142.685349 622.332520,144.637863 621.834534,146.022598 
	C617.777771,157.301834 613.787781,168.605118 609.731995,179.884720 
	C608.787231,182.512421 608.762634,184.924683 609.967468,187.573654 
	C611.764526,191.524811 612.086243,195.616562 609.477417,199.488998 
	C608.376648,201.122879 608.434143,202.852905 608.765259,204.753372 
	C610.048401,212.118530 609.160400,219.361389 607.025818,226.454117 
	C605.489014,231.560791 602.588318,235.793625 598.015015,238.659363 
	C593.446960,241.521744 590.364380,245.478653 588.477539,250.486420 
	C580.388611,271.954651 569.521912,292.300934 563.763123,314.748047 
	C560.930603,325.788879 553.825745,335.457153 551.299805,346.796722 
	C549.335815,355.613708 546.565979,364.149445 542.073608,372.030701 
	C539.839233,375.950806 540.233093,379.443298 542.588867,383.250092 
	C547.011108,390.396118 546.425903,394.514191 539.585938,399.481079 
	C533.148926,404.155365 529.903259,409.684204 531.389587,417.735809 
	C532.291260,422.620483 530.347229,426.942719 527.865845,430.962799 
	C523.561218,437.936981 521.032104,445.356079 521.290771,453.651215 
	C521.381226,456.554474 520.621399,459.443024 518.479126,461.446442 
	C509.494965,469.848053 508.388306,481.204346 506.254791,492.331238 
	C503.156738,508.488342 509.297485,522.378906 515.955139,536.303101 
	C517.811890,540.186279 518.936401,544.414490 520.506104,548.441772 
	C521.661682,551.406738 520.321228,552.736206 517.651306,553.569458 
	C512.208740,555.267822 508.806335,553.468567 507.458099,548.049622 
	C506.013519,542.243530 503.732880,540.286926 499.650513,541.353821 
	C499.170563,541.479248 498.285217,541.587097 498.273804,541.750793 
	C497.806274,548.473938 488.233032,547.813232 487.846588,554.735352 
	C487.704071,557.287598 485.120850,557.850220 483.002289,558.373840 
	C475.251373,560.289612 467.491119,562.167847 459.729523,564.040039 
	C458.927826,564.233398 457.527832,564.051453 457.358673,564.449158 
	C454.372467,571.469727 445.015137,573.159363 443.421844,581.422363 
	C442.473022,586.342896 438.210785,589.027161 434.698578,592.014526 
	C431.349121,594.863464 428.984406,597.885010 429.277435,602.611328 
	C429.486023,605.975098 427.201599,608.455078 425.409149,611.072449 
	C424.275269,612.728271 422.282349,614.097107 423.029724,617.773926 
	C426.702026,613.184692 431.451538,611.422424 435.184418,608.873169 
	C436.135498,607.019897 435.053467,605.880432 434.778290,604.630432 
	C433.157806,597.270142 435.512695,593.093201 442.835815,590.902771 
	C444.402740,590.434082 446.519745,589.077271 447.700378,591.462341 
	C448.703064,593.487854 447.313843,595.172668 445.801025,596.130310 
	C442.103241,598.470886 440.658234,601.263123 443.377686,605.336670 
	C441.284576,606.515137 438.644867,607.526245 440.640381,610.161255 
	C442.538818,612.668091 445.145447,615.027222 448.566956,614.138672 
	C451.025665,613.500183 451.688354,611.224915 451.284668,608.466125 
	C450.628418,603.981750 448.851685,599.508301 450.145081,594.985840 
	C452.083893,594.170044 452.881287,596.114746 454.593994,595.907776 
	C459.990295,595.255676 460.057129,595.490906 458.542084,601.249023 
	C465.048248,598.628723 464.385651,590.519653 469.877899,586.655884 
	C471.456543,590.832336 473.553162,592.325867 477.550903,590.309631 
	C483.439484,587.339722 486.353394,584.443604 485.680298,581.154297 
	C483.493256,580.920227 484.005096,583.955444 481.926697,584.127441 
	C479.472748,583.384766 477.456177,581.637451 477.367279,579.006470 
	C477.267456,576.050598 480.378143,575.721741 482.410889,574.993835 
	C487.744537,573.083679 493.211304,571.442810 498.981842,571.924683 
	C500.839081,572.079773 502.168732,571.621033 503.439728,570.345276 
	C505.360718,568.417236 508.029510,567.397217 510.260803,568.740417 
	C513.129517,570.467163 510.065796,572.846802 510.056549,574.628845 
	C517.219299,569.709778 522.315430,561.562683 531.205505,558.551270 
	C533.597107,561.689453 530.799805,563.235596 530.143250,565.462158 
	C533.010986,564.317688 535.094666,561.622070 538.600952,562.417908 
	C540.710693,567.801758 539.256958,571.170349 532.796021,571.610168 
	C536.436829,575.649719 536.927551,575.667542 539.260193,572.296997 
	C540.302429,570.791138 541.326965,569.273071 542.352234,567.755554 
	C545.851562,562.576294 545.632568,562.936035 551.096436,566.240112 
	C556.115601,569.275330 561.677429,567.682922 567.320435,566.241333 
	C569.735352,568.806641 569.911560,573.013306 573.203918,575.320190 
	C576.892212,574.006348 577.499451,571.509033 576.268921,567.999207 
	C573.751953,560.820068 568.925781,555.314941 563.277405,550.583984 
	C560.263733,548.059814 556.176270,549.679993 552.584595,549.366760 
	C547.132690,548.891235 545.314514,546.762146 547.754456,541.897461 
	C553.466064,530.509888 563.038269,521.937561 570.457764,510.241028 
	C572.346313,516.529358 569.674194,520.099182 567.695740,523.780212 
	C565.334229,528.173950 562.477783,532.365112 562.374878,537.598816 
	C562.333435,539.706360 561.809387,542.427185 564.650635,542.996460 
	C567.828552,543.633179 568.177673,540.837219 568.916931,538.600769 
	C569.812012,535.892639 569.820618,532.472717 573.852844,531.951294 
	C574.396484,531.881042 575.199890,530.686584 575.196960,530.015686 
	C575.171692,524.307312 580.279968,520.693298 581.073792,515.315796 
	C581.307312,513.733887 583.072266,513.199219 584.225037,512.269836 
	C586.497437,510.438019 589.223022,509.014526 590.499512,505.700226 
	C587.923035,505.072388 587.210754,507.210022 585.859070,508.070984 
	C584.726257,508.792542 583.532898,509.735382 582.309875,508.461029 
	C581.355713,507.466919 581.769775,506.197174 582.494324,505.250671 
	C584.701843,502.366730 586.898743,499.639709 587.991882,495.937988 
	C588.734863,493.422302 594.315674,493.750366 596.757874,496.090546 
	C599.087280,495.932556 600.114746,493.390228 602.772522,493.369629 
	C603.824463,496.532501 601.106323,498.634857 601.500366,501.583984 
	C604.562927,495.163818 612.929688,499.546906 616.449402,493.808716 
	C615.781006,493.469666 615.179199,493.262543 614.691345,492.901459 
	C610.755005,489.988068 606.894226,493.769836 602.990295,493.006927 
	C602.148132,490.880157 601.035706,488.796417 603.968567,487.198181 
	C605.568054,486.326630 605.568848,484.492310 606.056274,482.249146 
	C606.700073,481.273987 607.046692,480.926270 607.393311,480.578552 
M470.748077,473.459686 
	C475.235931,466.771027 476.599426,458.636017 480.646606,451.782227 
	C487.153168,440.763519 493.723206,429.820953 497.779205,417.565125 
	C499.177460,413.340027 499.295502,409.393860 496.988708,405.579346 
	C495.179657,402.587921 492.961182,401.813324 490.158081,404.647888 
	C487.440399,407.396149 485.090576,410.398193 483.188599,413.741486 
	C473.353790,431.028778 467.517273,449.703003 464.553284,469.262634 
	C463.895172,473.605560 463.246521,478.359528 465.624695,483.360046 
	C468.903839,480.564301 469.286163,477.141022 470.748077,473.459686 
M528.633179,355.102295 
	C521.801941,363.666443 515.581665,372.778717 506.610107,379.416321 
	C505.706787,380.084656 505.037354,381.123993 504.400360,382.084625 
	C503.404663,383.586151 503.218048,385.195557 504.331879,386.743408 
	C505.737427,388.696625 507.263489,387.543396 508.714966,386.812042 
	C513.044312,384.630798 517.519836,382.944763 522.356384,382.237823 
	C524.144104,381.976501 525.924561,381.484344 526.805664,379.498474 
	C531.182007,369.635620 536.421387,360.131470 539.245911,349.627625 
	C539.650208,348.124054 540.408386,346.412415 538.299866,345.044647 
	C534.418457,347.405731 531.913940,351.144958 528.633179,355.102295 
M387.458435,613.909302 
	C392.033051,609.417419 393.239624,603.102051 394.318695,597.492065 
	C395.515900,591.268188 397.463470,586.143433 401.835846,581.736206 
	C403.240601,580.320251 405.399078,579.298279 405.443939,576.770569 
	C400.612976,576.448181 398.559814,577.451416 394.637970,582.573120 
	C389.351288,589.477051 384.692657,596.941650 382.199188,605.195496 
	C380.276825,611.558716 377.230133,615.760925 371.018585,617.924316 
	C369.256927,618.537903 366.686584,619.936035 368.597198,622.209473 
	C370.055206,623.944275 372.483459,626.696655 375.276245,623.747742 
	C378.750214,620.079346 383.208466,617.712036 387.458435,613.909302 
M342.175232,702.471802 
	C340.043671,702.283203 339.553772,703.998596 339.519989,705.364929 
	C339.358643,711.891296 335.591278,715.995483 330.700500,719.574219 
	C328.499023,721.185181 326.278198,723.022095 326.123169,726.302979 
	C327.848816,726.205688 328.781708,724.317444 330.831299,725.297913 
	C331.864685,730.467957 334.559265,732.016785 338.712830,727.970642 
	C341.235962,728.434875 341.415985,731.817810 344.399414,731.325867 
	C343.853180,727.508789 345.570709,724.257629 346.761383,721.612183 
	C342.989807,718.807068 341.994751,715.412781 342.535126,711.420837 
	C342.925171,708.539429 344.664673,705.707214 342.175232,702.471802 
M481.271179,489.371735 
	C481.052582,491.058746 479.630615,493.270630 482.215515,494.030060 
	C484.199432,494.612854 484.921906,492.472717 485.646881,491.046753 
	C490.549042,481.404724 494.308929,471.277405 498.067200,461.160980 
	C498.868866,459.003021 499.780487,456.445587 496.694153,453.587769 
	C489.515930,464.699829 487.277893,477.521667 481.271179,489.371735 
M320.403595,708.338806 
	C320.812378,710.947266 321.620789,713.258118 324.714996,713.663391 
	C327.658234,714.048889 330.559998,713.724060 332.425934,711.210693 
	C334.606476,708.273621 336.890594,704.904236 334.557800,701.215454 
	C332.965393,698.697449 330.105560,697.807129 327.042542,699.029907 
	C323.164520,700.578186 320.817993,703.341003 320.403595,708.338806 
M559.587280,704.108398 
	C557.416931,705.172058 555.246582,706.235779 553.186279,707.245544 
	C552.899841,709.285156 553.762146,711.105103 552.844971,712.878540 
	C551.977661,714.555542 549.963745,715.740417 550.457581,718.039185 
	C556.346191,719.565491 563.294434,718.108337 564.157532,714.555542 
	C565.120178,710.592957 563.753723,706.776489 559.587280,704.108398 
M414.133514,520.294617 
	C412.803864,518.129944 410.901459,516.293701 408.470093,517.934143 
	C403.669403,521.173096 399.844177,525.708313 394.379517,528.370178 
	C397.701385,529.981628 400.697235,530.687134 403.874146,530.633545 
	C408.972870,530.547485 413.482605,526.418762 414.133514,520.294617 
M410.803619,603.353088 
	C412.404877,599.684692 417.813080,597.627075 415.976776,591.375366 
	C412.352875,593.930725 410.342285,597.275024 406.439301,597.869385 
	C405.273163,598.046997 404.801392,599.685852 405.625061,601.231567 
	C407.922943,605.544006 405.463837,608.070374 402.016388,610.104126 
	C400.776978,610.835205 399.058899,610.798401 398.184021,612.698547 
	C400.024750,615.276794 401.892059,614.735352 403.646118,612.600952 
	C405.969818,609.773499 408.159729,606.836121 410.803619,603.353088 
M347.694611,619.236450 
	C346.202179,619.304626 344.679230,619.209656 343.224915,619.481689 
	C341.333038,619.835510 340.490906,621.188904 341.946198,622.669495 
	C344.425873,625.192444 347.587799,627.406860 351.094604,627.013672 
	C353.973724,626.690979 357.064667,625.144592 358.060852,621.575867 
	C355.266266,618.671387 351.770264,619.547974 347.694611,619.236450 
M389.105194,560.999634 
	C389.042450,561.264648 388.979736,561.529602 388.916962,561.794617 
	C389.075287,561.789917 389.258514,561.836426 389.388367,561.773254 
	C399.482880,556.858032 409.262695,551.518677 416.935760,541.163086 
	C406.569519,547.488647 397.993835,554.074036 389.105194,560.999634 
M527.397095,633.954224 
	C530.344543,627.853638 533.291992,621.753113 536.239441,615.652588 
	C535.539856,615.344299 534.840271,615.036011 534.140686,614.727722 
	C528.780334,625.079346 524.285522,635.829407 520.600891,646.956909 
	C522.748352,642.841675 524.895813,638.726440 527.397095,633.954224 
M349.744995,708.420959 
	C350.685577,709.960876 349.468079,711.235046 349.180634,712.779968 
	C349.954987,712.437744 350.293274,711.862854 350.701874,711.343323 
	C353.081665,708.317627 355.343506,705.207397 354.351715,701.049133 
	C353.906036,699.180542 352.643280,697.648682 350.560608,697.738281 
	C348.291870,697.835938 348.194031,699.795837 348.360626,701.443054 
	C348.574036,703.552979 349.104553,705.630859 349.744995,708.420959 
M352.374634,591.969666 
	C348.190430,594.526672 344.006256,597.083679 339.822083,599.640686 
	C351.186157,596.008728 360.690186,589.452454 368.865356,580.817505 
	C363.570129,584.401489 358.274872,587.985535 352.374634,591.969666 
M559.540710,732.332581 
	C559.017578,732.537598 558.130066,732.192993 558.162537,733.752686 
	C567.164917,731.547668 575.430115,727.248047 584.560730,726.024780 
	C573.763000,725.110962 573.782471,725.145203 565.565979,729.818054 
	C563.855957,730.790466 561.942810,731.405762 559.540710,732.332581 
M383.916809,578.543091 
	C378.699768,580.816345 375.873657,585.403687 372.929138,589.926208 
	C377.131439,587.230164 381.067078,584.228088 384.995056,581.216003 
	C386.573181,580.005859 386.490997,579.108704 383.916809,578.543091 
M320.084991,689.028809 
	C317.084167,690.499023 314.479401,692.273315 314.329712,696.354614 
	C318.695160,696.880859 321.024170,694.576294 322.622101,691.317200 
	C323.497101,689.532654 322.932556,688.393250 320.084991,689.028809 
M402.429718,504.452606 
	C401.758087,503.620178 401.544220,502.128540 399.882019,502.686462 
	C398.668915,503.949524 398.432617,505.640442 397.930939,507.210510 
	C397.475708,508.635284 396.710266,510.417786 398.606079,511.105652 
	C400.574280,511.819763 402.090546,510.342743 403.153168,508.823486 
	C404.031708,507.567474 403.202454,506.265900 402.429718,504.452606 
M357.990448,693.496948 
	C359.544403,693.050598 360.626801,691.727051 359.311096,690.691772 
	C357.073792,688.931519 354.657837,686.536926 350.507660,688.470520 
	C352.620575,690.942993 354.641541,692.643250 357.990448,693.496948 
M334.484283,683.519714 
	C333.975098,680.916382 332.356476,681.264648 330.944458,682.472168 
	C328.994263,684.140015 327.090881,686.069946 329.453156,688.957153 
	C332.042725,688.072449 333.088989,685.994141 334.484283,683.519714 
M373.878540,545.781677 
	C376.734070,548.172363 377.534851,548.195740 382.124390,545.999512 
	C379.515381,545.238892 376.903381,545.315552 373.878540,545.781677 
M476.300354,523.135803 
	C476.052948,524.100708 475.754456,525.497070 477.351685,524.823364 
	C479.123627,524.076050 480.518097,522.616943 479.953156,520.203369 
	C478.202545,520.292175 477.482483,521.639465 476.300354,523.135803 
z"/>
<path fill="#000000" opacity="1.000000" stroke="none" 
	d="
M357.804565,421.194366 
	C357.394012,423.374268 355.942108,423.565918 354.718628,422.960419 
	C348.541016,419.903137 342.237213,423.391388 336.031097,422.456238 
	C334.657990,422.249329 333.314758,422.664276 333.198761,424.479889 
	C333.068542,426.518494 333.933411,427.987793 335.726349,428.972137 
	C343.494812,433.237427 351.717590,435.962860 360.604889,434.279358 
	C364.802063,433.484283 366.120178,434.647003 366.115021,438.544586 
	C366.107788,444.034088 367.322571,449.107208 371.385468,453.158173 
	C372.459839,454.229370 372.560822,455.329865 371.532990,456.678375 
	C367.597870,461.841248 360.687408,464.052582 354.432007,461.911011 
	C350.975189,460.727539 347.635834,459.165802 344.133026,458.159271 
	C337.487000,456.249481 331.345398,456.653259 326.424591,462.472778 
	C323.562988,465.856995 320.216583,468.666290 315.263458,466.962280 
	C314.902832,467.397552 314.609802,467.617767 314.497864,467.907837 
	C313.714783,469.937653 315.280914,473.140259 312.256866,473.936340 
	C309.682373,474.614044 307.554138,472.650421 305.610809,471.098663 
	C304.054657,469.855988 302.531891,468.518066 301.233307,467.015839 
	C296.190155,461.181915 290.588135,457.329865 282.159729,458.734650 
	C277.877075,459.448456 273.744415,457.078705 269.920258,454.997864 
	C241.942673,439.774506 233.987549,398.515015 254.375793,374.069092 
	C263.494720,363.135315 275.853149,358.077148 289.457916,355.730438 
	C299.195862,354.050781 308.994537,353.851776 318.637054,356.584442 
	C326.109833,358.702240 327.532806,360.439941 328.065430,368.372711 
	C328.225281,370.753845 329.870239,371.783508 331.300079,373.124756 
	C332.649811,374.390930 334.855103,374.910278 335.197052,377.536041 
	C332.845459,378.013184 331.188965,376.958374 329.541382,375.919312 
	C317.922485,368.591949 303.916901,371.861969 297.021973,383.518524 
	C291.049835,393.615021 293.325500,402.310577 303.524963,408.255524 
	C307.163452,410.376282 310.324890,413.018921 312.800446,416.977356 
	C315.672668,414.416718 318.067200,415.709137 320.563141,417.319611 
	C322.222534,418.390350 324.078766,419.208740 325.933105,419.913055 
	C329.186096,421.148621 330.983368,420.392426 329.754547,416.541107 
	C328.719391,413.296753 330.105133,411.722504 333.008514,410.442932 
	C335.994934,409.126801 338.720917,407.219727 341.737640,405.468628 
	C341.124756,404.744873 340.891388,404.271393 340.511505,404.054138 
	C338.623810,402.974396 335.381165,403.106384 335.819885,399.852692 
	C336.201660,397.021515 338.767059,396.102509 341.233124,395.343292 
	C343.844208,394.539429 346.497559,394.611420 349.156158,394.814392 
	C351.446930,394.989288 353.035095,396.095184 352.833649,398.597534 
	C352.195770,406.521698 355.028076,413.647858 357.804565,421.194366 
M297.261932,421.779541 
	C296.959930,421.753357 296.657288,421.709686 296.356659,421.720947 
	C296.314850,421.722504 296.209290,422.027588 296.258087,422.135864 
	C296.763947,423.258026 298.165222,424.162384 297.080170,425.659637 
	C292.150299,427.004364 286.806702,430.782654 283.715942,422.201233 
	C282.012482,424.785309 280.714935,426.308929 278.186188,427.326416 
	C283.722382,430.440887 289.017426,430.586365 294.263306,430.595581 
	C297.086975,430.600555 301.011841,432.084839 302.362030,428.722015 
	C303.762909,425.233032 299.418671,424.201477 297.261932,421.779541 
z"/>
<path fill="#000000" opacity="1.000000" stroke="none" 
	d="
M601.759155,880.205322 
	C596.836731,884.744812 590.756104,880.780701 584.940430,883.563171 
	C586.678528,874.152649 595.221863,878.143677 599.175964,874.386658 
	C594.119934,868.543884 592.984802,868.509155 588.169128,874.251282 
	C585.984558,876.856140 582.728760,877.935608 580.225647,880.101074 
	C579.177979,881.007385 577.351868,881.718384 576.242432,880.060547 
	C575.196838,878.498230 576.317505,877.289551 577.539551,876.252197 
	C583.175110,871.468262 586.519836,864.230103 593.734802,861.110046 
	C594.012268,860.990112 594.011108,860.225769 594.133606,859.784058 
	C588.318237,856.394775 582.178467,859.235596 580.399841,866.158569 
	C576.300598,866.792114 571.662170,866.309570 569.529968,871.415833 
	C569.004272,872.674744 567.171509,872.305542 565.884766,871.726624 
	C564.299744,871.013428 562.843262,870.064148 562.956360,868.095642 
	C563.270691,862.624634 563.475525,857.131653 564.161865,851.702820 
	C564.687378,847.546326 567.781555,845.154907 571.569397,843.589783 
	C570.928589,838.312012 569.366333,833.446655 568.036011,828.510254 
	C566.672791,823.451660 568.661011,820.489319 573.348999,819.779236 
	C576.160095,819.353455 578.276001,820.088806 579.221741,823.024231 
	C579.476379,823.814575 579.852173,824.565002 580.133301,825.347778 
	C583.367981,834.354370 583.366028,834.355042 592.737122,832.824402 
	C599.191833,831.770142 602.331177,833.449402 604.860413,839.465698 
	C607.767639,846.380798 609.874390,853.549805 611.551331,860.858154 
	C613.137573,867.771606 613.189087,867.759766 606.483398,868.534790 
	C606.577820,868.785706 606.738647,869.260742 606.761475,869.254150 
	C612.319763,867.661682 615.478088,869.584106 618.763550,874.651917 
	C622.504761,880.422791 626.606323,885.679932 627.634033,892.721130 
	C628.962891,901.825134 625.081299,908.765442 616.405029,912.020996 
	C609.180359,914.731934 601.723755,914.626099 594.252991,913.315002 
	C584.279541,911.564636 574.988098,908.291443 567.286011,901.323730 
	C560.538818,895.219910 561.040771,887.689819 562.510010,877.992310 
	C570.749756,887.034607 581.864441,884.761841 591.349915,888.332336 
	C591.691406,885.165344 594.434204,885.228943 597.067261,886.135986 
	C603.254700,888.267090 607.908020,884.076050 613.164978,882.483459 
	C614.839600,881.976196 614.930176,880.110840 614.071960,878.649292 
	C612.913269,876.676147 611.301270,875.327698 608.754578,875.899841 
	C606.392700,876.430420 604.656494,878.047119 602.365601,879.648315 
	C602.001282,879.961609 601.759155,880.205322 601.759155,880.205322 
z"/>
<path fill="#000000" opacity="1.000000" stroke="none" 
	d="
M818.493774,218.470978 
	C828.853271,209.559296 839.021790,200.965591 848.988281,192.143707 
	C851.855225,189.606049 853.664978,189.646286 856.368713,192.448105 
	C863.285339,199.615753 871.329651,205.692612 876.957764,214.103058 
	C881.499207,220.889496 883.893066,228.210129 881.729736,236.298187 
	C878.848999,247.068359 868.223022,253.803589 856.672668,252.098572 
	C853.072571,251.567123 851.515503,252.108490 850.959412,255.902939 
	C850.099426,261.770630 847.475159,266.974030 843.652954,271.532654 
	C839.842346,276.077301 836.577942,281.028625 833.315613,286.533234 
	C828.017029,282.601288 824.516968,278.010406 821.276306,273.239471 
	C819.864075,271.160309 820.970276,268.950317 822.231018,267.191650 
	C825.231628,263.006195 828.546326,259.045013 831.524292,254.844513 
	C835.898865,248.674240 835.893066,243.274475 831.988586,238.880997 
	C829.807739,236.426987 827.896484,235.998611 825.302856,238.393143 
	C820.171143,243.130951 814.729309,247.535736 809.651855,252.328476 
	C806.344666,255.450150 803.964417,255.010056 801.672791,251.351501 
	C800.792969,249.946930 799.778809,248.609787 798.700500,247.349136 
	C793.301392,241.036835 793.231262,240.988129 799.546814,235.254211 
	C805.705688,229.662506 811.994324,224.213715 818.493774,218.470978 
M860.300964,233.921478 
	C865.911682,228.206833 864.973328,221.449936 857.952393,215.652222 
	C855.804138,213.878204 854.067749,213.498535 851.891724,215.524811 
	C848.969727,218.245651 845.894287,220.803696 842.846863,223.386887 
	C841.576660,224.463547 841.010803,225.433182 841.857849,227.217072 
	C845.333069,234.535858 852.273438,237.394531 860.300964,233.921478 
z"/>
<path fill="#000000" opacity="1.000000" stroke="none" 
	d="
M199.346710,255.642120 
	C206.038727,257.048676 210.733368,255.388412 213.717484,250.773239 
	C216.758987,246.069305 216.404785,239.969116 212.463058,234.931396 
	C206.336014,227.100754 197.869263,221.812714 190.583603,215.236328 
	C185.639236,210.773331 180.493591,206.527954 175.341614,202.302704 
	C172.977753,200.364044 172.635147,198.685974 174.485626,196.007874 
	C182.913483,183.810776 183.671570,183.599548 194.675964,192.793472 
	C203.623428,200.268860 213.049149,207.176285 221.421600,215.336502 
	C225.147491,218.967957 228.469635,222.921097 230.834473,227.564819 
	C237.327148,240.314209 234.158844,255.029510 222.621704,266.174042 
	C211.969009,276.464233 198.223892,278.372620 185.473282,270.920441 
	C173.867554,264.137421 164.876770,254.070175 154.627670,245.579178 
	C151.549377,243.028946 148.732178,240.132141 145.494476,237.814423 
	C142.144165,235.416077 142.369049,233.142899 144.784058,230.399078 
	C146.875015,228.023438 149.070129,225.718292 150.945999,223.180069 
	C153.107452,220.255432 155.129166,219.964920 157.912750,222.417892 
	C166.660751,230.126770 175.587280,237.633499 184.312622,245.367477 
	C188.815369,249.358627 193.158783,253.493149 199.346710,255.642120 
z"/>
<path fill="#000000" opacity="1.000000" stroke="none" 
	d="
M747.318604,198.295502 
	C744.050232,188.863647 745.752502,180.253571 750.889099,172.667313 
	C760.509277,158.459259 771.737671,145.462143 782.766296,132.332321 
	C784.550354,130.208344 786.336914,130.219620 788.360535,131.835083 
	C788.490295,131.938705 788.641846,132.016129 788.766663,132.124771 
	C801.908142,143.566864 801.630920,138.669495 791.763306,152.175964 
	C785.469971,160.790039 778.197998,168.590637 771.285217,176.690704 
	C768.347900,180.132553 766.057678,183.933395 765.066528,188.486664 
	C764.057556,193.121246 764.993958,197.174515 768.398132,200.356155 
	C772.108276,203.823685 776.637817,204.513596 781.429871,202.907990 
	C786.906433,201.073044 790.522400,196.876617 793.976135,192.579590 
	C802.109497,182.460419 810.262878,172.354202 818.192322,162.076202 
	C820.389221,159.228622 822.072937,159.258316 824.730347,161.281799 
	C839.646484,172.639603 836.758240,169.720078 827.696533,181.563248 
	C820.620361,190.811310 813.091187,199.721695 805.569336,208.618073 
	C787.735962,229.710464 757.682495,224.523178 747.318604,198.295502 
z"/>
<path fill="#000000" opacity="1.000000" stroke="none" 
	d="
M463.599213,92.512009 
	C469.472107,103.881279 475.167450,114.926033 481.127045,126.483261 
	C474.706146,129.034988 468.721588,129.348114 462.946686,130.485107 
	C461.194031,130.830185 460.291779,129.308929 459.561432,127.997856 
	C457.699677,124.655739 455.559967,121.406578 454.196899,117.864174 
	C452.476624,113.393379 449.671753,112.105766 445.285461,113.362923 
	C444.010956,113.728203 442.689636,113.933159 441.386230,114.194000 
	C427.977448,116.877449 430.845093,114.571777 429.588959,127.509773 
	C428.446686,139.275238 428.126495,137.245407 419.104309,138.905853 
	C407.285248,141.080994 408.742279,141.982391 409.826630,130.881424 
	C412.102081,107.586761 415.027283,84.356064 417.548950,61.084290 
	C417.851471,58.292442 418.858765,56.905750 421.628937,56.431820 
	C427.357910,55.451679 433.067352,54.340961 438.754700,53.141079 
	C441.593231,52.542217 442.586975,54.466312 443.742981,56.304379 
	C451.018585,67.872597 456.927063,80.190811 463.599213,92.512009 
M443.924530,96.522614 
	C441.320740,89.476448 438.039673,82.800591 433.240387,76.762657 
	C432.561859,84.563843 430.599915,92.099052 431.630829,100.093208 
	C436.052612,99.385452 440.279114,99.854927 443.924530,96.522614 
z"/>
<path fill="#000000" opacity="1.000000" stroke="none" 
	d="
M837.121826,285.733948 
	C861.746582,279.789948 885.994629,273.953247 910.223083,268.036652 
	C913.258911,267.295319 915.379944,268.024414 916.923889,270.757568 
	C919.626282,275.541382 922.286316,280.357300 925.210144,285.004944 
	C927.038391,287.911163 925.315674,289.653809 923.704956,291.569641 
	C909.339294,308.656738 894.288940,325.128204 878.795776,341.191681 
	C876.094788,343.992035 874.156372,347.671112 869.793030,349.675018 
	C866.778625,344.596405 863.799316,339.661346 860.914795,334.671448 
	C859.898743,332.913635 860.916931,331.438446 862.051331,330.165924 
	C865.042480,326.810638 868.006714,323.424042 871.147705,320.212280 
	C873.196899,318.116882 873.452881,316.312927 871.992249,313.610931 
	C864.038086,298.896240 864.097534,298.803833 847.654968,303.147461 
	C844.663391,303.937714 842.588623,303.627869 841.041138,300.697052 
	C839.177551,297.167694 837.032410,293.787598 835.031372,290.329987 
	C833.771179,288.152313 834.086670,286.532806 837.121826,285.733948 
M896.889465,288.737122 
	C890.944336,290.449371 884.999146,292.161621 878.724060,293.968872 
	C880.662659,298.556335 882.580872,302.092529 885.851013,305.329132 
	C892.386475,300.332886 897.323792,294.207397 901.891296,287.587219 
	C900.460205,287.894836 899.029053,288.202454 896.889465,288.737122 
z"/>
<path fill="#000000" opacity="1.000000" stroke="none" 
	d="
M225.194580,149.166534 
	C229.562637,145.523300 233.728775,142.189453 237.719818,138.657730 
	C240.119629,136.534119 242.174255,136.714081 244.135193,139.009811 
	C246.188339,141.413483 248.096329,143.940506 250.111969,146.377029 
	C251.850998,148.479187 250.315506,149.817276 248.938202,150.974472 
	C243.839691,155.258270 238.593521,159.367615 233.534760,163.696671 
	C231.857666,165.131882 228.909760,166.477814 229.872070,169.093536 
	C231.190536,172.677307 233.801254,175.703461 237.156967,177.690155 
	C238.595383,178.541794 239.961121,177.037292 241.105164,176.119385 
	C246.042664,172.157837 251.008514,168.226196 255.820145,164.115234 
	C258.698303,161.656204 260.683533,161.790665 263.218475,164.843628 
	C270.494873,173.606934 270.603333,173.482834 261.701263,180.509430 
	C258.041260,183.398315 254.518066,186.461548 250.837173,189.322617 
	C248.518600,191.124786 248.076965,192.884018 250.211929,195.113098 
	C260.041351,205.375870 255.605942,206.883865 267.694458,197.222412 
	C271.858643,193.894272 275.992004,190.521988 280.024170,187.036484 
	C282.240295,185.120819 284.100128,185.044556 285.949402,187.381897 
	C286.155701,187.642654 286.396881,187.875565 286.617188,188.125534 
	C294.236481,196.769470 294.287384,196.830643 285.474457,204.188507 
	C276.140961,211.981003 266.663879,219.601456 257.324554,227.387070 
	C254.932648,229.381042 253.183868,229.470749 251.085876,226.915359 
	C235.758682,208.246567 220.372787,189.625641 204.921860,171.059128 
	C202.905457,168.636139 203.402878,167.072113 205.624741,165.274414 
	C212.100266,160.035019 218.493454,154.693848 225.194580,149.166534 
z"/>
<path fill="#000000" opacity="1.000000" stroke="none" 
	d="
M597.565674,118.109283 
	C604.663269,119.507393 604.668396,119.514984 603.557129,126.391655 
	C602.047668,135.732025 602.055664,135.681564 592.805786,134.211273 
	C580.661255,132.280869 568.525635,130.265350 556.337769,128.652359 
	C551.902100,128.065323 551.286987,125.757584 551.812683,122.149040 
	C553.824524,108.340904 555.766968,94.522499 557.828003,80.721771 
	C559.201599,71.523849 560.848816,62.365696 562.138062,53.156776 
	C562.686157,49.241962 564.606995,48.259365 568.246704,48.830940 
	C581.381653,50.893627 594.537170,52.826809 607.689514,54.777775 
	C610.793701,55.238239 612.315491,56.384315 611.809143,60.056824 
	C610.194397,71.766777 610.337158,71.810074 598.741394,70.221001 
	C593.800110,69.543869 588.845947,68.898003 583.953674,67.949211 
	C580.918152,67.360504 579.531921,68.355217 579.234436,71.326775 
	C579.119019,72.479790 578.721863,73.601761 578.546875,74.752129 
	C577.657532,80.598694 578.439636,81.709122 584.425415,82.661659 
	C590.005798,83.549667 595.599731,84.367325 601.204712,85.081886 
	C604.678833,85.524780 606.131653,87.045769 605.512390,90.739494 
	C603.544922,102.475792 605.230225,102.234146 593.333008,100.533249 
	C589.056030,99.921768 584.782043,99.274513 580.527405,98.525871 
	C576.876160,97.883423 574.734131,99.039673 574.369568,102.959900 
	C573.221008,115.306686 570.073120,113.932167 583.796631,116.218460 
	C588.223145,116.955910 592.696045,117.414551 597.565674,118.109283 
z"/>
<path fill="#000000" opacity="1.000000" stroke="none" 
	d="
M530.553101,96.430542 
	C527.719971,105.539062 524.930725,114.245171 522.327209,123.006500 
	C521.435486,126.007423 519.844299,127.419136 516.626404,127.321991 
	C512.137695,127.186485 507.636963,127.270546 503.146851,127.423035 
	C500.282715,127.520302 498.532410,126.564018 497.555908,123.678734 
	C489.453339,99.738625 481.248932,75.832962 473.071869,51.918076 
	C472.686615,50.791321 472.509369,49.665535 473.101868,47.956768 
	C478.624603,47.594578 484.371979,47.143074 490.127869,46.869541 
	C493.324188,46.717648 493.647064,49.509613 494.300262,51.634960 
	C498.938080,66.726120 503.487396,81.844482 508.076233,96.950722 
	C508.588715,98.637733 509.172302,100.303146 510.143860,103.259651 
	C512.881165,93.068451 515.243530,84.146011 517.678711,75.243484 
	C519.914734,67.069237 522.349487,58.947166 524.444519,50.737755 
	C525.190002,47.816742 526.531677,46.569191 529.570435,46.554207 
	C533.219177,46.536217 536.861816,45.983234 540.514221,45.831944 
	C545.375793,45.630558 546.283691,46.710239 544.832947,51.359810 
	C540.178406,66.277214 535.400269,81.156059 530.553101,96.430542 
z"/>
<path fill="#000000" opacity="1.000000" stroke="none" 
	d="
M126.575500,312.894897 
	C114.057640,308.316345 108.097717,296.515228 111.237389,283.332672 
	C113.698250,273.000183 120.063057,265.234314 127.485390,258.115967 
	C129.402191,256.277649 131.284943,256.181000 133.151764,258.046387 
	C135.620804,260.513519 138.026245,263.044739 140.442291,265.564423 
	C142.272308,267.472961 141.013245,268.906921 139.608765,270.205017 
	C137.289566,272.348602 134.757355,274.279175 132.575821,276.550110 
	C129.341751,279.916718 127.293648,283.861603 128.287613,288.750244 
	C129.059906,292.548584 131.193008,294.207642 135.144852,292.872620 
	C138.679001,291.678711 141.599792,289.478668 144.582367,287.356110 
	C147.832321,285.043304 151.008041,282.601227 154.405609,280.525696 
	C162.673599,275.474884 171.233017,275.231873 179.370514,280.507812 
	C187.851593,286.006470 191.053452,294.443939 190.084167,304.244995 
	C188.684372,318.399231 179.751999,327.982666 169.476303,336.600555 
	C167.975784,337.859009 166.418900,337.742493 164.920273,336.593079 
	C163.998138,335.885864 163.097351,335.141846 162.251038,334.346222 
	C154.635925,327.187225 154.659729,327.205780 162.528870,320.477478 
	C166.729935,316.885468 170.661011,313.082123 172.174789,307.455963 
	C173.079498,304.093567 172.553940,301.157196 169.894562,298.831787 
	C167.236008,296.507080 164.357513,297.080109 161.513733,298.518341 
	C157.465393,300.565887 154.106125,303.592712 150.605911,306.391357 
	C143.632584,311.967041 135.973969,314.855530 126.575500,312.894897 
z"/>
<path fill="#000000" opacity="1.000000" stroke="none" 
	d="
M292.839783,155.359894 
	C289.057220,155.227295 285.728851,155.693817 282.440918,154.784760 
	C265.415161,150.077393 260.078033,131.041977 272.064941,116.980301 
	C279.139648,108.681084 288.716888,104.474998 299.077179,101.873306 
	C301.508453,101.262764 303.481598,102.072350 304.247742,104.529991 
	C305.332550,108.009758 306.322052,111.539574 307.019501,115.112953 
	C307.526978,117.712944 305.217987,117.935562 303.466858,118.275261 
	C299.043182,119.133400 294.682373,120.143547 290.713684,122.392052 
	C286.739563,124.643631 283.938812,127.847816 285.540253,132.549942 
	C287.092651,137.108109 291.472626,136.786804 295.301636,136.437225 
	C299.928101,136.014847 304.505493,135.045425 309.132935,134.645462 
	C320.947998,133.624222 328.867065,137.623642 333.272858,146.586014 
	C337.945435,156.091141 336.212982,167.897583 328.838837,175.855530 
	C320.518250,184.834824 309.721619,188.802902 297.995392,190.809280 
	C296.805817,191.012817 295.529633,191.178772 294.957092,189.844818 
	C293.182739,185.710556 291.772858,181.427994 291.206055,176.967285 
	C290.951752,174.966263 292.896332,174.877197 294.385864,174.644211 
	C298.508179,173.999405 302.515778,172.913025 306.381409,171.345154 
	C310.347412,169.736603 313.606537,167.261108 315.748413,163.463516 
	C318.849579,157.965073 316.918854,154.100189 310.578339,153.394623 
	C307.769958,153.082108 304.954681,153.227814 302.145874,153.861938 
	C299.236908,154.518723 296.258759,154.869034 292.839783,155.359894 
z"/>
<path fill="#000000" opacity="1.000000" stroke="none" 
	d="
M341.152069,140.782898 
	C327.455750,122.962746 327.101776,99.986671 340.248047,85.299248 
	C349.935333,74.476295 362.825592,70.478699 376.707062,68.822586 
	C378.529846,68.605125 379.795746,69.194344 380.426239,71.247986 
	C381.630829,75.171570 381.323792,79.176987 381.425354,83.153069 
	C381.478210,85.223030 379.676514,85.304047 378.154633,85.316277 
	C374.784912,85.343353 371.554718,86.103279 368.361694,87.067474 
	C354.054993,91.387619 347.866608,102.561897 351.816101,116.916718 
	C356.581940,134.238647 373.223297,141.103088 388.813141,132.176956 
	C389.246826,131.928665 389.654205,131.623398 390.108765,131.424423 
	C392.926819,130.190826 395.256958,125.892570 398.139069,127.441483 
	C401.871124,129.447205 403.431946,134.092056 405.319153,137.987030 
	C406.155182,139.712418 405.079865,140.826981 403.805176,141.760788 
	C390.999512,151.141907 377.214874,156.985794 360.915985,153.320786 
	C352.994354,151.539505 346.623291,147.168686 341.152069,140.782898 
z"/>
<path fill="#000000" opacity="1.000000" stroke="none" 
	d="
M738.891846,130.823898 
	C730.697205,145.725723 722.580017,160.258255 714.748840,174.943344 
	C712.791382,178.614075 710.935852,179.466507 707.441833,177.040787 
	C704.993896,175.341339 702.312561,173.909698 699.584106,172.699768 
	C696.051514,171.133194 695.425049,169.216461 697.367554,165.748718 
	C704.444153,153.115372 711.291870,140.353760 718.217712,127.636047 
	C719.969055,124.419922 721.646423,121.162773 723.438965,117.970039 
	C724.852844,115.451797 724.388733,113.542686 721.854370,112.151527 
	C718.353577,110.229851 714.924927,108.156029 711.325317,106.441399 
	C708.353271,105.025719 707.280518,103.396271 709.028076,100.241814 
	C716.179626,87.332710 713.248047,88.447655 725.288452,94.792625 
	C738.687622,101.853638 751.876282,109.314568 765.290710,116.345627 
	C768.791504,118.180550 769.375854,120.008377 767.516052,123.341454 
	C760.590271,135.753677 762.784668,134.142014 751.721069,128.486099 
	C751.128967,128.183395 750.569885,127.816696 749.989014,127.491096 
	C742.964417,123.552864 742.964111,123.553406 738.891846,130.823898 
z"/>
<path fill="#000000" opacity="1.000000" stroke="none" 
	d="
M483.821655,955.910339 
	C479.725098,961.933350 481.756775,968.732971 480.412323,974.987854 
	C479.683868,978.376770 479.650208,981.919495 479.366516,985.398010 
	C479.201935,987.416138 478.759216,989.125366 476.202850,988.843323 
	C473.951385,988.594910 472.463257,987.596680 472.682770,984.992004 
	C473.226898,978.534912 473.729736,972.074219 474.238464,965.614136 
	C474.394958,963.626831 474.455231,961.630188 474.667389,959.649353 
	C475.083313,955.766052 473.334808,954.026367 469.503204,954.276245 
	C467.160736,954.429016 465.007904,953.593933 462.302032,952.515381 
	C460.949158,960.422241 459.658417,967.901550 458.395569,975.385620 
	C458.008392,977.680115 457.663269,979.983032 457.362854,982.290405 
	C457.128815,984.087891 457.348724,986.131775 454.733002,986.363892 
	C452.212372,986.587646 450.255249,986.038391 449.136566,983.350952 
	C446.131104,976.130798 442.932892,968.991028 439.836517,961.808472 
	C439.326843,960.626160 439.245392,959.181091 437.383972,958.594788 
	C435.221710,963.326111 435.539581,968.550659 434.394196,973.444946 
	C433.864746,975.707275 433.644257,978.040588 433.237793,980.333557 
	C432.943970,981.991211 432.164398,983.173706 430.218170,982.805115 
	C428.510620,982.481567 426.684265,981.923828 426.980927,979.761719 
	C428.664642,967.491211 430.313354,955.208313 432.918060,943.302917 
	C437.712372,942.808899 440.013641,944.659790 441.532990,948.440002 
	C444.624481,956.131836 448.091827,963.672607 451.745239,972.058105 
	C454.311676,964.723145 454.346619,957.749390 455.547607,951.017883 
	C456.288788,946.863525 457.847321,946.278442 461.689117,947.603027 
	C465.650177,948.968750 470.013550,947.749207 474.223541,948.465637 
	C479.118896,949.298706 484.157074,949.270081 489.125153,949.707947 
	C491.472473,949.914795 494.247925,950.153748 493.786194,953.480957 
	C493.370422,956.477173 490.727844,955.909119 488.590485,955.846802 
	C487.108093,955.803589 485.625549,955.764526 483.821655,955.910339 
z"/>
<path fill="#000000" opacity="1.000000" stroke="none" 
	d="
M416.332916,452.237610 
	C410.199921,451.801849 404.638702,453.000702 399.043060,453.808533 
	C391.655396,454.875122 388.901642,453.510590 385.329437,446.935272 
	C384.344666,445.122559 382.525177,444.709442 380.753937,444.234283 
	C377.997589,443.494781 377.440796,441.924072 378.616302,439.357849 
	C381.456238,433.158081 385.478485,428.279083 392.501190,426.819183 
	C394.687073,426.364746 396.129608,425.530365 396.754333,423.265869 
	C397.675140,419.928192 400.639954,419.138367 403.442566,419.035400 
	C406.392578,418.927032 409.495636,419.322876 410.663116,423.025177 
	C410.993866,424.074066 411.902771,424.990173 412.687012,425.837097 
	C414.940948,428.271088 417.395081,430.547333 413.049561,433.386963 
	C411.903381,434.135986 412.163696,435.795013 412.082336,437.178680 
	C413.535034,438.649200 417.069336,438.137238 416.465973,441.673401 
	C414.942627,443.161530 412.175140,442.226318 410.843353,444.448090 
	C413.996826,447.133453 419.656189,446.243225 420.959808,451.491760 
	C419.721405,453.091217 418.135376,452.104309 416.332916,452.237610 
M388.064392,436.284668 
	C386.574036,436.772705 384.923859,437.085449 384.586029,439.337860 
	C388.979523,440.132538 391.052277,434.979004 395.272156,436.328003 
	C392.942078,435.046783 390.852631,435.626190 388.064392,436.284668 
z"/>
<path fill="#000000" opacity="1.000000" stroke="none" 
	d="
M413.751129,970.155640 
	C413.485931,968.434204 413.362823,967.103088 413.000519,965.840637 
	C412.207275,963.076904 410.516693,960.852234 407.530579,960.792603 
	C404.332306,960.728699 404.534241,963.869873 403.874573,965.931335 
	C403.170746,968.130859 402.820312,970.445190 402.343719,972.715271 
	C401.893158,974.861389 401.215759,976.570129 398.400635,975.839478 
	C395.930450,975.198425 395.230225,973.606873 395.737640,971.355469 
	C397.486938,963.593750 399.297516,955.845825 401.086884,948.093140 
	C401.310699,947.123291 401.341736,946.038757 401.815948,945.209778 
	C403.442566,942.365906 401.399323,937.168457 406.969757,936.851562 
	C414.761108,936.408142 424.236633,941.455566 426.217773,946.993103 
	C427.856628,951.573914 426.290039,955.762146 421.358124,959.362610 
	C419.888275,960.435669 418.969574,961.188843 419.614868,963.338867 
	C421.219086,968.684021 420.138306,974.172668 420.261597,979.810181 
	C416.876404,980.750854 414.868896,980.223999 414.605621,976.490784 
	C414.465942,974.510132 414.066772,972.547729 413.751129,970.155640 
M408.820160,945.479126 
	C408.316986,947.562500 407.748444,949.632935 407.334686,951.733948 
	C407.079224,953.031250 406.842651,954.703125 408.421631,955.181213 
	C411.841278,956.216797 415.380035,956.500549 418.164307,953.670166 
	C420.117188,951.684814 420.592834,948.871277 418.637726,946.933777 
	C416.142761,944.461121 413.131409,941.842285 408.820160,945.479126 
z"/>
<path fill="#000000" opacity="1.000000" stroke="none" 
	d="
M608.774597,982.242920 
	C599.448059,981.359802 594.945007,976.615479 593.416687,966.529114 
	C591.842590,956.140625 598.122498,944.597778 606.970947,941.832214 
	C608.894226,941.231079 611.301086,939.855652 612.539856,942.860229 
	C613.761292,945.822815 611.937622,946.927673 609.406067,947.842896 
	C605.394836,949.293152 602.027161,951.579590 601.002441,956.701355 
	C606.714600,956.008911 612.375916,953.742676 617.268555,958.104553 
	C619.457581,960.056152 620.819519,962.490295 621.247070,965.396790 
	C622.435120,973.473083 618.048279,979.572998 608.774597,982.242920 
M601.215454,968.319946 
	C601.297852,970.222778 602.071777,971.859070 603.225830,973.319885 
	C606.242432,977.138367 610.723999,977.439331 613.324890,973.940613 
	C615.361938,971.200562 614.965698,968.289490 613.428589,965.501587 
	C611.969604,962.855652 609.800232,961.030945 606.586975,961.504395 
	C603.238342,961.997803 601.218811,963.957031 601.215454,968.319946 
z"/>
<path fill="#000000" opacity="1.000000" stroke="none" 
	d="
M505.162537,972.280029 
	C506.995483,959.015015 511.798492,953.498413 522.941345,951.873413 
	C524.792664,951.603394 527.556641,950.365356 528.152588,953.761108 
	C528.694580,956.849304 526.461548,957.087158 524.165527,957.485962 
	C519.812256,958.242065 516.013672,959.950195 514.196716,964.681213 
	C516.134033,964.681213 517.746704,964.654480 519.358154,964.685852 
	C526.339722,964.822021 531.679688,969.507080 532.329346,976.046387 
	C533.033325,983.132019 528.445496,989.181580 521.085632,990.872253 
	C514.885742,992.296570 508.855133,988.875000 506.527405,982.491577 
	C505.381256,979.348267 505.017090,976.047607 505.162537,972.280029 
M512.586426,979.735535 
	C514.919922,984.863770 517.715393,986.602417 520.960693,984.943909 
	C524.306030,983.234253 526.419189,977.076477 524.810974,973.724060 
	C523.254883,970.480225 519.516235,969.360840 515.922791,971.032288 
	C512.415283,972.663818 512.141418,975.688416 512.586426,979.735535 
z"/>


<path fill="#000000" opacity="1.000000" stroke="none" 
	d="
M600.109253,821.776184 
	C599.736755,824.537781 598.291931,824.865845 596.630249,823.558044 
	C595.305359,822.515320 595.166504,820.640442 596.465454,819.638184 
	C598.352051,818.182251 599.395081,819.718933 600.109253,821.776184 
z"/>
</svg>