<svg version="1.1" id="Layer_1" xmlns="http://www.w3.org/2000/svg" xmlns:xlink="http://www.w3.org/1999/xlink" x="0px" y="0px"
	 width="100%" viewBox="0 0 64 64" enable-background="new 0 0 64 64" xml:space="preserve">
<path fill="#FEFEFE" opacity="1.000000" stroke="none" 
	d="
M65.000000,52.000000 
	C65.000000,56.311386 65.000000,60.622772 64.999985,64.940216 
	C43.666618,64.946266 22.333273,64.946266 1.000000,64.946266 
	C1.000000,60.912796 1.000000,56.933060 1.339491,52.503708 
	C1.905722,52.065830 2.132463,52.077572 2.424575,52.391911 
	C3.947900,52.769737 5.405853,52.844963 7.093022,53.299126 
	C13.879265,53.777821 20.436291,53.877579 27.378109,53.994869 
	C28.531616,53.984871 29.300335,53.957344 30.513788,53.955391 
	C32.564087,53.980961 34.169647,53.980961 36.278145,53.980961 
	C36.278145,47.912579 36.278145,42.344658 36.278145,36.000000 
	C46.187016,36.000000 55.593506,36.000000 65.000000,36.000000 
	C65.000000,36.444447 65.000000,36.888889 64.557198,37.827400 
	C59.203083,38.326897 54.291775,38.332333 49.023289,38.208591 
	C48.114864,38.713219 47.563618,39.347019 46.657326,39.873291 
	C44.726112,39.495541 43.149944,39.225319 41.573772,38.955097 
	C47.594086,43.896748 53.736744,48.059200 60.086475,51.877289 
	C61.307453,52.611462 63.341202,51.993946 65.000000,52.000000 
M38.558342,49.698799 
	C38.688900,51.083752 38.819462,52.468704 38.928314,53.623375 
	C45.468300,53.623375 51.455734,53.623375 58.437046,53.623375 
	C51.400986,49.078396 45.252682,45.106869 38.558079,40.782459 
	C38.558079,43.905384 38.558079,46.346233 38.558342,49.698799 
z"/>
<path fill="#FFFFFF" opacity="1.000000" stroke="none" 
	d="
M1.000000,14.000000 
	C1.000000,9.688616 1.000000,5.377231 1.000020,1.059787 
	C22.333382,1.053728 43.666721,1.053728 65.000000,1.053728 
	C65.000000,5.087196 65.000000,9.066936 64.756180,13.432640 
	C64.094070,13.512085 63.675781,13.205566 62.980301,12.697987 
	C61.164669,12.661655 59.626221,12.826384 57.852036,12.622206 
	C51.410206,12.174923 45.204121,12.096547 38.614601,12.000618 
	C37.465172,12.011258 36.699173,12.039453 35.515400,12.041628 
	C33.423080,12.027567 31.748541,12.039524 29.692013,12.029827 
	C28.544998,12.009765 27.779970,12.011356 26.544899,12.003376 
	C20.074966,12.013844 14.075078,12.033882 7.685200,12.032324 
	C6.184897,12.440372 5.074584,12.870017 3.653780,13.245564 
	C2.562191,13.460976 1.781095,13.730488 1.000000,14.000000 
z"/>
<path fill="#FF4B55" opacity="1.000000" stroke="none" 
	d="
M30.073999,12.051480 
	C31.748541,12.039524 33.423080,12.027567 35.574661,12.501092 
	C36.051704,18.432650 36.051704,23.878725 36.051704,30.000000 
	C46.117443,30.000000 55.558720,30.000000 65.000000,30.000000 
	C65.000000,31.714357 65.000000,33.428715 65.000000,35.571537 
	C55.593506,36.000000 46.187016,36.000000 36.278145,36.000000 
	C36.278145,42.344658 36.278145,47.912579 36.278145,53.980961 
	C34.169647,53.980961 32.564087,53.980961 30.453743,53.496246 
	C29.948963,47.565750 29.948963,42.119976 29.948963,36.000000 
	C19.882050,36.000000 10.441025,36.000000 1.000000,36.000000 
	C1.000000,34.285641 1.000000,32.571281 1.467189,30.387278 
	C11.170206,29.917631 20.406034,29.917631 30.073999,29.917631 
	C30.073999,23.346212 30.073999,17.698847 30.073999,12.051480 
z"/>
<path fill="#E6D5DD" opacity="1.000000" stroke="none" 
	d="
M65.000000,29.625000 
	C55.558720,30.000000 46.117443,30.000000 36.051704,30.000000 
	C36.051704,23.878725 36.051704,18.432650 35.992439,12.527111 
	C36.699173,12.039453 37.465172,12.011258 38.508110,12.449848 
	C38.785049,16.720177 38.785049,20.523724 38.785049,24.510939 
	C41.920906,23.094687 44.387993,21.980474 46.846851,21.215797 
	C44.741520,23.248159 42.644413,24.930986 40.547306,26.613813 
	C40.819355,27.022009 41.091400,27.430204 41.363449,27.838400 
	C48.909374,23.257683 56.814243,19.254751 63.257488,12.899048 
	C63.675781,13.205566 64.094070,13.512085 64.756180,13.909302 
	C65.000000,14.750000 65.000000,15.500000 64.642685,16.646225 
	C59.324272,20.088875 54.363171,23.135302 49.402069,26.181730 
	C49.540104,26.454487 49.678135,26.727243 49.816166,27.000000 
	C54.877445,27.000000 59.938721,27.000000 65.000000,27.000000 
	C65.000000,27.750000 65.000000,28.500000 65.000000,29.625000 
z"/>
<path fill="#E5D5DD" opacity="1.000000" stroke="none" 
	d="
M1.000000,36.375000 
	C10.441025,36.000000 19.882050,36.000000 29.948963,36.000000 
	C29.948963,42.119976 29.948963,47.565750 30.009007,53.470673 
	C29.300335,53.957344 28.531616,53.984871 27.485500,53.546188 
	C27.208101,49.275963 27.208101,45.471951 27.208101,41.802544 
	C23.725018,43.071949 20.885241,44.106903 18.115751,44.799538 
	C20.615633,42.829140 23.045225,41.201061 25.474817,39.572983 
	C25.150805,39.070095 24.826790,38.567204 24.502777,38.064316 
	C17.121586,42.739315 9.740395,47.414310 2.359204,52.089310 
	C2.132463,52.077572 1.905722,52.065830 1.339491,52.027046 
	C1.000000,51.250000 1.000000,50.500000 1.358227,49.367470 
	C6.674210,45.925549 11.631967,42.866158 16.589724,39.806767 
	C16.454119,39.537842 16.318516,39.268921 16.182913,39.000000 
	C11.121942,39.000000 6.060971,39.000000 1.000000,39.000000 
	C1.000000,38.250000 1.000000,37.500000 1.000000,36.375000 
z"/>
<path fill="#EDDBE0" opacity="1.000000" stroke="none" 
	d="
M29.692013,12.029827 
	C30.073999,17.698847 30.073999,23.346212 30.073999,29.917631 
	C20.406034,29.917631 11.170206,29.917631 1.467189,29.958817 
	C1.000000,29.250000 1.000000,28.500000 1.447655,27.491875 
	C6.738474,27.360060 11.581638,27.486366 16.817831,27.616077 
	C17.445629,26.910326 17.680399,26.201172 18.259121,25.657446 
	C20.049887,26.373146 21.496704,26.923420 22.943521,27.473694 
	C23.101934,27.153618 23.260345,26.833542 23.418758,26.513466 
	C16.933929,22.108864 10.449101,17.704264 3.964272,13.299663 
	C5.074584,12.870017 6.184897,12.440372 7.781624,12.353719 
	C14.375011,16.728239 20.481985,20.759766 27.014944,25.072510 
	C27.014944,20.160631 27.014944,16.086790 27.014944,12.012947 
	C27.779970,12.011356 28.544998,12.009765 29.692013,12.029827 
z"/>
<path fill="#454B9D" opacity="1.000000" stroke="none" 
	d="
M49.380463,38.337765 
	C54.291775,38.332333 59.203083,38.326897 64.557198,38.160732 
	C65.000000,42.024544 65.000000,46.049088 64.711540,50.388710 
	C62.989742,49.743755 61.556400,48.783718 60.057243,47.483276 
	C58.012985,46.076248 56.034546,45.009632 54.028919,43.969162 
	C54.001736,43.995308 54.044991,43.933208 54.197117,43.600586 
	C52.692986,41.624565 51.036724,39.981163 49.380463,38.337765 
z"/>
<path fill="#454B9D" opacity="1.000000" stroke="none" 
	d="
M16.424803,27.612675 
	C11.581638,27.486366 6.738474,27.360060 1.447655,27.116875 
	C1.000000,23.307091 1.000000,19.614182 1.297847,15.621696 
	C5.083787,17.830158 8.571881,20.338196 12.102041,23.232855 
	C13.079315,23.767996 14.014523,23.916519 14.974808,24.032787 
	C14.999886,24.000534 14.949492,24.066406 14.835334,24.393478 
	C15.127735,24.824144 15.534294,24.927736 15.960182,25.028347 
	C15.979509,25.025364 15.971477,25.063644 15.912708,25.351007 
	C16.044228,26.296473 16.234514,26.954573 16.424803,27.612675 
z"/>
<path fill="#44499C" opacity="1.000000" stroke="none" 
	d="
M65.000000,26.545891 
	C59.938721,27.000000 54.877445,27.000000 49.816166,27.000000 
	C49.678135,26.727243 49.540104,26.454487 49.402069,26.181730 
	C54.363171,23.135302 59.324272,20.088875 64.642685,17.021225 
	C65.000000,20.030594 65.000000,23.061186 65.000000,26.545891 
z"/>
<path fill="#44499C" opacity="1.000000" stroke="none" 
	d="
M1.000000,39.454109 
	C6.060971,39.000000 11.121942,39.000000 16.182913,39.000000 
	C16.318516,39.268921 16.454119,39.537842 16.589724,39.806767 
	C11.631967,42.866158 6.674210,45.925549 1.358227,48.992470 
	C1.000000,45.969406 1.000000,42.938812 1.000000,39.454109 
z"/>
<path fill="#FE5A64" opacity="1.000000" stroke="none" 
	d="
M60.123058,47.823685 
	C61.556400,48.783718 62.989742,49.743755 64.711540,50.851894 
	C65.000000,51.000000 65.000000,51.500000 65.000000,51.750000 
	C63.341202,51.993946 61.307453,52.611462 60.086475,51.877289 
	C53.736744,48.059200 47.594086,43.896748 41.573772,38.955097 
	C43.149944,39.225319 44.726112,39.495541 46.845478,40.152122 
	C49.607445,41.670059 51.826218,42.801632 54.044991,43.933208 
	C54.044991,43.933208 54.001736,43.995308 54.043232,44.320675 
	C56.097504,45.705257 58.110279,46.764473 60.123058,47.823685 
z"/>
<path fill="#FE5D66" opacity="1.000000" stroke="none" 
	d="
M12.059975,22.846235 
	C8.571881,20.338196 5.083787,17.830158 1.297847,15.161060 
	C1.000000,15.000000 1.000000,14.500000 1.000000,14.250000 
	C1.781095,13.730488 2.562191,13.460976 3.653780,13.245564 
	C10.449101,17.704264 16.933929,22.108864 23.418758,26.513466 
	C23.260345,26.833542 23.101934,27.153618 22.943521,27.473694 
	C21.496704,26.923420 20.049887,26.373146 18.065523,25.473839 
	C17.009144,25.104420 16.490311,25.084032 15.971477,25.063644 
	C15.971477,25.063644 15.979509,25.025364 15.992778,24.733566 
	C15.653862,24.316648 15.301677,24.191526 14.949492,24.066406 
	C14.949492,24.066406 14.999886,24.000534 14.853749,23.711979 
	C13.825067,23.231028 12.942520,23.038631 12.059975,22.846235 
z"/>
<path fill="#464C9D" opacity="1.000000" stroke="none" 
	d="
M18.045464,45.141861 
	C20.885241,44.106903 23.725018,43.071949 27.208101,41.802544 
	C27.208101,45.471951 27.208101,49.275963 27.100708,53.528656 
	C20.436291,53.877579 13.879265,53.777821 7.299035,53.021854 
	C10.865709,49.957718 14.455587,47.549789 18.045464,45.141861 
z"/>
<path fill="#454A9D" opacity="1.000000" stroke="none" 
	d="
M38.558212,49.242943 
	C38.558079,46.346233 38.558079,43.905384 38.558079,40.782459 
	C45.252682,45.106869 51.400986,49.078396 58.437046,53.623375 
	C51.455734,53.623375 45.468300,53.623375 38.928314,53.623375 
	C38.819462,52.468704 38.688900,51.083752 38.558212,49.242943 
z"/>
<path fill="#FD616A" opacity="1.000000" stroke="none" 
	d="
M18.115753,44.799538 
	C14.455587,47.549789 10.865709,49.957718 7.069818,52.642918 
	C5.405853,52.844963 3.947900,52.769737 2.424575,52.391911 
	C9.740395,47.414310 17.121586,42.739315 24.502777,38.064316 
	C24.826790,38.567204 25.150805,39.070095 25.474817,39.572983 
	C23.045225,41.201061 20.615633,42.829140 18.115753,44.799538 
z"/>
<path fill="#CAC1D6" opacity="1.000000" stroke="none" 
	d="
M54.197117,43.600586 
	C51.826218,42.801632 49.607445,41.670059 47.200520,40.259651 
	C47.563618,39.347019 48.114864,38.713219 49.023289,38.208591 
	C51.036724,39.981163 52.692986,41.624565 54.197117,43.600586 
z"/>
<path fill="#474D9E" opacity="1.000000" stroke="none" 
	d="
M46.855080,20.866261 
	C44.387993,21.980474 41.920906,23.094687 38.785049,24.510939 
	C38.785049,20.523724 38.785049,16.720177 38.891541,12.467402 
	C45.204121,12.096547 51.410206,12.174923 57.660934,12.906303 
	C54.088745,15.994958 50.471912,18.430609 46.855080,20.866261 
z"/>
<path fill="#454A9D" opacity="1.000000" stroke="none" 
	d="
M26.544899,12.003376 
	C27.014944,16.086790 27.014944,20.160631 27.014944,25.072510 
	C20.481985,20.759766 14.375011,16.728239 8.171614,12.375316 
	C14.075078,12.033882 20.074966,12.013844 26.544899,12.003376 
z"/>
<path fill="#FC6069" opacity="1.000000" stroke="none" 
	d="
M46.846851,21.215797 
	C50.471912,18.430609 54.088745,15.994958 57.896675,13.275209 
	C59.626221,12.826384 61.164669,12.661655 62.980301,12.697988 
	C56.814243,19.254751 48.909374,23.257683 41.363449,27.838400 
	C41.091400,27.430204 40.819355,27.022009 40.547306,26.613813 
	C42.644413,24.930986 44.741520,23.248159 46.846851,21.215797 
z"/>
<path fill="#BBB9D4" opacity="1.000000" stroke="none" 
	d="
M15.912708,25.351006 
	C16.490311,25.084032 17.009144,25.104420 17.721573,25.308414 
	C17.680399,26.201172 17.445629,26.910326 16.817831,27.616077 
	C16.234514,26.954573 16.044228,26.296473 15.912708,25.351006 
z"/>
<path fill="#CAC1D6" opacity="1.000000" stroke="none" 
	d="
M60.057243,47.483276 
	C58.110279,46.764473 56.097504,45.705257 54.070415,44.294525 
	C56.034546,45.009632 58.012985,46.076248 60.057243,47.483276 
z"/>
<path fill="#BBB9D4" opacity="1.000000" stroke="none" 
	d="
M12.102041,23.232855 
	C12.942520,23.038631 13.825067,23.231028 14.828671,23.744232 
	C14.014523,23.916519 13.079315,23.767996 12.102041,23.232855 
z"/>
<path fill="#BBB9D4" opacity="1.000000" stroke="none" 
	d="
M14.835334,24.393478 
	C15.301677,24.191526 15.653862,24.316648 15.973450,24.736549 
	C15.534294,24.927736 15.127735,24.824144 14.835334,24.393478 
z"/>
</svg>