<svg version="1.1" id="Layer_1" xmlns="http://www.w3.org/2000/svg" xmlns:xlink="http://www.w3.org/1999/xlink" x="0px" y="0px"
	 width="100%" viewBox="0 0 512 509" enable-background="new 0 0 512 509" xml:space="preserve">

<path fill="#D52528" opacity="1.000000" stroke="none" 
	d="
M88.959717,424.111053 
	C74.375496,410.791138 62.960999,394.995056 52.619736,378.277161 
	C38.337265,355.187744 29.297701,330.067596 23.442657,303.754639 
	C21.562225,295.303833 20.720093,286.564209 20.095245,277.906738 
	C19.344158,267.500214 19.002554,257.038147 19.071800,246.604050 
	C19.197767,227.623199 22.078419,208.932587 27.745726,190.862274 
	C31.988708,177.333450 36.757954,163.848999 42.725182,151.010498 
	C51.238049,132.695038 62.481346,115.970634 75.769630,100.617622 
	C90.097992,84.062920 106.104240,69.462158 124.253624,57.257641 
	C147.997101,41.291386 173.945114,30.036430 201.669434,23.351477 
	C213.865982,20.410610 226.570740,19.395676 239.106415,18.105204 
	C247.820465,17.208143 256.658752,16.791182 265.408234,17.100767 
	C292.131744,18.046328 318.024567,23.350590 343.015869,32.986576 
	C359.877502,39.487980 376.064606,47.435009 390.619751,58.069153 
	C402.523529,66.766167 413.424591,76.835571 424.739502,86.887474 
	C402.692078,109.599388 380.670227,131.715347 358.668823,153.851639 
	C357.037201,155.493271 355.552826,157.281265 353.715454,158.829559 
	C345.987488,151.439346 338.544067,144.220764 330.750366,136.774384 
	C325.993256,136.546570 321.586426,136.546570 316.716797,136.546570 
	C316.716797,140.449738 316.716797,143.751297 316.404236,146.953003 
	C312.418945,143.573868 308.746216,140.294586 304.728088,136.782349 
	C299.697235,136.549377 295.011780,136.549377 289.911163,136.549377 
	C289.911163,143.193756 289.911163,149.102524 289.636444,154.831100 
	C285.495239,151.558014 281.628723,148.465103 277.773438,145.348526 
	C277.784607,145.324860 277.830963,145.349899 277.741333,145.092529 
	C277.451599,144.533676 277.251495,144.232208 276.796997,143.713455 
	C272.990021,140.504868 269.437408,137.513565 265.771179,134.185760 
	C256.621704,124.850502 247.585846,115.851730 238.223724,106.651833 
	C232.100967,106.450706 226.304489,106.450706 220.207153,106.450706 
	C218.733963,111.281364 217.242065,116.173347 215.405975,121.026833 
	C213.445312,119.897049 211.669739,118.980400 210.243088,117.680748 
	C206.432983,114.209816 202.772797,110.574348 198.731659,106.726219 
	C192.640121,106.448151 186.869949,106.448151 180.496872,106.448151 
	C181.205750,108.337273 181.767822,110.010849 182.452667,111.632591 
	C188.201065,125.244987 194.068298,138.808533 199.657150,152.485901 
	C200.814362,155.317917 201.457336,158.556595 201.492737,161.617615 
	C201.681381,177.923965 201.559189,194.233719 201.673569,210.541397 
	C201.686371,212.366180 202.513824,214.185226 203.138336,216.291061 
	C207.874283,221.400269 212.435349,226.225357 216.539581,231.161728 
	C205.278152,231.292007 194.470367,231.149399 183.669632,231.363327 
	C160.518143,231.821854 145.096786,247.564453 145.083557,270.560455 
	C145.069214,295.494873 144.851166,320.432831 145.235779,345.361298 
	C145.336090,351.862488 147.348297,358.334198 148.159027,364.985657 
	C146.348923,366.476196 144.793198,367.731262 143.386047,369.135284 
	C128.068878,384.418579 112.760155,399.710419 97.487564,415.038239 
	C94.559273,417.977173 91.798027,421.082489 88.959717,424.111053 
z"/>
<path fill="#BA202E" opacity="1.000000" stroke="none" 
	d="
M216.996429,231.050446 
	C212.435349,226.225357 207.874283,221.400269 203.599915,216.192108 
	C208.654877,215.809036 213.423126,215.809036 218.698288,215.809036 
	C218.698288,213.352859 218.697876,211.563538 218.698364,209.774200 
	C218.702744,193.633865 218.618393,177.492569 218.790024,161.354019 
	C218.822632,158.286209 219.416031,155.053940 220.522583,152.196472 
	C226.396042,137.029434 232.515640,121.957710 238.549988,106.852966 
	C247.585846,115.851730 256.621704,124.850502 265.359131,134.100815 
	C249.086273,131.702927 239.132339,137.995193 238.242111,152.840347 
	C237.347443,167.759750 237.764603,182.780350 238.148224,197.742706 
	C238.299683,203.650360 240.614914,209.202332 246.013519,212.637161 
	C259.659302,221.319183 277.263794,213.577881 278.947784,197.507568 
	C280.192078,185.633423 279.965363,173.575577 279.868317,161.603821 
	C279.824432,156.187943 278.503693,150.782410 277.762207,145.372192 
	C281.628723,148.465103 285.495239,151.558014 289.723328,155.291504 
	C290.096008,162.261353 290.014374,168.592453 290.139771,174.919449 
	C290.330994,184.566284 290.426971,194.225494 291.041229,203.848953 
	C291.340759,208.541718 293.724854,212.481781 298.635376,214.003632 
	C303.795624,215.602905 308.138916,214.215485 311.534027,209.956879 
	C311.790466,209.635208 312.237000,209.465103 312.877045,209.035309 
	C313.034576,210.567276 313.158081,211.768021 313.264404,212.801849 
	C319.411194,212.801849 325.132446,212.801849 331.100616,212.801849 
	C331.100616,187.277176 331.100616,162.139679 331.100616,137.002182 
	C338.544067,144.220764 345.987488,151.439346 353.887573,159.113647 
	C355.826843,161.143387 357.269897,162.757019 358.797974,164.285629 
	C401.426331,206.928528 444.072510,249.553665 486.665283,292.232025 
	C488.374390,293.944580 489.591309,296.148315 491.037537,298.123199 
	C488.231293,309.710052 486.183594,321.546692 482.466614,332.833649 
	C473.769531,359.243195 460.455658,383.212372 442.830444,404.861053 
	C421.501099,431.059418 396.175140,452.075317 366.103180,467.611542 
	C344.227295,478.913422 321.115906,486.222015 297.100983,490.825928 
	C289.222656,492.336243 281.057556,492.350708 272.481842,492.755432 
	C270.606628,490.786774 269.418213,488.967621 267.917358,487.459412 
	C252.756195,472.224091 237.480652,457.102264 222.362259,441.824829 
	C204.090729,423.361145 185.921707,404.795715 167.779007,386.205353 
	C166.579468,384.976227 165.979263,383.162231 165.469971,381.718323 
	C172.635025,383.152832 179.423187,385.604218 186.226837,385.647919 
	C237.037384,385.974670 287.851074,385.884979 338.663574,385.796997 
	C360.898102,385.758484 377.764771,370.294891 377.913849,349.679016 
	C378.112640,322.191711 378.028961,294.701599 377.921387,267.213257 
	C377.883850,257.619385 374.198334,249.401810 367.384155,242.632828 
	C359.091034,234.394669 348.887909,231.286880 337.420074,231.304703 
	C301.101624,231.361130 264.783020,231.333527 228.464462,231.313232 
	C224.641739,231.311096 220.819107,231.142044 216.996429,231.050446 
z"/>
<path fill="#CC222D" opacity="1.000000" stroke="none" 
	d="
M491.376892,297.887115 
	C489.591309,296.148315 488.374390,293.944580 486.665283,292.232025 
	C444.072510,249.553665 401.426331,206.928528 358.797974,164.285629 
	C357.269897,162.757019 355.826843,161.143387 354.172089,159.285278 
	C355.552826,157.281265 357.037201,155.493271 358.668823,153.851639 
	C380.670227,131.715347 402.692078,109.599388 424.883270,87.186462 
	C439.101624,99.368065 450.046143,114.393929 459.994812,130.133057 
	C471.060181,147.638931 479.310425,166.494293 485.132538,186.380402 
	C489.597351,201.630508 493.102264,217.071411 494.017456,233.006058 
	C494.272339,237.444199 494.834229,241.869034 494.972626,246.308777 
	C495.509064,263.520782 494.705322,280.657837 491.376892,297.887115 
z"/>
<path fill="#CC222D" opacity="1.000000" stroke="none" 
	d="
M165.100281,381.620270 
	C165.979263,383.162231 166.579468,384.976227 167.779007,386.205353 
	C185.921707,404.795715 204.090729,423.361145 222.362259,441.824829 
	C237.480652,457.102264 252.756195,472.224091 267.917358,487.459412 
	C269.418213,488.967621 270.606628,490.786774 272.028900,492.803528 
	C271.233673,493.429962 270.354797,493.945374 269.464752,493.965363 
	C246.514099,494.480194 223.866257,492.635254 201.395950,487.352875 
	C172.991379,480.675415 146.815079,469.040466 122.877434,452.770050 
	C110.859474,444.601410 100.402176,434.136658 89.099396,424.410706 
	C91.798027,421.082489 94.559273,417.977173 97.487564,415.038239 
	C112.760155,399.710419 128.068878,384.418579 143.386047,369.135284 
	C144.793198,367.731262 146.348923,366.476196 148.376389,365.229523 
	C152.514938,372.527100 158.399246,377.478790 165.100281,381.620270 
z"/>
<path fill="#FEFCFD" opacity="1.000000" stroke="none" 
	d="
M165.469971,381.718323 
	C158.399246,377.478790 152.514938,372.527100 148.699768,365.063293 
	C147.348297,358.334198 145.336090,351.862488 145.235779,345.361298 
	C144.851166,320.432831 145.069214,295.494873 145.083557,270.560455 
	C145.096786,247.564453 160.518143,231.821854 183.669632,231.363327 
	C194.470367,231.149399 205.278152,231.292007 216.539581,231.161713 
	C220.819107,231.142044 224.641739,231.311096 228.464462,231.313232 
	C264.783020,231.333527 301.101624,231.361130 337.420074,231.304703 
	C348.887909,231.286880 359.091034,234.394669 367.384155,242.632828 
	C374.198334,249.401810 377.883850,257.619385 377.921387,267.213257 
	C378.028961,294.701599 378.112640,322.191711 377.913849,349.679016 
	C377.764771,370.294891 360.898102,385.758484 338.663574,385.796997 
	C287.851074,385.884979 237.037384,385.974670 186.226837,385.647919 
	C179.423187,385.604218 172.635025,383.152832 165.469971,381.718323 
M283.657806,283.969055 
	C281.838196,284.929718 280.018555,285.890411 277.555786,287.190643 
	C277.555786,277.367615 277.555786,268.283875 277.555786,259.381683 
	C272.017670,259.381683 266.938141,259.381683 261.738312,259.381683 
	C261.738312,292.368774 261.738312,324.972534 261.738312,357.762329 
	C266.220184,357.762329 270.460938,357.762329 274.583832,357.762329 
	C275.177307,355.794250 275.686157,354.106873 276.262573,352.195312 
	C277.732330,353.274506 278.913269,354.176605 280.129120,355.028870 
	C291.348663,362.893372 301.686310,359.190674 302.674805,345.656189 
	C303.907379,328.780304 303.719879,311.723175 302.906982,294.803802 
	C302.399841,284.247864 294.571899,280.264648 283.657806,283.969055 
M237.655273,284.941071 
	C237.032761,286.366638 235.877945,287.788971 235.869278,289.218262 
	C235.772171,305.206421 235.857529,321.195618 235.875244,337.184540 
	C235.877090,338.844086 236.390152,340.999298 235.560089,342.054840 
	C234.068558,343.951569 231.737640,345.188232 229.757446,346.700684 
	C228.506012,344.929382 227.112381,343.236389 226.072205,341.348694 
	C225.648575,340.579895 225.987289,339.388306 225.987534,338.389069 
	C225.991394,322.566559 225.996674,306.744049 226.001465,290.921539 
	C226.002045,288.993958 226.001556,287.066345 226.001556,285.292053 
	C220.262283,285.292053 215.197800,285.292053 210.069473,285.292053 
	C210.069473,305.966125 209.843643,326.276703 210.158920,346.578857 
	C210.332520,357.758362 217.136932,362.102966 227.628265,357.981506 
	C231.625870,356.411041 235.112350,353.539551 239.053558,351.125122 
	C239.053558,353.476410 239.053558,355.912109 239.053558,358.482605 
	C243.457764,358.482605 247.515320,358.482605 251.698608,358.482605 
	C251.698608,333.905273 251.698608,309.662201 251.698608,284.927124 
	C247.196701,284.927124 242.911606,284.927124 237.655273,284.941071 
M313.353546,309.736237 
	C313.351562,317.224792 313.266083,324.714539 313.371460,332.201599 
	C313.473541,339.459503 314.587524,346.471252 319.437103,352.319977 
	C325.566376,359.712067 335.842133,361.682465 344.261108,357.094818 
	C352.560669,352.572235 356.697632,342.243561 353.806671,333.175537 
	C350.054749,333.175537 346.292389,333.175537 342.032867,333.175537 
	C342.032867,336.212982 342.251007,339.021118 341.981873,341.781708 
	C341.575256,345.952393 338.844482,347.773163 334.837982,347.908234 
	C330.758179,348.045776 327.169922,346.817749 326.835388,342.293213 
	C326.386902,336.227509 326.724304,330.103729 326.724304,323.447754 
	C336.038269,323.447754 344.935822,323.447754 353.633514,323.447754 
	C353.633514,313.421021 354.082184,303.931732 353.396088,294.525177 
	C353.147797,291.121124 350.933441,287.061035 348.325592,284.768372 
	C337.651703,275.384644 318.787689,281.275757 315.150330,294.981140 
	C313.970001,299.428589 313.937378,304.180634 313.353546,309.736237 
M193.778778,297.500122 
	C193.778778,289.077850 193.778778,280.655579 193.778778,271.833221 
	C200.539597,271.833221 206.626892,271.833221 212.716522,271.833221 
	C212.716522,267.357574 212.716522,263.306030 212.716522,259.263306 
	C195.459412,259.263306 178.552567,259.263306 161.598206,259.263306 
	C161.598206,263.473145 161.598206,267.359772 161.598206,271.861938 
	C167.018250,271.861938 172.091644,271.861938 177.755203,271.861938 
	C177.755203,301.191284 177.755203,329.900665 177.755203,358.395935 
	C183.437378,358.395935 188.500183,358.395935 193.778687,358.395935 
	C193.778687,338.136414 193.778687,318.318298 193.778778,297.500122 
z"/>
<path fill="#FEFAFA" opacity="1.000000" stroke="none" 
	d="
M238.223724,106.651840 
	C232.515640,121.957710 226.396042,137.029434 220.522583,152.196472 
	C219.416031,155.053940 218.822632,158.286209 218.790024,161.354019 
	C218.618393,177.492569 218.702744,193.633865 218.698364,209.774200 
	C218.697876,211.563538 218.698288,213.352859 218.698288,215.809036 
	C213.423126,215.809036 208.654877,215.809036 203.425049,215.907990 
	C202.513824,214.185226 201.686371,212.366180 201.673569,210.541397 
	C201.559189,194.233719 201.681381,177.923965 201.492737,161.617615 
	C201.457336,158.556595 200.814362,155.317917 199.657150,152.485901 
	C194.068298,138.808533 188.201065,125.244987 182.452667,111.632591 
	C181.767822,110.010849 181.205750,108.337273 180.496872,106.448151 
	C186.869949,106.448151 192.640121,106.448151 198.726318,107.114525 
	C202.383499,119.341301 205.724670,130.901703 209.465164,143.843796 
	C211.819016,135.312836 213.784576,128.189087 215.750153,121.065331 
	C217.242065,116.173347 218.733963,111.281364 220.207153,106.450706 
	C226.304489,106.450706 232.100967,106.450706 238.223724,106.651840 
z"/>
<path fill="#FDF9FA" opacity="1.000000" stroke="none" 
	d="
M277.773407,145.348526 
	C278.503693,150.782410 279.824432,156.187943 279.868317,161.603821 
	C279.965363,173.575577 280.192078,185.633423 278.947784,197.507568 
	C277.263794,213.577881 259.659302,221.319183 246.013519,212.637161 
	C240.614914,209.202332 238.299683,203.650360 238.148224,197.742706 
	C237.764603,182.780350 237.347443,167.759750 238.242111,152.840347 
	C239.132339,137.995193 249.086273,131.702927 265.472748,134.437317 
	C269.437408,137.513565 272.990021,140.504868 276.811249,144.007370 
	C277.330231,144.795670 277.580597,145.072784 277.830963,145.349899 
	C277.830963,145.349899 277.784607,145.324860 277.773407,145.348526 
M252.747818,199.238434 
	C254.722519,202.113556 257.664398,204.291077 260.687073,202.249695 
	C263.065002,200.643768 265.558746,197.251450 265.660492,194.564011 
	C266.164398,181.258789 265.972961,167.923340 265.848022,154.600250 
	C265.802368,149.731628 262.799072,146.400818 258.925018,146.243073 
	C254.893875,146.078918 251.687775,149.488953 251.603928,154.639755 
	C251.441269,164.630402 251.463928,174.626114 251.567307,184.618103 
	C251.615311,189.257446 252.032150,193.893005 252.747818,199.238434 
z"/>
<path fill="#FEFCFC" opacity="1.000000" stroke="none" 
	d="
M330.750366,136.774384 
	C331.100616,162.139679 331.100616,187.277176 331.100616,212.801849 
	C325.132446,212.801849 319.411194,212.801849 313.264404,212.801849 
	C313.158081,211.768021 313.034576,210.567276 312.877045,209.035309 
	C312.237000,209.465103 311.790466,209.635208 311.534027,209.956879 
	C308.138916,214.215485 303.795624,215.602905 298.635376,214.003632 
	C293.724854,212.481781 291.340759,208.541718 291.041229,203.848953 
	C290.426971,194.225494 290.330994,184.566284 290.139771,174.919449 
	C290.014374,168.592453 290.096008,162.261353 289.998047,155.471680 
	C289.911163,149.102524 289.911163,143.193756 289.911163,136.549377 
	C295.011780,136.549377 299.697235,136.549377 304.698120,137.248795 
	C305.010498,156.921356 305.017029,175.894531 304.996582,194.867645 
	C304.992249,198.909866 306.504242,201.895172 310.886292,201.931946 
	C315.264893,201.968689 316.915039,198.992447 316.904205,194.969406 
	C316.861206,178.997162 316.782379,163.025024 316.716797,147.052841 
	C316.716797,143.751297 316.716797,140.449738 316.716797,136.546570 
	C321.586426,136.546570 325.993256,136.546570 330.750366,136.774384 
z"/>
<path fill="#BB2331" opacity="1.000000" stroke="none" 
	d="
M316.404236,146.953003 
	C316.782379,163.025024 316.861206,178.997162 316.904205,194.969406 
	C316.915039,198.992447 315.264893,201.968689 310.886292,201.931946 
	C306.504242,201.895172 304.992249,198.909866 304.996582,194.867645 
	C305.017029,175.894531 305.010498,156.921356 305.043549,137.481750 
	C308.746216,140.294586 312.418945,143.573868 316.404236,146.953003 
z"/>
<path fill="#BC2735" opacity="1.000000" stroke="none" 
	d="
M215.405975,121.026833 
	C213.784576,128.189087 211.819016,135.312836 209.465164,143.843796 
	C205.724670,130.901703 202.383499,119.341301 199.047668,107.392593 
	C202.772797,110.574348 206.432983,114.209816 210.243088,117.680748 
	C211.669739,118.980400 213.445312,119.897049 215.405975,121.026833 
z"/>
<path fill="#BA202E" opacity="1.000000" stroke="none" 
	d="
M277.741333,145.092529 
	C277.580597,145.072784 277.330231,144.795670 277.065613,144.224655 
	C277.251495,144.232208 277.451599,144.533676 277.741333,145.092529 
z"/>
<path fill="#BB2331" opacity="1.000000" stroke="none" 
	d="
M284.022461,283.821350 
	C294.571899,280.264648 302.399841,284.247864 302.906982,294.803802 
	C303.719879,311.723175 303.907379,328.780304 302.674805,345.656189 
	C301.686310,359.190674 291.348663,362.893372 280.129120,355.028870 
	C278.913269,354.176605 277.732330,353.274506 276.262573,352.195312 
	C275.686157,354.106873 275.177307,355.794250 274.583832,357.762329 
	C270.460938,357.762329 266.220184,357.762329 261.738312,357.762329 
	C261.738312,324.972534 261.738312,292.368774 261.738312,259.381683 
	C266.938141,259.381683 272.017670,259.381683 277.555786,259.381683 
	C277.555786,268.283875 277.555786,277.367615 277.555786,287.190643 
	C280.018555,285.890411 281.838196,284.929718 284.022461,283.821350 
M285.349762,291.720215 
	C279.120209,292.259735 277.489410,293.757935 277.459198,299.506958 
	C277.390106,312.639740 277.387573,325.773407 277.462280,338.906128 
	C277.490845,343.931946 280.108765,346.578918 284.615082,346.544281 
	C289.103333,346.509827 291.698212,343.827942 291.724609,338.812042 
	C291.793701,325.679260 291.718201,312.545746 291.765015,299.412750 
	C291.779236,295.423737 290.358368,292.647583 285.349762,291.720215 
z"/>
<path fill="#BB2230" opacity="1.000000" stroke="none" 
	d="
M238.140900,284.934082 
	C242.911606,284.927124 247.196701,284.927124 251.698608,284.927124 
	C251.698608,309.662201 251.698608,333.905273 251.698608,358.482605 
	C247.515320,358.482605 243.457764,358.482605 239.053558,358.482605 
	C239.053558,355.912109 239.053558,353.476410 239.053558,351.125122 
	C235.112350,353.539551 231.625870,356.411041 227.628265,357.981506 
	C217.136932,362.102966 210.332520,357.758362 210.158920,346.578857 
	C209.843643,326.276703 210.069473,305.966125 210.069473,285.292053 
	C215.197800,285.292053 220.262283,285.292053 226.001556,285.292053 
	C226.001556,287.066345 226.002045,288.993958 226.001465,290.921539 
	C225.996674,306.744049 225.991394,322.566559 225.987534,338.389069 
	C225.987289,339.388306 225.648575,340.579895 226.072205,341.348694 
	C227.112381,343.236389 228.506012,344.929382 229.757446,346.700684 
	C231.737640,345.188232 234.068558,343.951569 235.560089,342.054840 
	C236.390152,340.999298 235.877090,338.844086 235.875244,337.184540 
	C235.857529,321.195618 235.772171,305.206421 235.869278,289.218262 
	C235.877945,287.788971 237.032761,286.366638 238.140900,284.934082 
z"/>
<path fill="#BC2533" opacity="1.000000" stroke="none" 
	d="
M313.366669,309.264771 
	C313.937378,304.180634 313.970001,299.428589 315.150330,294.981140 
	C318.787689,281.275757 337.651703,275.384644 348.325592,284.768372 
	C350.933441,287.061035 353.147797,291.121124 353.396088,294.525177 
	C354.082184,303.931732 353.633514,313.421021 353.633514,323.447754 
	C344.935822,323.447754 336.038269,323.447754 326.724304,323.447754 
	C326.724304,330.103729 326.386902,336.227509 326.835388,342.293213 
	C327.169922,346.817749 330.758179,348.045776 334.837982,347.908234 
	C338.844482,347.773163 341.575256,345.952393 341.981873,341.781708 
	C342.251007,339.021118 342.032867,336.212982 342.032867,333.175537 
	C346.292389,333.175537 350.054749,333.175537 353.806671,333.175537 
	C356.697632,342.243561 352.560669,352.572235 344.261108,357.094818 
	C335.842133,361.682465 325.566376,359.712067 319.437103,352.319977 
	C314.587524,346.471252 313.473541,339.459503 313.371460,332.201599 
	C313.266083,324.714539 313.351562,317.224792 313.366669,309.264771 
M342.135132,302.795959 
	C341.594788,297.004822 339.280334,294.606720 334.316833,294.694977 
	C329.373840,294.782867 326.996552,297.465607 326.865112,303.186005 
	C326.809692,305.597717 326.855896,308.011780 326.855896,310.432434 
	C332.296265,310.432434 337.019073,310.432434 342.128448,310.432434 
	C342.128448,307.973816 342.128448,305.835724 342.135132,302.795959 
z"/>
<path fill="#BD2936" opacity="1.000000" stroke="none" 
	d="
M193.778732,298.000122 
	C193.778687,318.318298 193.778687,338.136414 193.778687,358.395935 
	C188.500183,358.395935 183.437378,358.395935 177.755203,358.395935 
	C177.755203,329.900665 177.755203,301.191284 177.755203,271.861938 
	C172.091644,271.861938 167.018250,271.861938 161.598206,271.861938 
	C161.598206,267.359772 161.598206,263.473145 161.598206,259.263306 
	C178.552567,259.263306 195.459412,259.263306 212.716522,259.263306 
	C212.716522,263.306030 212.716522,267.357574 212.716522,271.833221 
	C206.626892,271.833221 200.539597,271.833221 193.778778,271.833221 
	C193.778778,280.655579 193.778778,289.077850 193.778732,298.000122 
z"/>
<path fill="#BB2431" opacity="1.000000" stroke="none" 
	d="
M252.514801,198.884354 
	C252.032150,193.893005 251.615311,189.257446 251.567307,184.618103 
	C251.463928,174.626114 251.441269,164.630402 251.603928,154.639755 
	C251.687775,149.488953 254.893875,146.078918 258.925018,146.243073 
	C262.799072,146.400818 265.802368,149.731628 265.848022,154.600250 
	C265.972961,167.923340 266.164398,181.258789 265.660492,194.564011 
	C265.558746,197.251450 263.065002,200.643768 260.687073,202.249695 
	C257.664398,204.291077 254.722519,202.113556 252.514801,198.884354 
z"/>
<path fill="#FBF3F4" opacity="1.000000" stroke="none" 
	d="
M285.759583,291.779388 
	C290.358368,292.647583 291.779236,295.423737 291.765015,299.412750 
	C291.718201,312.545746 291.793701,325.679260 291.724609,338.812042 
	C291.698212,343.827942 289.103333,346.509827 284.615082,346.544281 
	C280.108765,346.578918 277.490845,343.931946 277.462280,338.906128 
	C277.387573,325.773407 277.390106,312.639740 277.459198,299.506958 
	C277.489410,293.757935 279.120209,292.259735 285.759583,291.779388 
z"/>
<path fill="#FDF9F9" opacity="1.000000" stroke="none" 
	d="
M342.131775,303.246765 
	C342.128448,305.835724 342.128448,307.973816 342.128448,310.432434 
	C337.019073,310.432434 332.296265,310.432434 326.855896,310.432434 
	C326.855896,308.011780 326.809692,305.597717 326.865112,303.186005 
	C326.996552,297.465607 329.373840,294.782867 334.316833,294.694977 
	C339.280334,294.606720 341.594788,297.004822 342.131775,303.246765 
z"/>
</svg>