<svg version="1.1" id="Layer_1" xmlns="http://www.w3.org/2000/svg" xmlns:xlink="http://www.w3.org/1999/xlink" x="0px" y="0px"
	 width="100%" viewBox="0 0 534 542" enable-background="new 0 0 534 542" xml:space="preserve">

<path fill="#F4F4F4" opacity="1.000000" stroke="none" 
	d="
M527.022461,273.998779 
	C527.237427,307.720398 520.169861,339.462738 507.477173,370.033905 
	C498.272430,392.204010 486.072357,412.655853 471.094330,431.377930 
	C444.987549,464.010651 412.989410,489.164825 374.660339,506.027893 
	C355.636353,514.397522 335.907806,520.251953 315.424286,524.281921 
	C293.303406,528.633972 271.101837,528.570007 248.925583,527.722046 
	C235.588333,527.212097 222.250778,524.270264 209.114578,521.475525 
	C185.385712,516.427124 163.171234,507.074310 141.981873,495.422455 
	C127.355751,487.379730 113.546356,478.013367 101.198372,466.684082 
	C94.369690,460.418732 87.620697,454.056549 81.046104,447.526276 
	C66.883743,433.459320 55.752838,417.092194 45.516655,400.067139 
	C31.568918,376.869019 22.281509,351.795990 16.334681,325.519287 
	C14.083735,315.573212 12.848746,305.314636 12.113933,295.128998 
	C11.209239,282.588623 10.990906,269.973938 11.057786,257.394470 
	C11.142902,241.384857 13.141359,225.447556 17.615803,210.134460 
	C22.639353,192.942154 28.154305,175.755234 35.262363,159.348801 
	C42.485367,142.677063 51.906517,126.888771 63.724106,112.914932 
	C73.716240,101.099625 84.015938,89.457245 95.073250,78.653000 
	C107.618660,66.394714 121.929611,56.209583 137.131134,47.348282 
	C153.981094,37.526070 171.656250,29.409317 190.190811,23.521603 
	C201.959854,19.783031 214.256271,17.677790 226.351135,14.997768 
	C247.066376,10.407612 268.152435,11.515772 289.033112,12.299783 
	C302.500244,12.805436 315.934052,16.010162 329.235016,18.728405 
	C352.398102,23.462112 373.877380,32.759293 394.646515,43.897816 
	C409.844940,52.048759 423.811737,61.915882 436.709229,73.277023 
	C444.033783,79.729080 451.070587,86.533020 457.934479,93.477470 
	C471.714539,107.419197 482.848511,123.380478 492.717194,140.251404 
	C503.297943,158.339615 511.866455,177.354385 517.123718,197.644165 
	C520.394226,210.266098 523.141663,223.115051 524.821106,236.031494 
	C526.430176,248.406921 526.356567,261.001099 527.022461,273.998779 
M436.736328,76.754265 
	C371.885803,22.338976 297.725159,2.703010 214.943604,20.029932 
	C84.573204,47.317619 -3.015502,172.559204 15.230575,304.027557 
	C22.900246,359.289795 45.452980,407.818085 84.852135,447.343689 
	C153.385376,516.096985 236.182709,540.657654 330.456390,518.158813 
	C456.273773,488.131927 537.966003,368.780121 523.087830,240.289307 
	C515.528564,175.006424 486.197327,120.877724 436.736328,76.754265 
z"/>
<path fill="#010101" opacity="1.000000" stroke="none" 
	d="
M437.012299,76.976074 
	C486.197327,120.877724 515.528564,175.006424 523.087830,240.289307 
	C537.966003,368.780121 456.273773,488.131927 330.456390,518.158813 
	C236.182709,540.657654 153.385376,516.096985 84.852135,447.343689 
	C45.452980,407.818085 22.900246,359.289795 15.230575,304.027557 
	C-3.015502,172.559204 84.573204,47.317619 214.943604,20.029932 
	C297.725159,2.703010 371.885803,22.338976 437.012299,76.976074 
M317.303040,358.749115 
	C321.946747,347.505554 323.751495,335.728912 323.721466,323.644440 
	C323.639954,290.820435 323.493561,257.996582 323.373993,225.172653 
	C323.368195,223.574356 323.373260,221.976013 323.373260,219.478821 
	C345.816833,235.797012 369.960114,244.503616 397.048096,244.383957 
	C397.048096,228.316254 397.048096,212.757874 397.048096,197.116409 
	C376.802551,196.416321 359.418762,189.587250 345.165253,175.441711 
	C330.938354,161.322586 324.023529,143.965744 323.209534,124.140968 
	C307.158020,124.140968 291.568665,124.140968 275.691711,124.140968 
	C275.691711,126.204628 275.692322,128.010162 275.691559,129.815704 
	C275.665039,193.631165 275.642731,257.446625 275.597412,321.262085 
	C275.595428,324.090240 275.515808,326.930878 275.248260,329.744385 
	C273.219696,351.079041 256.201630,367.478424 234.725388,368.860443 
	C214.159195,370.183838 194.588013,355.599548 190.088303,335.597107 
	C185.344116,314.507935 196.208817,293.838684 216.191666,285.672668 
	C225.855743,281.723389 235.659103,282.022095 245.658508,284.378326 
	C245.658508,268.211609 245.658508,252.283737 245.658508,235.842514 
	C237.604385,235.842514 229.769470,235.236755 222.053802,235.939682 
	C167.200317,240.936981 129.171295,295.743805 143.582214,348.722931 
	C153.670944,385.812256 186.365417,413.062714 224.172485,415.893921 
	C264.906708,418.944336 300.899017,397.081543 317.303040,358.749115 
z"/>
<path fill="#FEFEFE" opacity="1.000000" stroke="none" 
	d="
M317.176819,359.113098 
	C300.899017,397.081543 264.906708,418.944336 224.172485,415.893921 
	C186.365417,413.062714 153.670944,385.812256 143.582214,348.722931 
	C129.171295,295.743805 167.200317,240.936981 222.053802,235.939682 
	C229.769470,235.236755 237.604385,235.842514 245.658508,235.842514 
	C245.658508,252.283737 245.658508,268.211609 245.658508,284.378326 
	C235.659103,282.022095 225.855743,281.723389 216.191666,285.672668 
	C196.208817,293.838684 185.344116,314.507935 190.088303,335.597107 
	C194.588013,355.599548 214.159195,370.183838 234.725388,368.860443 
	C256.201630,367.478424 273.219696,351.079041 275.248260,329.744385 
	C275.515808,326.930878 275.595428,324.090240 275.597412,321.262085 
	C275.642731,257.446625 275.665039,193.631165 275.691559,129.815704 
	C275.692322,128.010162 275.691711,126.204628 275.691711,124.140968 
	C291.568665,124.140968 307.158020,124.140968 323.209534,124.140968 
	C324.023529,143.965744 330.938354,161.322586 345.165253,175.441711 
	C359.418762,189.587250 376.802551,196.416321 397.048096,197.116409 
	C397.048096,212.757874 397.048096,228.316254 397.048096,244.383957 
	C369.960114,244.503616 345.816833,235.797012 323.373260,219.478821 
	C323.373260,221.976013 323.368195,223.574356 323.373993,225.172653 
	C323.493561,257.996582 323.639954,290.820435 323.721466,323.644440 
	C323.751495,335.728912 321.946747,347.505554 317.176819,359.113098 
z"/>
</svg>