<svg version="1.1" id="Layer_1" xmlns="http://www.w3.org/2000/svg" xmlns:xlink="http://www.w3.org/1999/xlink" x="0px" y="0px"
	 width="100%" viewBox="0 0 64 64" enable-background="new 0 0 64 64" xml:space="preserve">
<path fill="#FFD250" opacity="1.000000" stroke="none" 
	d="
M1.000000,45.000000 
	C1.000000,37.312424 1.000000,29.624847 1.251871,21.442539 
	C1.665129,20.898293 1.826517,20.848778 2.454428,20.851538 
	C23.283878,20.868925 43.646801,20.834040 64.252411,20.873453 
	C64.663391,20.965166 64.831696,20.982582 65.000000,21.000000 
	C65.000000,28.687576 65.000000,36.375153 64.748138,44.557465 
	C64.334885,45.101711 64.173492,45.151226 63.545586,45.148464 
	C42.716133,45.131077 22.353205,45.165962 1.747595,45.126549 
	C1.336607,45.034832 1.168304,45.017414 1.000000,45.000000 
M14.934314,37.713993 
	C14.972391,38.433716 15.010468,39.153442 15.273042,40.390137 
	C15.897266,40.297142 16.521492,40.204151 17.568008,40.004322 
	C17.568008,40.004322 17.984901,39.878044 18.611361,39.695530 
	C19.163786,39.372791 19.716209,39.050053 20.390551,38.975727 
	C20.413143,39.166851 20.499178,39.322945 21.373690,39.849655 
	C21.643358,39.894859 21.913027,39.940063 22.488970,40.082233 
	C22.488970,40.082233 22.802689,40.013031 23.455238,40.017941 
	C23.880404,39.970245 24.305571,39.922550 25.391495,39.953705 
	C25.612347,39.974346 25.833200,39.994991 26.393499,40.534481 
	C27.264376,40.627926 28.135250,40.721371 29.006126,40.814812 
	C28.922787,40.471386 28.839447,40.127960 28.868887,39.117615 
	C28.295340,38.422531 27.721792,37.727444 27.306046,36.454849 
	C27.342279,36.258602 27.378511,36.062359 27.974213,35.857811 
	C28.317966,35.272820 28.661720,34.687828 29.322893,33.835968 
	C29.199860,33.522659 29.076826,33.209347 28.909840,32.144695 
	C26.944128,31.344648 24.978416,30.544600 23.008583,29.363434 
	C23.008583,29.363434 23.004902,28.979774 23.433180,28.592739 
	C22.986034,27.770512 22.538887,26.948284 21.520292,25.721441 
	C19.998354,26.143497 18.476414,26.565554 16.987623,27.000160 
	C16.987623,27.000160 16.969078,26.989201 16.412149,27.096952 
	C16.258543,27.433163 16.104937,27.769371 15.957120,28.690279 
	C15.955461,29.080032 15.953801,29.469788 15.450029,30.228365 
	C15.392982,30.827902 15.335934,31.427441 15.073520,32.495522 
	C15.048915,32.664261 15.024309,32.833000 14.241238,33.000538 
	C13.083546,33.078800 11.925855,33.157063 10.768163,33.235325 
	C10.756286,33.440697 10.744408,33.646065 10.732531,33.851437 
	C11.794340,33.917858 12.856151,33.984276 13.994909,34.445118 
	C13.994909,34.445118 14.048665,34.843357 14.036738,35.458363 
	C14.309403,35.971470 14.582068,36.484573 14.934314,37.713993 
M10.995150,40.823395 
	C11.437062,40.720921 11.878974,40.618446 12.320887,40.515972 
	C12.219351,40.388737 12.101938,40.142918 12.018929,40.154034 
	C11.571680,40.213921 11.132973,40.337593 10.995150,40.823395 
z"/>
<path fill="#FFFFFF" opacity="1.000000" stroke="none" 
	d="
M1.000000,14.000000 
	C1.000000,9.688616 1.000000,5.377231 1.000020,1.059787 
	C22.333382,1.053728 43.666721,1.053728 65.000000,1.053728 
	C65.000000,5.087196 65.000000,9.066936 64.627716,13.391310 
	C62.481792,13.157312 60.711754,12.089069 58.933960,12.076011 
	C41.713062,11.949507 24.490252,11.931981 7.269847,12.088292 
	C5.174286,12.107314 3.089682,13.333352 1.000000,14.000000 
z"/>
<path fill="#FFFFFF" opacity="1.000000" stroke="none" 
	d="
M65.000000,52.000000 
	C65.000000,56.311386 65.000000,60.622772 64.999985,64.940216 
	C43.666618,64.946266 22.333273,64.946266 1.000000,64.946266 
	C1.000000,60.912796 1.000000,56.933060 1.372281,52.608688 
	C3.518199,52.842690 5.288241,53.910927 7.066033,53.923988 
	C24.286930,54.050491 41.509747,54.068027 58.730152,53.911713 
	C60.825710,53.892693 62.910316,52.666649 65.000000,52.000000 
z"/>
<path fill="#C8414B" opacity="1.000000" stroke="none" 
	d="
M1.000000,14.428463 
	C3.089682,13.333352 5.174286,12.107314 7.269847,12.088292 
	C24.490252,11.931981 41.713062,11.949507 58.933960,12.076011 
	C60.711754,12.089069 62.481792,13.157312 64.627716,13.867971 
	C65.000000,15.714358 65.000000,17.428717 64.798584,19.656342 
	C64.335281,20.317801 64.139465,20.527649 64.009727,20.799152 
	C43.646801,20.834040 23.283878,20.868925 2.333066,20.671471 
	C1.535860,20.226477 1.287467,20.080099 1.000000,20.000000 
	C1.000000,18.285641 1.000000,16.571283 1.000000,14.428463 
z"/>
<path fill="#C8414B" opacity="1.000000" stroke="none" 
	d="
M65.000000,51.571533 
	C62.910316,52.666649 60.825710,53.892693 58.730152,53.911713 
	C41.509747,54.068027 24.286930,54.050491 7.066033,53.923988 
	C5.288241,53.910927 3.518199,52.842690 1.372281,52.132027 
	C1.000000,50.285641 1.000000,48.571285 1.201412,46.343658 
	C1.664727,45.682205 1.860545,45.472359 1.990279,45.200848 
	C22.353205,45.165962 42.716133,45.131077 63.666939,45.328529 
	C64.464142,45.773525 64.712532,45.919899 65.000000,46.000000 
	C65.000000,47.714359 65.000000,49.428715 65.000000,51.571533 
z"/>
<path fill="#D0554C" opacity="1.000000" stroke="none" 
	d="
M64.252411,20.873451 
	C64.139465,20.527649 64.335281,20.317801 64.798584,20.084805 
	C65.000000,20.000000 65.000000,20.500000 65.000000,20.750000 
	C64.831696,20.982582 64.663391,20.965166 64.252411,20.873451 
z"/>
<path fill="#D0554C" opacity="1.000000" stroke="none" 
	d="
M65.000000,45.750000 
	C64.712532,45.919899 64.464142,45.773525 64.133469,45.380806 
	C64.173492,45.151226 64.334885,45.101711 64.748138,45.026100 
	C65.000000,45.000000 65.000000,45.500000 65.000000,45.750000 
z"/>
<path fill="#D0554C" opacity="1.000000" stroke="none" 
	d="
M1.747595,45.126549 
	C1.860545,45.472359 1.664727,45.682205 1.201412,45.915195 
	C1.000000,46.000000 1.000000,45.500000 1.000000,45.250000 
	C1.168304,45.017414 1.336607,45.034832 1.747595,45.126549 
z"/>
<path fill="#D0554C" opacity="1.000000" stroke="none" 
	d="
M1.000000,20.250000 
	C1.287467,20.080099 1.535860,20.226477 1.866542,20.619198 
	C1.826517,20.848778 1.665129,20.898293 1.251871,20.973904 
	C1.000000,21.000000 1.000000,20.500000 1.000000,20.250000 
z"/>
<path fill="#F5F4F5" opacity="1.000000" stroke="none" 
	d="
M23.012707,29.744551 
	C24.978416,30.544600 26.944128,31.344648 28.604919,32.562004 
	C27.865034,32.935383 27.430065,32.891457 26.888084,32.580208 
	C26.386969,32.502480 25.992868,32.692070 25.488873,33.015633 
	C25.239313,33.362087 25.222290,33.583969 25.220013,34.117023 
	C25.053852,34.624332 24.995579,34.829876 24.572495,35.021603 
	C23.235025,35.003529 22.262369,34.999271 21.116594,34.693581 
	C20.595400,34.086594 20.247322,33.781052 19.912212,33.484135 
	C19.925179,33.492764 19.904278,33.473507 19.935804,33.050652 
	C19.990036,31.791456 20.012741,30.955114 20.049408,30.102436 
	C20.063370,30.086100 20.076975,30.045328 20.445559,30.026379 
	C21.546997,29.919804 22.279852,29.832176 23.012707,29.744551 
M23.640257,33.118679 
	C23.496958,32.568832 23.353661,32.018986 23.210363,31.469141 
	C22.848442,31.660376 22.486521,31.851612 22.124598,32.042847 
	C22.480543,32.545998 22.836487,33.049149 23.640257,33.118679 
z"/>
<path fill="#C9444B" opacity="1.000000" stroke="none" 
	d="
M16.954475,26.987610 
	C18.476414,26.565554 19.998354,26.143497 21.647358,26.171816 
	C21.162153,27.110723 20.549881,27.599255 19.956711,28.080732 
	C19.975813,28.073677 19.942549,28.065741 19.887959,27.866322 
	C19.577200,27.806870 19.321030,27.946836 18.770292,28.020878 
	C17.968641,27.632502 17.461557,27.310055 16.954475,26.987610 
z"/>
<path fill="#E48148" opacity="1.000000" stroke="none" 
	d="
M17.984901,39.878044 
	C17.984901,39.878044 17.568008,40.004322 17.062342,40.005058 
	C16.361734,39.969826 16.166792,39.933861 15.980376,39.546768 
	C15.692992,38.137791 15.397081,37.079933 15.063587,35.785545 
	C15.026005,35.549019 14.988199,35.071522 15.360507,35.046288 
	C16.478157,35.011116 17.223499,35.001171 18.016632,35.213318 
	C18.064423,35.435406 18.080992,35.889450 18.052265,36.289036 
	C18.010660,37.751762 17.997782,38.814903 17.984901,39.878044 
z"/>
<path fill="#5064AA" opacity="1.000000" stroke="none" 
	d="
M18.080992,35.889450 
	C18.080992,35.889450 18.064423,35.435406 18.109699,34.997017 
	C18.154976,34.558628 18.296453,34.109245 18.563665,34.008560 
	C19.187000,33.763752 19.543123,33.619629 19.899246,33.475506 
	C20.247322,33.781052 20.595400,34.086594 21.052731,34.953201 
	C21.152731,35.692730 21.143480,35.871189 20.946495,36.425922 
	C20.716293,37.622242 20.673822,38.442295 20.633766,39.307945 
	C20.636183,39.353542 20.648655,39.444016 20.648655,39.444016 
	C20.499178,39.322945 20.413143,39.166851 20.415016,38.520645 
	C19.653318,37.340191 18.867155,36.614819 18.080992,35.889450 
z"/>
<path fill="#EB9048" opacity="1.000000" stroke="none" 
	d="
M20.631351,39.262344 
	C20.673822,38.442295 20.716293,37.622242 21.302914,36.415173 
	C22.561884,36.026901 23.276705,36.025650 24.002045,36.381516 
	C23.609274,37.830097 23.205982,38.921566 22.802689,40.013031 
	C22.802689,40.013031 22.488970,40.082233 22.133789,39.804379 
	C21.396191,39.438465 21.013771,39.350403 20.631351,39.262344 
z"/>
<path fill="#F5B257" opacity="1.000000" stroke="none" 
	d="
M16.971050,26.993885 
	C17.461557,27.310055 17.968641,27.632502 18.989471,28.017941 
	C19.503220,28.080933 19.942549,28.065741 19.942549,28.065741 
	C19.942549,28.065741 19.975813,28.073677 19.954048,28.329117 
	C19.932285,28.584557 19.988922,29.080126 20.003666,29.322090 
	C20.018410,29.564053 20.076975,30.045328 20.076975,30.045328 
	C20.076975,30.045328 20.063370,30.086100 19.782534,30.072144 
	C19.322880,30.070320 19.144062,30.082455 18.588856,30.062511 
	C17.459026,29.973469 16.705584,29.916506 15.952143,29.859543 
	C15.953801,29.469788 15.955461,29.080032 16.214916,28.307358 
	C16.638166,27.612692 16.803623,27.300947 16.969078,26.989201 
	C16.969078,26.989201 16.987623,27.000160 16.971050,26.993885 
z"/>
<path fill="#DC744B" opacity="1.000000" stroke="none" 
	d="
M19.988922,29.080126 
	C19.988922,29.080126 19.932285,28.584557 19.934948,28.336172 
	C20.549881,27.599255 21.162153,27.110723 21.933083,26.374123 
	C22.538887,26.948284 22.986034,27.770512 22.841770,28.793802 
	C21.496548,29.023287 20.742735,29.051706 19.988922,29.080126 
z"/>
<path fill="#EFB471" opacity="1.000000" stroke="none" 
	d="
M24.937307,35.035423 
	C24.995579,34.829876 25.053852,34.624332 25.522633,34.144409 
	C26.330116,33.952351 26.727091,34.034668 27.126644,34.413212 
	C27.224396,35.094997 27.319571,35.480556 27.414745,35.866116 
	C27.378511,36.062359 27.342279,36.258602 27.211220,36.766823 
	C27.116392,37.078796 27.073015,37.114700 26.808300,37.165245 
	C26.082571,37.496368 25.621553,37.776943 25.098965,37.723534 
	C24.985802,36.940166 24.934212,36.490776 24.915266,35.790932 
	C24.944378,35.372124 24.940842,35.203773 24.937307,35.035423 
z"/>
<path fill="#F5F4F5" opacity="1.000000" stroke="none" 
	d="
M27.132317,37.055580 
	C27.721792,37.727444 28.295340,38.422531 28.567440,39.456619 
	C27.939116,39.795841 27.612461,39.804520 27.219357,39.485588 
	C27.126129,38.471241 27.099573,37.792969 27.073015,37.114700 
	C27.073015,37.114700 27.116392,37.078796 27.132317,37.055580 
z"/>
<path fill="#CD4C4B" opacity="1.000000" stroke="none" 
	d="
M18.296453,34.109245 
	C18.296453,34.109245 18.154976,34.558628 18.061909,34.774925 
	C17.223499,35.001171 16.478157,35.011116 15.128141,34.978157 
	C14.523467,34.935257 14.048665,34.843357 14.048665,34.843357 
	C14.048665,34.843357 13.994909,34.445118 14.187887,34.130478 
	C14.587145,33.544476 14.793424,33.273106 14.999702,33.001740 
	C15.024309,32.833000 15.048915,32.664261 15.286940,32.259056 
	C15.500360,32.022591 15.723850,32.016041 15.851639,32.361526 
	C16.751770,33.174419 17.524111,33.641834 18.296453,34.109245 
z"/>
<path fill="#D96849" opacity="1.000000" stroke="none" 
	d="
M18.052265,36.289036 
	C18.867155,36.614819 19.653318,37.340191 20.354057,38.396435 
	C19.716209,39.050053 19.163786,39.372791 18.298132,39.786789 
	C17.997782,38.814903 18.010660,37.751762 18.052265,36.289036 
z"/>
<path fill="#C8414B" opacity="1.000000" stroke="none" 
	d="
M14.620470,33.001137 
	C14.793424,33.273106 14.587145,33.544476 14.149413,33.933270 
	C12.856151,33.984276 11.794340,33.917858 10.732531,33.851437 
	C10.744408,33.646065 10.756286,33.440697 10.768163,33.235325 
	C11.925855,33.157063 13.083546,33.078800 14.620470,33.001137 
z"/>
<path fill="#C8414B" opacity="1.000000" stroke="none" 
	d="
M27.124067,34.116985 
	C26.727091,34.034668 26.330116,33.952351 25.630522,33.842648 
	C25.222290,33.583969 25.239313,33.362087 25.840231,33.045139 
	C26.532690,32.909618 26.763895,32.878571 26.995098,32.847527 
	C27.430065,32.891457 27.865034,32.935383 28.626896,32.937675 
	C29.076826,33.209347 29.199860,33.522659 28.850433,33.929440 
	C27.960007,34.054268 27.542036,34.085629 27.124067,34.116985 
z"/>
<path fill="#FDD259" opacity="1.000000" stroke="none" 
	d="
M26.808300,37.165245 
	C27.099573,37.792969 27.126129,38.471241 26.913193,39.549610 
	C26.467152,39.971687 26.260603,39.993660 26.054056,40.015633 
	C25.833200,39.994991 25.612347,39.974346 25.137842,39.612949 
	C24.976305,38.867302 25.068420,38.462414 25.160538,38.057518 
	C25.621553,37.776943 26.082571,37.496368 26.808300,37.165245 
z"/>
<path fill="#CE4F4C" opacity="1.000000" stroke="none" 
	d="
M25.098965,37.723537 
	C25.068420,38.462414 24.976305,38.867302 24.807463,39.573524 
	C24.305571,39.922550 23.880404,39.970245 23.128963,40.015488 
	C23.205982,38.921566 23.609274,37.830097 24.224983,36.379002 
	C24.437399,36.019371 24.882620,36.041389 24.882620,36.041389 
	C24.934212,36.490776 24.985802,36.940166 25.098965,37.723537 
z"/>
<path fill="#D1564A" opacity="1.000000" stroke="none" 
	d="
M15.723850,32.016041 
	C15.723850,32.016041 15.500360,32.022591 15.389624,32.024784 
	C15.335934,31.427441 15.392982,30.827902 15.701086,30.043953 
	C16.705584,29.916506 17.459026,29.973469 18.497475,30.265190 
	C18.607780,30.753017 18.376860,30.934628 17.751823,31.046158 
	C16.850569,31.370375 16.287209,31.693209 15.723850,32.016041 
z"/>
<path fill="#F1E4E5" opacity="1.000000" stroke="none" 
	d="
M27.126644,34.413212 
	C27.542036,34.085629 27.960007,34.054268 28.691725,34.062874 
	C28.661720,34.687828 28.317966,35.272820 27.694479,35.861961 
	C27.319571,35.480556 27.224396,35.094997 27.126644,34.413212 
z"/>
<path fill="#CCA868" opacity="1.000000" stroke="none" 
	d="
M26.223778,40.275055 
	C26.260603,39.993660 26.467152,39.971687 26.979866,39.885689 
	C27.612461,39.804520 27.939116,39.795841 28.511051,39.790077 
	C28.839447,40.127960 28.922787,40.471386 29.006126,40.814812 
	C28.135250,40.721371 27.264376,40.627926 26.223778,40.275055 
z"/>
<path fill="#D96849" opacity="1.000000" stroke="none" 
	d="
M15.101170,36.022076 
	C15.397081,37.079933 15.692992,38.137791 15.748915,39.566666 
	C15.508925,39.937683 15.048546,39.873165 15.048546,39.873165 
	C15.010468,39.153442 14.972391,38.433716 14.960736,37.113014 
	C15.025163,36.348717 15.063167,36.185394 15.101170,36.022076 
z"/>
<path fill="#FBC159" opacity="1.000000" stroke="none" 
	d="
M20.003666,29.322090 
	C20.742735,29.051706 21.496548,29.023287 22.627632,28.987320 
	C23.004902,28.979774 23.008583,29.363434 23.010645,29.553991 
	C22.279852,29.832176 21.546997,29.919804 20.445559,30.026379 
	C20.076975,30.045328 20.018410,29.564053 20.003666,29.322090 
z"/>
<path fill="#CBA468" opacity="1.000000" stroke="none" 
	d="
M10.843233,40.631325 
	C11.132973,40.337593 11.571680,40.213921 12.018929,40.154034 
	C12.101938,40.142918 12.219351,40.388737 12.320887,40.515972 
	C11.878974,40.618446 11.437062,40.720921 10.843233,40.631325 
z"/>
<path fill="#F8C16C" opacity="1.000000" stroke="none" 
	d="
M15.063587,35.785545 
	C15.063167,36.185394 15.025163,36.348717 14.920946,36.754860 
	C14.582068,36.484573 14.309403,35.971470 14.042702,35.150860 
	C14.048665,34.843357 14.523467,34.935257 14.755833,35.003387 
	C14.988199,35.071522 15.026005,35.549019 15.063587,35.785545 
z"/>
<path fill="#EEB484" opacity="1.000000" stroke="none" 
	d="
M15.160793,40.131653 
	C15.048546,39.873165 15.508925,39.937683 15.740387,39.917786 
	C16.166792,39.933861 16.361734,39.969826 16.851196,40.058472 
	C16.521492,40.204151 15.897266,40.297142 15.160793,40.131653 
z"/>
<path fill="#CE4F4C" opacity="1.000000" stroke="none" 
	d="
M20.633766,39.307945 
	C21.013771,39.350403 21.396191,39.438465 21.980652,39.755898 
	C21.913027,39.940063 21.643358,39.894859 21.011173,39.646835 
	C20.648655,39.444016 20.636183,39.353542 20.633766,39.307945 
z"/>
<path fill="#DC744B" opacity="1.000000" stroke="none" 
	d="
M16.690613,27.043076 
	C16.803623,27.300947 16.638166,27.612692 16.212021,28.015011 
	C16.104937,27.769371 16.258543,27.433163 16.690613,27.043076 
z"/>
<path fill="#FAB345" opacity="1.000000" stroke="none" 
	d="
M15.851639,32.361526 
	C16.287209,31.693209 16.850569,31.370375 17.776516,31.374937 
	C18.727495,32.292725 19.315887,32.883114 19.904278,33.473507 
	C19.904278,33.473507 19.925179,33.492764 19.912212,33.484135 
	C19.543123,33.619629 19.187000,33.763752 18.563665,34.008560 
	C17.524111,33.641834 16.751770,33.174419 15.851639,32.361526 
z"/>
<path fill="#FFA1D2" opacity="1.000000" stroke="none" 
	d="
M23.416344,33.335487 
	C22.836487,33.049149 22.480543,32.545998 22.124598,32.042847 
	C22.486521,31.851612 22.848442,31.660376 23.210363,31.469139 
	C23.353661,32.018986 23.496958,32.568832 23.416344,33.335487 
z"/>
<path fill="#D36D75" opacity="1.000000" stroke="none" 
	d="
M19.935804,33.050652 
	C19.315887,32.883114 18.727495,32.292725 18.114414,31.373554 
	C18.376860,30.934628 18.607780,30.753017 18.873863,30.297268 
	C19.144062,30.082455 19.322880,30.070320 19.768572,30.088482 
	C20.012741,30.955114 19.990036,31.791456 19.935804,33.050652 
z"/>
<path fill="#D26870" opacity="1.000000" stroke="none" 
	d="
M24.915266,35.790932 
	C24.882620,36.041389 24.437399,36.019371 24.214462,36.021885 
	C23.276705,36.025650 22.561884,36.026901 21.490646,36.038902 
	C21.143480,35.871189 21.152731,35.692730 21.225849,35.254642 
	C22.262369,34.999271 23.235025,35.003529 24.572495,35.021603 
	C24.940842,35.203773 24.944378,35.372124 24.915266,35.790932 
z"/>
<path fill="#FFD250" opacity="1.000000" stroke="none" 
	d="
M26.888084,32.580208 
	C26.763895,32.878571 26.532690,32.909618 25.950129,32.911163 
	C25.992868,32.692070 26.386969,32.502480 26.888084,32.580208 
z"/>
<path fill="#DC744B" opacity="1.000000" stroke="none" 
	d="
M19.887959,27.866322 
	C19.942549,28.065741 19.503220,28.080933 19.284039,28.083870 
	C19.321030,27.946836 19.577200,27.806870 19.887959,27.866322 
z"/>
</svg>